<svg width="142" height="142" viewBox="0 0 142 142" fill="none" xmlns="http://www.w3.org/2000/svg">
<path d="M91.4521 31.5996C92.8896 28.8842 96.3748 28.0229 98.9064 29.7606C111.489 38.4365 119.566 52.6607 120.365 68.092C121.067 81.6679 116.338 94.6194 107.043 104.543C97.7487 114.475 85.1305 120.045 71.4954 120.243C46.0923 120.61 24.1383 101.116 21.5033 75.8632C21.4082 74.9878 21.3379 74.1111 21.2921 73.2248C20.3872 55.7311 28.6875 39.0983 43.364 29.3281C47.5387 26.5458 52.7052 26.2371 57.2076 28.5041C61.761 30.7933 64.6297 35.1962 64.8919 40.2654C65.1541 45.3346 62.8018 49.7916 58.7818 52.516C52.5158 56.7767 49.0181 63.8177 49.4085 71.3635C49.5396 73.8981 50.1058 76.3355 51.0528 78.5871C52.3329 81.6602 54.3348 84.397 56.9671 86.6361C61.5352 90.4943 67.3315 92.2459 73.3086 91.5547C83.8766 90.3436 92.1912 81.0519 92.247 70.4101C92.2603 69.2218 92.1667 68.0556 91.9747 66.9111C91.1581 61.7211 88.4652 57.0268 84.4228 53.6978C82.5493 52.1586 82.0783 49.4755 83.2385 47.3392C84.7624 44.528 88.4921 43.7371 90.9558 45.769C98.2509 51.77 102.571 60.7902 102.531 70.4595C102.476 83.0281 95.0295 94.019 84.1447 99.0585C84.1281 99.0594 84.1041 99.0772 84.0801 99.0951C81.1189 100.452 77.8944 101.375 74.5095 101.766L74.4847 101.767C65.6671 102.78 57.0948 100.184 50.3379 94.4703C43.685 88.843 39.5965 80.6081 39.1458 71.8944C38.5687 60.7371 43.7517 50.3118 53.0104 44.0193C54.0939 43.2905 54.704 42.0797 54.6376 40.7958C54.5382 38.8741 53.1715 37.9814 52.5915 37.6875C52.0377 37.4172 50.5809 36.8696 49.0556 37.887C36.8357 46.0187 30.1846 60.1742 31.7215 74.7949C33.8033 94.8106 51.2129 110.263 71.3382 109.978C82.1598 109.817 92.163 105.396 99.5382 97.5314C106.913 89.6587 110.659 79.3908 110.102 68.6228C109.468 56.364 103.028 45.0532 93.0133 38.1796C90.8864 36.7199 90.249 33.871 91.4516 31.5913L91.4521 31.5996Z" fill="url(#paint0_linear_6846_2360)"/>
<path style="mix-blend-mode:multiply" d="M31.8037 65.9456C31.4554 68.8455 31.4096 71.8129 31.722 74.8032C33.0648 87.7562 40.8365 98.7988 51.6084 104.902C58.1604 119.338 72.2671 120.228 72.2671 120.228C72.0103 120.242 71.7536 120.255 71.4959 120.252C46.0928 120.619 24.1388 101.124 21.5038 75.8715C21.4087 74.9961 21.3384 74.1194 21.2926 73.2331C21.1752 70.9636 21.2165 68.7107 21.4003 66.4837L31.7954 65.9461L31.8037 65.9456Z" fill="url(#paint1_linear_6846_2360)"/>
<path style="mix-blend-mode:multiply" d="M91.9667 66.9199C92.1588 68.0643 92.2523 69.2305 92.2391 70.4188C92.1832 81.0607 83.8687 90.3524 73.3007 91.5634C67.3318 92.2542 61.5356 90.5026 56.9592 86.6449C54.3274 84.414 52.325 81.6689 51.0449 78.5958C51.012 79.2453 51.021 79.9009 51.0553 80.5636C51.6924 92.8804 62.1652 102.355 74.4763 101.768L74.5675 101.763C78.0049 101.585 81.236 100.629 84.0801 99.0951C84.104 99.0772 84.1285 99.0677 84.1446 99.0585C91.4539 95.0594 96.2258 87.122 95.7669 78.2509C95.5493 74.0431 94.1775 70.1608 91.9746 66.9111L91.9667 66.9199Z" fill="url(#paint2_linear_6846_2360)"/>
<path d="M58.5876 71.4204C58.2197 64.3069 63.688 58.242 70.8015 57.8741C77.9149 57.5061 83.9798 62.9745 84.3478 70.088C84.7157 77.2015 79.2474 83.2663 72.1339 83.6343C65.0205 84.0022 58.9556 78.5339 58.5876 71.4204Z" fill="url(#paint3_linear_6846_2360)"/>
<path d="M76.5172 63.0264C69.4021 63.3944 63.9353 69.4575 64.3033 76.5727C64.5127 80.6195 68.0963 83.8428 72.1432 83.6335C79.25 83.2659 84.7251 77.2023 84.3575 70.0955C84.1482 66.0493 80.5634 62.8171 76.5172 63.0264Z" fill="url(#paint4_linear_6846_2360)"/>
<defs>
<linearGradient id="paint0_linear_6846_2360" x1="125.281" y1="104.586" x2="18.3813" y2="37.0238" gradientUnits="userSpaceOnUse">
<stop stop-color="#5315B2"/>
<stop offset="0.45" stop-color="#B339ED"/>
<stop offset="1" stop-color="#F8624F"/>
</linearGradient>
<linearGradient id="paint1_linear_6846_2360" x1="34.3078" y1="89.951" x2="54.7047" y2="94.4355" gradientUnits="userSpaceOnUse">
<stop stop-color="white" stop-opacity="0"/>
<stop offset="1" stop-color="#5315B2" stop-opacity="0.26"/>
</linearGradient>
<linearGradient id="paint2_linear_6846_2360" x1="72.7556" y1="66.7342" x2="74.8789" y2="107.785" gradientUnits="userSpaceOnUse">
<stop stop-color="#5315B2" stop-opacity="0.69"/>
<stop offset="1" stop-color="#3232B8" stop-opacity="0"/>
</linearGradient>
<linearGradient id="paint3_linear_6846_2360" x1="62.7563" y1="61.9362" x2="77.6644" y2="77.0363" gradientUnits="userSpaceOnUse">
<stop stop-color="#5315B2"/>
<stop offset="0.45" stop-color="#C564FD"/>
<stop offset="1" stop-color="#FF405E"/>
</linearGradient>
<linearGradient id="paint4_linear_6846_2360" x1="60.7001" y1="54.8554" x2="83.898" y2="72.6852" gradientUnits="userSpaceOnUse">
<stop stop-color="#FF405E"/>
<stop offset="0.45" stop-color="#B339ED"/>
<stop offset="1" stop-color="#512BEE"/>
</linearGradient>
</defs>
</svg>
