<svg width="66" height="80" viewBox="0 0 66 80" fill="none" xmlns="http://www.w3.org/2000/svg">
<path opacity="0.08" d="M59.7525 68.8104C59.7525 74.4878 47.8299 79.0897 33.1229 79.0897C18.4159 79.0897 6.49356 74.4875 6.49356 68.8104C6.49356 63.1336 18.4159 58.5306 33.1229 58.5306C47.8299 58.5306 59.7525 63.1336 59.7525 68.8104Z" fill="black"/>
<path d="M27.7675 34.2973L26.8955 42.4664H39.3497L38.6632 34.2973H27.7675Z" fill="#F3CCB2"/>
<path opacity="0.1" d="M38.8629 37.7804L38.5708 34.297H27.6751L27.3827 37.0342C29.1111 38.7651 31.184 39.8342 33.5324 39.8342C35.5206 39.8342 37.3113 39.0673 38.8629 37.7804Z" fill="black"/>
<path d="M22.2536 15.5545C19.9703 15.7717 18.6171 17.0383 18.871 19.7037C19.1252 22.3691 20.8903 25.4249 23.1733 25.2065C25.4567 24.9899 26.613 21.6562 26.3591 18.9902C26.1049 16.3257 24.5367 15.3361 22.2536 15.5545Z" fill="#F3CCB2"/>
<path d="M43.9925 15.5546C41.7082 15.3361 40.1406 16.3257 39.8867 18.9902C39.6325 21.6559 40.7894 24.9899 43.0725 25.2065C45.3561 25.4249 47.1213 22.3692 47.3748 19.7038C47.6284 17.0384 46.2758 15.7718 43.9925 15.5546Z" fill="#F3CCB2"/>
<path d="M44.9642 18.2809C44.9642 26.7112 40.3452 36.8146 33.1229 36.8146C25.901 36.8146 21.2819 26.7112 21.2819 18.2809C21.2819 9.85031 25.901 6.28464 33.1229 6.28464C40.3452 6.28495 44.9642 9.85031 44.9642 18.2809Z" fill="#FFE1CB"/>
<path d="M31.294 9.47629C27.3654 10.0962 26.2553 10.9999 26.1869 11.0378C21.6183 13.5802 21.2865 20.7393 21.2865 20.7393C21.2865 20.7393 19.1369 5.89305 24.9166 4.96443C25.4406 0.890691 35.1064 -1.07377 39.3499 0.91565C45.8293 3.95231 46.1938 9.07483 44.9688 19.5602C44.1151 12.3056 43.0814 11.6318 39.3499 10.1729C37.2302 9.3438 33.5 9.12782 31.294 9.47629Z" fill="#673A11"/>
<path d="M33.1229 44.7372C36.8257 44.7372 39.8275 43.7204 39.8275 42.4667H26.4183C26.4183 43.7204 29.4201 44.7372 33.1229 44.7372Z" fill="#2A656E"/>
<path d="M39.3497 42.4664C39.3497 43.4354 36.562 44.2201 33.1229 44.2201C29.6836 44.2201 26.8958 43.4351 26.8958 42.4664C26.8958 41.4971 29.6836 40.712 33.1229 40.712C36.562 40.712 39.3497 41.4974 39.3497 42.4664Z" fill="#F3CCB2"/>
<path opacity="0.2" d="M40.0691 15.4593H37.7543C36.0219 15.4593 34.6169 16.8572 34.6043 18.5865H32.2112C32.1995 16.8572 30.7946 15.4593 29.0618 15.4593H26.747C25.0066 15.4593 23.5961 16.8695 23.5961 18.61V18.9926C23.5961 20.7328 25.0066 22.1436 26.747 22.1436H29.0618C30.6519 22.1436 31.9638 20.9639 32.1786 19.432V19.529H34.6523C34.9078 21.0132 36.1972 22.1433 37.7543 22.1433H40.0691C41.8093 22.1433 43.2201 20.7325 43.2201 18.9923V18.6096C43.2201 16.8695 41.8096 15.4593 40.0691 15.4593ZM31.4293 18.9575C31.4293 20.3809 30.2748 21.5351 28.8514 21.5351H26.9578C25.5343 21.5351 24.3799 20.3809 24.3799 18.9575V18.6451C24.3799 17.221 25.5343 16.0669 26.9578 16.0669H28.8514C30.2751 16.0669 31.4293 17.221 31.4293 18.6451V18.9575ZM42.4366 18.9575C42.4366 20.3809 41.2824 21.5351 39.8584 21.5351H37.9651C36.541 21.5351 35.3869 20.3809 35.3869 18.9575V18.6451C35.3869 17.221 36.541 16.0669 37.9651 16.0669H39.8584C41.2824 16.0669 42.4366 17.221 42.4366 18.6451V18.9575Z" fill="#3D220A"/>
<path d="M39.7838 15.1656H37.4693C35.7359 15.1656 34.3313 16.5644 34.319 18.2941H31.9262C31.9139 16.5644 30.509 15.1656 28.7762 15.1656H26.4617C24.7216 15.1656 23.3111 16.5761 23.3111 18.3166V18.6987C23.3111 20.4391 24.7216 21.8493 26.4617 21.8493H28.7762C30.3669 21.8493 31.6782 20.6705 31.893 19.1396V19.2363H34.3667C34.6221 20.7198 35.9119 21.849 37.469 21.849H39.7835C41.5236 21.849 42.9344 20.4391 42.9344 18.6983V18.3163C42.9348 16.5761 41.5239 15.1656 39.7838 15.1656ZM31.1437 18.6638C31.1437 20.0879 29.9898 21.2417 28.5658 21.2417H26.6722C25.2487 21.2417 24.0949 20.0879 24.0949 18.6638V18.3514C24.0949 16.9274 25.249 15.7748 26.6722 15.7748H28.5658C29.9898 15.7748 31.1437 16.9274 31.1437 18.3514V18.6638ZM42.1509 18.6638C42.1509 20.0879 40.9971 21.2417 39.573 21.2417H37.6794C36.2557 21.2417 35.1019 20.0879 35.1019 18.6638V18.3514C35.1019 16.9274 36.256 15.7748 37.6794 15.7748H39.573C40.9971 15.7748 42.1509 16.9274 42.1509 18.3514V18.6638Z" fill="#3D220A"/>
<path d="M23.9115 18.2837L20.8952 16.5854V15.5249L23.9069 17.5362L23.9115 18.2837Z" fill="#3D220A"/>
<path d="M42.2713 18.2837L45.287 16.5854V15.5249L42.3548 17.4829L42.2713 18.2837Z" fill="#3D220A"/>
<path opacity="0.3" d="M30.1623 16.3294C28.6153 17.8764 27.0689 19.4221 25.5222 20.9691C25.8692 21.1429 26.2589 21.2421 26.6721 21.2421H28.2714C29.2287 20.2858 30.186 19.3279 31.1436 18.37V18.3518C31.1436 17.531 30.7591 16.8014 30.1623 16.3294Z" fill="white"/>
<path opacity="0.3" d="M24.3807 17.1758L25.4967 16.0598C25.0176 16.3057 24.6266 16.697 24.3807 17.1758Z" fill="white"/>
<path opacity="0.3" d="M28.566 15.7748H27.1189C26.1129 16.7792 25.107 17.7864 24.1007 18.7921C24.1315 19.4067 24.3762 19.9638 24.7631 20.3914C26.2682 18.8863 27.7742 17.381 29.279 15.8759C29.0522 15.8112 28.8134 15.7748 28.566 15.7748Z" fill="white"/>
<path opacity="0.3" d="M40.7644 16.0669C39.2162 17.6151 37.6674 19.1648 36.1188 20.7124C36.552 21.0433 37.0918 21.2421 37.6794 21.2421H38.4595C39.6571 20.0448 40.855 18.8466 42.0529 17.6493C41.8579 16.9622 41.3859 16.3919 40.7644 16.0669Z" fill="white"/>
<path opacity="0.3" d="M39.8083 21.2301C41.0438 21.1179 42.0273 20.1357 42.1391 18.8996C41.3621 19.6766 40.5851 20.4536 39.8083 21.2301Z" fill="white"/>
<path opacity="0.3" d="M39.573 15.7748H37.6794C36.2557 15.7748 35.1018 16.9274 35.1018 18.3515V18.6639C35.1018 19.1581 35.2429 19.6178 35.4845 20.0109C36.894 18.6007 38.3039 17.1915 39.7138 15.781C39.6673 15.7791 39.6204 15.7748 39.573 15.7748Z" fill="white"/>
<path d="M27.7675 34.2973L26.8955 42.4664H39.3497L38.6632 34.2973H27.7675Z" fill="#F3CCB2"/>
<path opacity="0.1" d="M38.8629 37.7804L38.5708 34.297H27.6751L27.3827 37.0342C29.1111 38.7651 31.184 39.8342 33.5324 39.8342C35.5206 39.8342 37.3113 39.0673 38.8629 37.7804Z" fill="black"/>
<path d="M22.2536 15.5545C19.9703 15.7717 18.6171 17.0383 18.871 19.7037C19.1252 22.3691 20.8903 25.4249 23.1733 25.2065C25.4567 24.9899 26.613 21.6562 26.3591 18.9902C26.1049 16.3257 24.5367 15.3361 22.2536 15.5545Z" fill="#F3CCB2"/>
<path d="M43.9925 15.5546C41.7082 15.3361 40.1406 16.3257 39.8867 18.9902C39.6325 21.6559 40.7894 24.9899 43.0725 25.2065C45.3561 25.4249 47.1213 22.3692 47.3748 19.7038C47.6284 17.0384 46.2758 15.7718 43.9925 15.5546Z" fill="#F3CCB2"/>
<path d="M44.9642 18.2809C44.9642 26.7112 40.3452 36.8146 33.1229 36.8146C25.901 36.8146 21.2819 26.7112 21.2819 18.2809C21.2819 9.85031 25.901 6.28464 33.1229 6.28464C40.3452 6.28495 44.9642 9.85031 44.9642 18.2809Z" fill="#FFE1CB"/>
<path d="M31.294 9.47629C27.3654 10.0962 26.2553 10.9999 26.1869 11.0378C21.6183 13.5802 21.2865 20.7393 21.2865 20.7393C21.2865 20.7393 19.1369 5.89305 24.9166 4.96443C25.4406 0.890691 35.1064 -1.07377 39.3499 0.91565C45.8293 3.95231 46.1938 9.07483 44.9688 19.5602C44.1151 12.3056 43.0814 11.6318 39.3499 10.1729C37.2302 9.3438 33.5 9.12782 31.294 9.47629Z" fill="#673A11"/>
<path d="M33.1229 44.7372C36.8257 44.7372 39.8275 43.7204 39.8275 42.4667H26.4183C26.4183 43.7204 29.4201 44.7372 33.1229 44.7372Z" fill="#2A656E"/>
<path d="M39.3497 42.4664C39.3497 43.4354 36.562 44.2201 33.1229 44.2201C29.6836 44.2201 26.8958 43.4351 26.8958 42.4664C26.8958 41.4971 29.6836 40.712 33.1229 40.712C36.562 40.712 39.3497 41.4974 39.3497 42.4664Z" fill="#F3CCB2"/>
<path opacity="0.2" d="M40.0691 15.4593H37.7543C36.0219 15.4593 34.6169 16.8572 34.6043 18.5865H32.2112C32.1995 16.8572 30.7946 15.4593 29.0618 15.4593H26.747C25.0066 15.4593 23.5961 16.8695 23.5961 18.61V18.9926C23.5961 20.7328 25.0066 22.1436 26.747 22.1436H29.0618C30.6519 22.1436 31.9638 20.9639 32.1786 19.432V19.529H34.6523C34.9078 21.0132 36.1972 22.1433 37.7543 22.1433H40.0691C41.8093 22.1433 43.2201 20.7325 43.2201 18.9923V18.6096C43.2201 16.8695 41.8096 15.4593 40.0691 15.4593ZM31.4293 18.9575C31.4293 20.3809 30.2748 21.5351 28.8514 21.5351H26.9578C25.5343 21.5351 24.3799 20.3809 24.3799 18.9575V18.6451C24.3799 17.221 25.5343 16.0669 26.9578 16.0669H28.8514C30.2751 16.0669 31.4293 17.221 31.4293 18.6451V18.9575ZM42.4366 18.9575C42.4366 20.3809 41.2824 21.5351 39.8584 21.5351H37.9651C36.541 21.5351 35.3869 20.3809 35.3869 18.9575V18.6451C35.3869 17.221 36.541 16.0669 37.9651 16.0669H39.8584C41.2824 16.0669 42.4366 17.221 42.4366 18.6451V18.9575Z" fill="#3D220A"/>
<path d="M39.7838 15.1656H37.4693C35.7359 15.1656 34.3313 16.5644 34.319 18.2941H31.9262C31.9139 16.5644 30.509 15.1656 28.7762 15.1656H26.4617C24.7216 15.1656 23.3111 16.5761 23.3111 18.3166V18.6987C23.3111 20.4391 24.7216 21.8493 26.4617 21.8493H28.7762C30.3669 21.8493 31.6782 20.6705 31.893 19.1396V19.2363H34.3667C34.6221 20.7198 35.9119 21.849 37.469 21.849H39.7835C41.5236 21.849 42.9344 20.4391 42.9344 18.6983V18.3163C42.9348 16.5761 41.5239 15.1656 39.7838 15.1656ZM31.1437 18.6638C31.1437 20.0879 29.9898 21.2417 28.5658 21.2417H26.6722C25.2487 21.2417 24.0949 20.0879 24.0949 18.6638V18.3514C24.0949 16.9274 25.249 15.7748 26.6722 15.7748H28.5658C29.9898 15.7748 31.1437 16.9274 31.1437 18.3514V18.6638ZM42.1509 18.6638C42.1509 20.0879 40.9971 21.2417 39.573 21.2417H37.6794C36.2557 21.2417 35.1019 20.0879 35.1019 18.6638V18.3514C35.1019 16.9274 36.256 15.7748 37.6794 15.7748H39.573C40.9971 15.7748 42.1509 16.9274 42.1509 18.3514V18.6638Z" fill="#3D220A"/>
<path d="M23.9115 18.2837L20.8952 16.5854V15.5249L23.9069 17.5362L23.9115 18.2837Z" fill="#3D220A"/>
<path d="M42.2713 18.2837L45.287 16.5854V15.5249L42.3548 17.4829L42.2713 18.2837Z" fill="#3D220A"/>
<path opacity="0.3" d="M30.1623 16.3294C28.6153 17.8764 27.0689 19.4221 25.5222 20.9691C25.8692 21.1429 26.2589 21.2421 26.6721 21.2421H28.2714C29.2287 20.2858 30.186 19.3279 31.1436 18.37V18.3518C31.1436 17.531 30.7591 16.8014 30.1623 16.3294Z" fill="white"/>
<path opacity="0.3" d="M24.3807 17.1758L25.4967 16.0598C25.0176 16.3057 24.6266 16.697 24.3807 17.1758Z" fill="white"/>
<path opacity="0.3" d="M28.566 15.7748H27.1189C26.1129 16.7792 25.107 17.7864 24.1007 18.7921C24.1315 19.4067 24.3762 19.9638 24.7631 20.3914C26.2682 18.8863 27.7742 17.381 29.279 15.8759C29.0522 15.8112 28.8134 15.7748 28.566 15.7748Z" fill="white"/>
<path opacity="0.3" d="M40.7644 16.0669C39.2162 17.6151 37.6674 19.1648 36.1188 20.7124C36.552 21.0433 37.0918 21.2421 37.6794 21.2421H38.4595C39.6571 20.0448 40.855 18.8466 42.0529 17.6493C41.8579 16.9622 41.3859 16.3919 40.7644 16.0669Z" fill="white"/>
<path opacity="0.3" d="M39.8083 21.2301C41.0438 21.1179 42.0273 20.1357 42.1391 18.8996C41.3621 19.6766 40.5851 20.4536 39.8083 21.2301Z" fill="white"/>
<path opacity="0.3" d="M39.573 15.7748H37.6794C36.2557 15.7748 35.1018 16.9274 35.1018 18.3515V18.6639C35.1018 19.1581 35.2429 19.6178 35.4845 20.0109C36.894 18.6007 38.3039 17.1915 39.7138 15.781C39.6673 15.7791 39.6204 15.7748 39.573 15.7748Z" fill="white"/>
<path d="M51.4688 75.9199C51.4688 77.2257 50.4102 78.2843 49.1044 78.2843H17.1468C15.841 78.2843 14.7824 77.2257 14.7824 75.9199V72.1367C14.7824 70.831 15.841 69.7726 17.1468 69.7726H49.1044C50.4102 69.7726 51.4688 70.831 51.4688 72.1367V75.9199Z" fill="#7D7D7D"/>
<path d="M49.1045 76.8657H17.1469C15.8411 76.8657 14.7825 75.8071 14.7825 74.5013V75.9202C14.7825 77.2259 15.8411 78.2845 17.1469 78.2845H49.1045C50.4102 78.2845 51.4689 77.2259 51.4689 75.9202V74.5013C51.4689 75.8071 50.4102 76.8657 49.1045 76.8657Z" fill="#575757"/>
<path d="M65.8018 59.844C65.8018 61.1501 64.7432 62.2087 63.4374 62.2087H2.81391C1.50786 62.2087 0.449524 61.1504 0.449524 59.844V25.9161C0.449524 24.6109 1.50786 23.552 2.81391 23.552H63.4374C64.7432 23.552 65.8018 24.6109 65.8018 25.9161V59.844Z" fill="#C7C7C7"/>
<path d="M2.81381 23.552H63.4373C64.7431 23.552 65.8017 24.6109 65.8017 25.9161V59.844L2.81381 23.552Z" fill="#D9D9D9"/>
<path d="M63.9811 58.5315C63.9811 59.7642 62.9816 61.0262 61.7486 61.0262H4.50251C3.26948 61.0262 2.26968 59.7642 2.26968 58.5315V26.9664C2.26968 25.7334 3.26948 24.7339 4.50251 24.7339H61.7486C62.9816 24.7339 63.9811 25.7334 63.9811 26.9664V58.5315Z" fill="#B8B8B8"/>
<path d="M45.0525 46.6039C45.0525 53.1911 39.7128 58.5306 33.1259 58.5306C26.5386 58.5306 21.1986 53.1911 21.1986 46.6039C21.1986 40.0167 26.5386 34.6763 33.1259 34.6763C39.7128 34.6763 45.0525 40.0167 45.0525 46.6039Z" fill="#7D7D7D"/>
<path d="M37.4504 46.6039H28.801C27.495 46.6039 26.4363 47.6626 26.4363 48.968V72.6112C26.4363 73.9166 27.495 74.9756 28.801 74.9756H37.4504C38.7564 74.9756 39.8151 73.9166 39.8151 72.6112V48.968C39.8151 47.6626 38.7564 46.6039 37.4504 46.6039ZM34.692 64.6504C34.692 65.5156 33.9907 66.2169 33.1256 66.2169C32.2604 66.2169 31.5589 65.5156 31.5589 64.6504V61.6372C31.5589 60.7714 32.2604 60.0702 33.1256 60.0702C33.9904 60.0702 34.692 60.7714 34.692 61.6372V64.6504Z" fill="#BDBDBD"/>
<path d="M39.1856 56.2451V71.3218C39.1856 72.5043 38.2265 73.4638 37.0436 73.4638H29.2074C28.0246 73.4638 27.0654 72.5043 27.0654 71.3218V56.2451L26.436 58.8338V72.6112C26.436 73.9167 27.4946 74.9756 28.8007 74.9756H37.45C38.7561 74.9756 39.8147 73.9167 39.8147 72.6112V58.8338L39.1856 56.2451Z" fill="#ADADAD"/>
<path d="M27.0654 56.345V50.2578C27.0654 49.0753 28.0242 48.1165 29.2074 48.1165H37.0436C38.2265 48.1165 39.1856 49.0753 39.1856 50.2578V56.2452L39.815 58.8338V48.9681C39.815 47.6627 38.7564 46.604 37.4503 46.604H28.801C27.4949 46.604 26.4363 47.6627 26.4363 48.9681V58.8338L27.0654 56.345Z" fill="#CFCFCF"/>
<path d="M33.1258 60.0703C33.616 60.0703 34.0532 60.2958 34.3407 60.6483C34.092 60.2366 33.6419 59.9603 33.1258 59.9603C32.6091 59.9603 32.159 60.2369 31.9107 60.6483C32.1975 60.2958 32.635 60.0703 33.1258 60.0703Z" fill="#CFCFCF"/>
</svg>
