<svg width="350" height="350" viewBox="0 0 350 350" fill="none" xmlns="http://www.w3.org/2000/svg">
<path d="M177.619 334.327C268.584 334.327 342.326 291.752 342.326 239.233C342.326 186.715 268.584 144.14 177.619 144.14C86.6545 144.14 12.9129 186.715 12.9129 239.233C12.9129 291.752 86.6545 334.327 177.619 334.327Z" fill="#F5F5F5"/>
<path d="M286.218 285.866C312.023 285.866 332.942 273.788 332.942 258.89C332.942 243.992 312.023 231.914 286.218 231.914C260.413 231.914 239.495 243.992 239.495 258.89C239.495 273.788 260.413 285.866 286.218 285.866Z" fill="#E0E0E0"/>
<path d="M167.965 273.442L115.256 243.001L175.504 208.218L228.22 238.653L167.965 273.442Z" fill="#E0E0E0"/>
<path d="M24.437 264.023L92.4203 303.273L149.444 270.362L81.4611 231.112L24.437 264.023Z" fill="#E0E0E0"/>
<path d="M124.962 79.5406V75.6801H124.96C124.948 75.3133 124.69 74.9402 124.187 74.6511L100.863 61.2657C99.8732 60.6973 98.2674 60.6973 97.2776 61.2657L30.2274 99.7447C29.7234 100.034 29.4665 100.407 29.4546 100.774H29.4511V104.634H29.4546C29.4665 105.001 29.7241 105.374 30.2274 105.663L53.5507 119.048C54.5405 119.616 56.1463 119.616 57.1361 119.048L124.186 80.5689C124.69 80.2798 124.947 79.9067 124.959 79.5399L124.962 79.5406Z" fill="#F0F0F0"/>
<path d="M30.2274 101.803L53.5507 115.188C54.5412 115.756 56.1463 115.756 57.1361 115.188L124.186 76.7081C125.177 76.1397 125.177 75.2185 124.186 74.6501L100.863 61.2661C99.8732 60.6977 98.2674 60.6977 97.2776 61.2661L30.2274 99.7451C29.2376 100.314 29.2376 101.235 30.2274 101.803Z" fill="#FAFAFA"/>
<path d="M55.3406 115.618V119.479C54.6945 119.479 54.0491 119.33 53.5521 119.051L30.2253 105.667C29.7199 105.379 29.4637 105 29.4553 104.638H29.4469V100.777H29.4553C29.4609 100.63 29.5183 100.483 29.6023 100.34C29.3314 100.838 29.5351 101.41 30.2253 101.806L53.5521 115.19C54.0407 115.478 54.6952 115.618 55.3406 115.618Z" fill="#E0E0E0"/>
<path d="M67.8713 82.9711L87.6323 94.2369L120.278 75.5021L100.519 64.2349L67.8713 82.9711Z" fill="#E0E0E0"/>
<path d="M87.8577 93.3801L68.7953 82.4405C69.293 81.0272 69.2559 79.3787 68.6924 77.4971L87.633 88.3205C87.633 88.3205 87.9942 89.5147 87.8577 93.3801Z" fill="white"/>
<path d="M86.66 86.777C87.6715 87.3573 88.4912 88.7692 88.4912 89.9305V93.6146C88.4912 94.7759 87.6715 95.2463 86.66 94.666L67.8734 83.8846L67.8713 82.9718L86.4066 93.5418C87.0135 93.8904 87.5049 93.6076 87.5042 92.9111L87.4867 89.4972C87.486 88.8007 86.9932 87.9537 86.3863 87.6051L67.8727 77.0302V75.9956L86.66 86.777Z" fill="#EBEBEB"/>
<path d="M67.8734 75.9975L100.519 57.2627L119.304 68.0427C120.315 68.623 121.135 70.0356 121.135 71.1962L121.136 74.8803C121.135 75.4585 120.932 75.8666 120.599 76.0577L87.9529 94.7925C88.2861 94.6014 88.4891 94.1933 88.4905 93.6151L88.4933 89.9282C88.4933 88.7676 87.6729 87.355 86.6621 86.7747L67.8734 75.9975Z" fill="#FAFAFA"/>
<path d="M87.9564 88.1348C88.2875 88.7053 88.4933 89.3486 88.4926 89.9289L88.4898 93.6158C88.4884 94.194 88.2861 94.6014 87.9522 94.7932L120.598 76.0584C120.931 75.8673 121.134 75.4592 121.135 74.881L121.134 71.1969C121.134 70.6166 120.929 69.9733 120.597 69.4028L87.9564 88.1348Z" fill="#F0F0F0"/>
<path d="M47.7799 54.9341L47.5951 57.4289L69.657 69.2631L70.1547 67.8106L47.7799 54.9341Z" fill="#EBEBEB"/>
<path d="M69.8614 68.3888L48.4904 56.0527L44.7741 58.1982L66.5651 70.9466L69.8614 68.3888Z" fill="white"/>
<path d="M62.552 69.6255L60.4394 94.3901C60.4394 94.8962 60.7929 95.5094 61.2297 95.7628L73.6274 102.938C73.8073 103.041 74.0362 103.102 74.2707 103.12L66.5658 71.7528C66.3306 71.7346 66.1024 71.6765 65.9225 71.5729L65.0293 71.0542L62.552 69.6255Z" fill="#E0E0E0"/>
<path d="M67.5073 71.5728L69.7165 69.68L71.3405 68.2891C71.5064 68.0245 71.6996 67.8271 71.596 67.6108L79.1973 98.7531L79.2092 98.7776C79.3163 98.9974 79.3436 99.4867 79.0447 99.6575L75.2122 102.938C74.9532 103.088 74.6025 103.149 74.27 103.121L66.5651 71.7534C66.8976 71.78 67.2483 71.7191 67.5073 71.5728Z" fill="#F0F0F0"/>
<path d="M71.3412 67.3737C71.7787 67.6264 71.6702 67.9085 71.3412 68.2886L67.5073 71.5716C67.0698 71.8243 66.36 71.8243 65.9225 71.5716L62.5513 69.6249C62.1138 69.3722 62.0361 69.0075 62.3784 68.8101C62.7207 68.6127 63.3528 68.6575 63.7903 68.9102L66.4503 70.446C66.5959 70.53 66.8325 70.53 66.9788 70.446L69.7802 68.0135C69.9258 67.9295 69.9258 67.793 69.7802 67.7083L47.7799 54.934L48.8341 54.3257L71.3412 67.3737Z" fill="#FAFAFA"/>
<path d="M41.412 56.1299L62.4337 68.2742V108.267L41.412 96.1251V56.1299Z" fill="#EBEBEB"/>
<path d="M61.7575 68.9382L41.412 57.2622C40.3641 58.4739 38.8101 59.3195 36.7598 59.8053L56.9324 71.4309C56.9324 71.4309 58.2358 71.1271 61.7575 68.9382Z" fill="white"/>
<path d="M54.9773 71.3621C56.0567 71.9816 57.8074 71.9816 58.8875 71.3621L62.3133 69.3958C63.3927 68.7763 63.3927 67.7718 62.3133 67.1523L42.2618 55.645L41.412 56.1301L61.1331 67.5198C61.7806 67.8915 61.7806 68.4942 61.1324 68.8652L57.9488 70.6712C57.3006 71.0422 56.2499 71.0422 55.6024 70.6705L35.8876 59.3025L34.9258 59.8541L54.9773 71.3621Z" fill="#FAFAFA"/>
<path d="M34.9279 59.8535V99.8466L54.9773 111.353C56.0567 111.972 57.8081 111.972 58.8868 111.353L62.3133 109.387C62.8502 109.078 63.1211 108.674 63.1211 108.265V68.2724C63.1211 68.6805 62.8502 69.0844 62.3133 69.3945L58.8868 71.3643C57.8074 71.9838 56.056 71.9838 54.9773 71.3643L34.9279 59.8535Z" fill="#EBEBEB"/>
<path d="M56.9324 71.8285C57.6401 71.8285 58.3478 71.6738 58.8875 71.3644L62.314 69.3946C62.8509 69.0852 63.1218 68.6813 63.1218 68.2725V108.266C63.1218 108.674 62.8509 109.078 62.314 109.388L58.8875 111.353C58.3478 111.663 57.6401 111.817 56.9324 111.817V71.8285Z" fill="#F0F0F0"/>
<path d="M226.105 216.969C225.628 208.58 221.913 191.786 226.808 176.289C229.296 168.413 235.01 160.068 243.518 157.716C246.527 156.884 250.249 156.995 251.729 160.425C251.978 161.001 252.117 161.622 252.162 162.248C252.346 164.854 251.162 167.16 249.844 169.289C246.831 174.159 243.002 178.483 239.947 183.328C238.328 185.896 236.941 188.592 235.74 191.371" stroke="#7E57C2" stroke-width="0.8828" stroke-miterlimit="10"/>
<path d="M225.905 222.451C225.905 223.457 226.17 224.718 225.947 225.678C225.88 225.968 225.821 226.284 225.945 226.554C226.069 226.824 226.46 226.984 226.674 226.777C226.829 226.628 226.991 225.547 227.091 225.272C227.303 224.687 227.624 224.119 227.899 223.561C228.456 222.429 229.051 221.315 229.679 220.222C230.977 217.966 232.423 215.796 234.006 213.731C237.122 209.662 240.766 205.996 244.833 202.876C249.246 199.489 254.129 196.74 258.443 193.229C259.715 192.195 260.982 191.027 261.528 189.481C262.342 187.173 261.261 184.476 259.342 182.955C257.424 181.435 254.843 180.955 252.402 181.135C250.065 181.308 246.918 182.314 244.335 183.721C239.071 186.588 235.454 191.03 232.561 196.06C228.7 202.772 226.502 210.416 225.905 218.121C225.905 219.565 225.905 221.008 225.905 222.451Z" stroke="#7E57C2" stroke-width="0.8828" stroke-miterlimit="10"/>
<path d="M255.954 185.326C245.992 188.179 231.227 199.618 225.905 220.854" stroke="#7E57C2" stroke-width="0.8828" stroke-miterlimit="10" stroke-linecap="round" stroke-linejoin="round"/>
<path d="M245.71 162.254C240.332 166.534 227.492 180.09 225.872 202.005" stroke="#7E57C2" stroke-width="0.8828" stroke-miterlimit="10" stroke-linecap="round" stroke-linejoin="round"/>
<path d="M223.926 115.564L185.004 93.1243C184.178 92.6476 183.43 92.6021 182.889 92.915C182.386 93.2055 180.59 94.2464 180.085 94.5327C179.539 94.8428 179.201 95.5155 179.201 96.4745L179.201 202.99C179.201 204.898 180.541 207.218 182.193 208.172L221.115 230.611C221.941 231.089 222.689 231.134 223.23 230.821C223.733 230.53 225.541 229.49 226.047 229.195C226.585 228.882 226.918 228.212 226.918 227.261V120.746C226.918 118.837 225.579 116.518 223.926 115.564Z" fill="#263238"/>
<path d="M187.621 204.824L184.815 206.445L184.815 215.303C184.815 215.78 185.151 216.36 185.564 216.599L186.874 217.356C187.287 217.594 187.957 217.594 188.37 217.356L189.68 216.599C190.093 216.36 190.555 215.802 190.711 215.351L193.236 208.065L187.621 204.824Z" fill="#263238"/>
<path d="M184.815 215.303C184.815 215.78 185.149 216.36 185.563 216.599L186.873 217.355C187.286 217.594 187.748 217.422 187.904 216.971L190.429 209.685L184.815 206.444V215.303Z" fill="#37474F"/>
<path d="M215.687 220.993L212.88 222.613L212.881 231.472C212.881 231.948 213.216 232.529 213.629 232.767L214.94 233.524C215.353 233.763 216.023 233.763 216.436 233.524L217.746 232.767C218.159 232.529 218.62 231.97 218.777 231.519L221.301 224.233L215.687 220.993Z" fill="#263238"/>
<path d="M212.881 231.472C212.881 231.949 213.216 232.529 213.629 232.768L214.939 233.525C215.352 233.764 215.813 233.591 215.97 233.141L218.494 225.854L212.88 222.613L212.881 231.472Z" fill="#37474F"/>
<path d="M182.393 94.798L221.315 117.237C222.967 118.191 224.307 120.511 224.307 122.419V228.935C224.307 229.889 223.972 230.559 223.43 230.872C222.889 231.185 222.141 231.139 221.315 230.662L182.393 208.223C180.741 207.269 179.402 204.949 179.402 203.041L179.401 96.5256C179.401 95.5666 179.74 94.8939 180.286 94.5838C180.826 94.2765 181.571 94.3241 182.393 94.798Z" fill="#37474F"/>
<path d="M125.875 240.435L167.974 264.741L226.913 230.713L224.106 229.092L182.007 204.786L125.875 237.194V240.435Z" fill="#455A64"/>
<path d="M167.974 264.741V261.5L226.913 227.472V230.713L167.974 264.741Z" fill="#263238"/>
<path d="M168.025 259.88C175.899 247.968 175.461 226.908 174.784 223.353C174.784 223.353 178.105 245.616 182.195 251.973" stroke="#FAFAFA" stroke-width="0.7403" stroke-miterlimit="10"/>
<path d="M176.186 231.443C177.538 237.933 192.895 242.515 192.895 242.515" stroke="#FAFAFA" stroke-width="0.7403" stroke-miterlimit="10"/>
<path d="M174.673 237.898C175.106 236.845 177.241 236.699 177.647 238.411C177.647 238.411 177.893 235.259 179.67 236.153" stroke="#FAFAFA" stroke-width="0.7403" stroke-miterlimit="10"/>
<path d="M174.064 242.514C174.854 240.82 177.767 239.89 179.047 243.906C179.047 243.906 179.24 236.719 183.993 238.88" stroke="#FAFAFA" stroke-width="0.7403" stroke-miterlimit="10"/>
<path d="M172.711 248.876C174.377 245.67 178.947 244.389 180.122 247.347C180.149 243.696 184.329 239.092 189.431 241.307" stroke="#FAFAFA" stroke-width="0.7403" stroke-miterlimit="10"/>
<path d="M169.888 256.598C171.844 253.044 176.64 246.63 180.823 249.215" stroke="#FAFAFA" stroke-width="0.7403" stroke-miterlimit="10"/>
<path d="M221.299 195.064L221.301 198.304L167.973 229.093L125.874 204.786V201.546L179.201 170.759L221.299 195.064Z" fill="#263238"/>
<path d="M221.299 195.064L167.973 225.852L125.874 201.546L179.201 170.759L221.299 195.064Z" fill="#455A64"/>
<path d="M221.299 159.415L221.301 162.654L167.973 193.443L125.874 169.137V165.896L179.201 135.109L221.299 159.415Z" fill="#263238"/>
<path d="M221.299 159.415L167.973 190.202L125.874 165.896L179.201 135.109L221.299 159.415Z" fill="#455A64"/>
<path d="M167.793 147.934L128.871 125.494C128.045 125.018 127.296 124.972 126.755 125.285C126.253 125.576 124.456 126.617 123.952 126.903C123.405 127.213 123.067 127.886 123.067 128.845L123.068 235.36C123.068 237.268 124.407 239.588 126.059 240.542L164.981 262.981C165.807 263.458 166.555 263.504 167.096 263.191C167.599 262.9 169.407 261.86 169.913 261.565C170.451 261.252 170.785 260.583 170.785 259.631V153.116C170.785 151.208 169.445 148.888 167.793 147.934Z" fill="#263238"/>
<path opacity="0.2" d="M167.973 164.28L170.785 162.659V152.931L167.965 154.554L167.973 164.28Z" fill="black"/>
<path opacity="0.2" d="M224.115 131.874L226.927 130.254V120.526L224.106 122.149L224.115 131.874Z" fill="black"/>
<path d="M131.487 237.194L128.681 238.815L128.682 247.673C128.682 248.15 129.016 248.73 129.429 248.969L130.74 249.726C131.153 249.964 131.823 249.964 132.236 249.726L133.546 248.969C133.959 248.73 134.42 248.172 134.577 247.721L137.102 240.435L131.487 237.194Z" fill="#263238"/>
<path d="M128.682 247.673C128.682 248.15 129.016 248.73 129.429 248.969L130.74 249.726C131.153 249.965 131.614 249.792 131.77 249.342L134.295 242.056L128.681 238.815L128.682 247.673Z" fill="#37474F"/>
<path d="M159.554 253.363L156.747 254.984L156.748 263.842C156.748 264.319 157.083 264.899 157.496 265.138L158.806 265.895C159.219 266.133 159.889 266.133 160.302 265.895L161.612 265.138C162.025 264.899 162.487 264.341 162.644 263.89L165.168 256.604L159.554 253.363Z" fill="#263238"/>
<path d="M156.748 263.842C156.748 264.32 157.083 264.899 157.496 265.138L158.806 265.895C159.219 266.133 159.68 265.961 159.837 265.51L162.362 258.225L156.747 254.984L156.748 263.842Z" fill="#37474F"/>
<path d="M126.059 127.117L164.982 149.556C166.634 150.51 167.973 152.83 167.973 154.738V261.254C167.973 262.208 167.974 264.741 167.974 264.741C167.974 264.741 165.808 263.458 164.982 262.981L126.06 240.542C124.408 239.588 123.068 237.268 123.068 235.36L123.068 128.845C123.068 127.886 123.406 127.213 123.952 126.903C124.493 126.596 125.238 126.642 126.059 127.117Z" fill="#37474F"/>
<path opacity="0.2" d="M164.982 149.556L126.059 127.117C125.238 126.642 124.494 126.596 123.952 126.903C123.406 127.213 123.068 127.886 123.068 128.845V138.353L167.973 164.28V154.739C167.973 152.83 166.634 150.51 164.982 149.556Z" fill="black"/>
<path d="M187.62 144.832L218.492 127.007L218.493 159.415" stroke="#FAFAFA" stroke-width="0.7403" stroke-miterlimit="10" stroke-linecap="round" stroke-linejoin="round"/>
<path d="M212.879 151.313L218.492 127.007L207.266 146.452" stroke="#FAFAFA" stroke-width="0.7403" stroke-miterlimit="10" stroke-linecap="round" stroke-linejoin="round"/>
<path d="M218.492 127.007L201.652 143.211" stroke="#FAFAFA" stroke-width="0.7403" stroke-miterlimit="10" stroke-linecap="round" stroke-linejoin="round"/>
<path d="M218.493 154.244C218.5 149.7 213.31 149.448 213.31 149.448C213.628 148.072 213.283 145.862 211.609 144.432C209.936 143.001 208.804 143.787 208.467 144.372C208.467 144.372 208.818 140.196 205.207 139.791C205.207 139.791 207.601 135.374 205.207 134.678" stroke="#FAFAFA" stroke-width="0.7403" stroke-miterlimit="10" stroke-linecap="round" stroke-linejoin="round"/>
<path d="M218.492 147.262C218.309 144.937 216.531 141.98 214.705 143.406C214.705 143.406 215.188 138.333 211.569 138.998C211.569 138.998 213.265 134.293 209.709 135.458C209.709 135.458 212.271 132.219 210.285 131.746" stroke="#FAFAFA" stroke-width="0.7403" stroke-miterlimit="10" stroke-linecap="round" stroke-linejoin="round"/>
<path d="M233.571 115.668C233.576 115.043 233.167 114.418 232.34 113.941L190.611 89.8484C188.959 88.8943 186.279 88.8943 184.627 89.8484L120.445 126.904C119.618 127.381 119.209 128.006 119.214 128.631C119.219 129.211 119.219 131.293 119.214 131.872C119.209 132.497 119.618 133.122 120.445 133.599L162.175 157.691C163.827 158.645 166.506 158.645 168.158 157.691L232.34 120.636C233.167 120.158 233.576 119.533 233.571 118.908C233.566 118.329 233.566 116.247 233.571 115.668Z" fill="#37474F"/>
<path d="M162.175 154.45L120.446 130.358C118.794 129.404 118.794 127.858 120.446 126.904L184.628 89.8484C186.28 88.8943 188.959 88.8943 190.611 89.8484L232.34 113.941C233.992 114.895 233.992 116.442 232.34 117.395L168.16 154.451C166.507 155.404 163.828 155.404 162.175 154.45Z" fill="#455A64"/>
<path opacity="0.1" d="M224.106 125.387L204.461 149.693L170.785 169.14L170.78 156.174L224.106 125.387Z" fill="black"/>
<path opacity="0.1" d="M221.302 162.654L204.461 185.341L170.785 204.789L170.785 191.821L221.302 162.654Z" fill="black"/>
<path opacity="0.1" d="M221.301 198.305L204.461 220.992L170.785 240.44V227.469L221.301 198.305Z" fill="black"/>
<path d="M144.047 269.11L92.414 298.92L34.2706 265.276L85.904 235.466L144.047 269.11Z" fill="#7E57C2"/>
<path opacity="0.5" d="M144.047 269.11L92.414 298.92L34.2706 265.276L85.904 235.466L144.047 269.11Z" fill="black"/>
<path d="M85.9047 195.058L85.904 235.466L34.2706 265.276L34.2713 224.868L85.9047 195.058Z" fill="#7E57C2"/>
<path opacity="0.23" d="M85.9047 195.058L85.904 235.466L34.2706 265.276L34.2713 224.868L85.9047 195.058Z" fill="black"/>
<path d="M92.414 258.509V298.92L34.2706 265.276L34.2713 224.868L92.414 258.509Z" fill="#7E57C2"/>
<path opacity="0.38" d="M92.414 258.509V298.92L34.2706 265.276L34.2713 224.868L92.414 258.509Z" fill="black"/>
<path d="M144.047 228.699V269.11L85.904 235.466L85.9047 195.058L144.047 228.699Z" fill="#7E57C2"/>
<path opacity="0.4" d="M144.047 228.699V269.11L85.904 235.466L85.9047 195.058L144.047 228.699Z" fill="black"/>
<path d="M144.047 269.11V228.699L92.414 258.509V298.92L144.047 269.11Z" fill="#7E57C2"/>
<path opacity="0.23" d="M144.047 269.11V228.699L92.414 258.509V298.92L144.047 269.11Z" fill="black"/>
<path d="M85.9047 195.058L85.9768 172.686L143.977 206.37L144.047 228.699L85.9047 195.058Z" fill="#7E57C2"/>
<path opacity="0.2" d="M85.9047 195.058L85.9768 172.686L143.977 206.37L144.047 228.699L85.9047 195.058Z" fill="black"/>
<path d="M92.414 258.509L97.2559 238.938L148.422 209.398L144.047 228.699L92.414 258.509Z" fill="#7E57C2"/>
<path opacity="0.3" d="M92.414 258.509L97.2559 238.938L148.422 209.398L144.047 228.699L92.414 258.509Z" fill="black"/>
<path d="M34.2713 224.868L28.1127 204.569L79.7454 174.759L85.9047 195.058L34.2713 224.868Z" fill="#7E57C2"/>
<path opacity="0.1" d="M34.2713 224.868L28.1127 204.569L79.7454 174.759L85.9047 195.058L34.2713 224.868Z" fill="black"/>
<path d="M34.2713 224.868L22.1228 208.091L80.2711 241.732L92.414 258.509L34.2713 224.868Z" fill="#7E57C2"/>
<path opacity="0.45" d="M34.2713 224.868L22.1228 208.091L80.2711 241.732L92.414 258.509L34.2713 224.868Z" fill="black"/>
<g opacity="0.7">
<path d="M107.617 286.901C107.441 286.901 107.3 286.758 107.3 286.584V279.473C107.3 279.298 107.442 279.156 107.617 279.156C107.792 279.156 107.934 279.299 107.934 279.473V286.584C107.934 286.758 107.792 286.901 107.617 286.901Z" fill="white"/>
<path d="M106.687 281.936C106.645 281.936 106.602 281.928 106.561 281.91C106.4 281.841 106.326 281.653 106.396 281.492L107.526 278.883L108.785 280.339C108.9 280.471 108.885 280.672 108.753 280.787C108.62 280.899 108.42 280.887 108.305 280.755L107.707 280.064L106.979 281.746C106.926 281.864 106.81 281.936 106.687 281.936Z" fill="white"/>
<path d="M110.551 285.227C110.375 285.227 110.234 285.085 110.234 284.91V277.801C110.234 277.626 110.376 277.483 110.551 277.483C110.726 277.483 110.868 277.626 110.868 277.801V284.91C110.868 285.085 110.726 285.227 110.551 285.227Z" fill="white"/>
<path d="M109.623 280.263C109.581 280.263 109.538 280.254 109.497 280.237C109.336 280.167 109.262 279.98 109.332 279.819L110.461 277.212L111.72 278.664C111.835 278.797 111.821 278.998 111.688 279.112C111.555 279.227 111.356 279.213 111.241 279.081L110.642 278.389L109.915 280.071C109.862 280.19 109.745 280.263 109.623 280.263Z" fill="white"/>
</g>
<g opacity="0.7">
<path d="M99.1557 291.727C99.0318 291.727 98.9142 291.697 98.8092 291.638C98.5677 291.5 98.4291 291.223 98.4291 290.875V290.005C98.4291 289.83 98.5712 289.688 98.7462 289.688C98.9219 289.688 99.0633 289.831 99.0633 290.005V290.875C99.0633 291.006 99.099 291.073 99.1235 291.086C99.1466 291.104 99.2215 291.096 99.3307 291.032C99.6107 290.868 99.9208 290.239 99.9208 289.597V285.957C99.9208 285.782 100.063 285.64 100.238 285.64C100.414 285.64 100.555 285.783 100.555 285.957V289.597C100.555 290.425 100.167 291.277 99.652 291.58C99.4868 291.678 99.3153 291.727 99.1557 291.727Z" fill="white"/>
<path d="M95.8139 288.795V288.246C95.8139 285.662 97.6339 282.507 99.8725 281.215C101.017 280.556 102.11 280.458 102.948 280.943C103.787 281.427 104.249 282.422 104.249 283.743V283.926L95.8139 288.795ZM101.772 281.273C101.294 281.273 100.755 281.439 100.19 281.765C98.2877 282.862 96.7134 285.419 96.4789 287.679L103.611 283.561C103.573 282.568 103.229 281.837 102.63 281.491C102.377 281.346 102.088 281.273 101.772 281.273Z" fill="white"/>
</g>
<path opacity="0.7" d="M22.1228 208.091L80.2711 241.732L92.414 258.509L79.625 242.324L22.1228 208.091Z" fill="white"/>
<path opacity="0.7" d="M144.047 228.699L92.414 258.509V298.92L93.3772 259.321L144.047 228.699Z" fill="white"/>
<path d="M68.2759 212.535C73.6029 211.764 78.4693 208.352 81.5577 204.019C82.9955 202.002 84.0882 199.744 84.7077 197.342C85.2761 195.138 85.5946 192.664 85.0325 190.425C84.0693 186.588 80.5133 184.312 76.7529 183.832C74.8573 183.59 72.8945 183.766 71.0864 184.391C69.1593 185.056 67.5857 186.268 66.3985 187.923C65.7818 188.782 65.1357 189.851 65.107 190.942C65.0818 191.892 65.7615 192.571 66.6736 192.726C67.774 192.913 68.9353 192.443 69.8768 191.914C71.0381 191.261 72.0342 190.408 72.8644 189.368C74.5605 187.242 76.006 184.645 76.7445 182.016C77.3822 179.743 77.245 177.262 76.7585 174.976C76.2615 172.639 75.2927 170.252 73.5826 168.535C71.7934 166.739 69.2356 165.85 66.7695 165.528C64.267 165.201 61.6357 165.426 59.2473 166.252C58.219 166.608 57.1571 167.082 56.3591 167.83C55.7585 168.393 55.0718 169.319 55.3175 170.225C55.5905 171.235 56.8918 171.537 57.7941 171.422C59.1115 171.252 60.368 170.433 61.3011 169.523C62.3287 168.52 63.2541 167.297 63.938 166.032C64.442 165.1 64.7514 164.063 64.7297 162.997C64.6394 158.553 59.7352 155.683 55.8887 154.873C54.845 154.653 53.7922 154.585 52.7303 154.664C52.374 154.691 52.591 155.251 52.8801 155.229C54.8996 155.077 56.9786 155.684 58.7706 156.578C60.5087 157.446 62.1628 158.729 63.1183 160.451C64.0808 162.186 63.9688 164.18 62.9545 165.867C62.2601 167.022 61.4187 168.195 60.4191 169.103C59.5854 169.861 58.3331 170.733 57.1459 170.648C56.798 170.622 56.3549 170.456 56.2233 170.069C56.0672 169.611 56.4151 169.078 56.6405 168.798C57.2075 168.094 58.0748 167.669 58.9001 167.303C60.9504 166.393 63.3164 166.097 65.5417 166.213C67.8335 166.333 70.2184 166.923 72.0811 168.319C73.8311 169.63 74.8608 171.661 75.4838 173.715C76.1271 175.837 76.3973 178.16 76.097 180.366C75.7911 182.613 74.7215 184.764 73.5588 186.682C72.2631 188.819 70.637 190.857 68.201 191.722C67.599 191.935 66.339 192.252 66.0982 191.374C65.8609 190.509 66.5469 189.426 66.9914 188.747C68.0022 187.203 69.3539 186.01 71.064 185.309C72.667 184.652 74.4443 184.407 76.1691 184.537C79.4654 184.786 82.8135 186.508 83.9615 189.783C84.6342 191.702 84.497 193.834 84.1386 195.804C83.7417 197.982 82.9311 200.079 81.8216 201.991C79.4416 206.092 75.7246 209.172 71.3993 211.052C70.3626 211.502 69.2867 211.877 68.2136 212.231C68.1002 212.272 68.1499 212.553 68.2759 212.535Z" fill="#E0E0E0"/>
<path d="M46.0236 151.759C43.1865 151.56 39.3666 153.761 40.7379 155.373C42.1099 156.984 45.7534 154.377 45.7534 154.377C45.7534 154.377 45.4097 157.634 46.6018 158.001C47.7932 158.369 49.3703 155.268 48.2097 153.283C48.2097 153.283 49.9989 154.076 51.6901 152.83C53.3813 151.583 51.5879 150.411 49.2009 150.62C49.2009 150.62 50.9089 145.037 47.4586 146.092C45.7541 146.614 45.1416 148.639 46.0236 151.759Z" fill="#7E57C2"/>
<path opacity="0.65" d="M46.0236 151.759C43.1865 151.56 39.3666 153.761 40.7379 155.373C42.1099 156.984 45.7534 154.377 45.7534 154.377C45.7534 154.377 45.4097 157.634 46.6018 158.001C47.7932 158.369 49.3703 155.268 48.2097 153.283C48.2097 153.283 49.9989 154.076 51.6901 152.83C53.3813 151.583 51.5879 150.411 49.2009 150.62C49.2009 150.62 50.9089 145.037 47.4586 146.092C45.7541 146.614 45.1416 148.639 46.0236 151.759Z" fill="white"/>
<path d="M48.6283 152.95C48.4764 152.797 48.3091 152.656 48.1383 152.524C47.8926 152.334 47.6371 152.156 47.3872 151.972C47.1485 151.797 46.8972 151.644 46.6375 151.503C46.487 151.421 46.333 151.344 46.1762 151.276C45.934 151.17 45.7247 151.131 45.4587 151.165C45.2116 151.196 44.9925 151.477 45.1773 151.711C45.3978 151.991 45.668 152.045 45.9123 152.171C46.0404 152.237 46.1664 152.307 46.2903 152.38C46.5472 152.53 46.7824 152.706 47.0218 152.882C47.2605 153.058 47.5076 153.222 47.7428 153.402C48.1145 153.685 48.4925 153.969 48.9377 154.127C48.9776 154.141 49.0294 154.134 49.0602 154.104C49.3556 153.82 48.8341 153.156 48.6283 152.95Z" fill="#455A64"/>
<path d="M271.8 74.7552C268.737 78.8691 264.645 101.501 263.098 108.756C255.655 108.541 245.702 108.194 241.932 107.797C237.756 107.358 228.767 106.499 224.367 107.075C213.44 108.506 213.875 115.656 214.129 117.526C214.42 119.674 215.952 120.65 221.799 119.316C223.109 119.017 224.461 118.871 225.804 118.843C226.376 118.832 227.569 118.56 228.016 119.043C228.688 119.77 226.697 120.916 226.192 121.241C225.413 121.744 224.603 122.38 224.438 123.292C224.377 123.63 224.442 124.032 224.731 124.219C224.986 124.383 225.32 124.324 225.616 124.254C228.296 123.62 230.892 122.632 233.315 121.323C234.255 120.815 235.178 120.255 236.195 119.927C237.714 119.436 239.278 119.729 240.81 119.729C244.09 119.729 261.441 121.446 269.154 122.231C274.495 122.775 275.066 117.498 276.905 112.162C279.194 105.526 284.55 70.6854 284.55 70.6854C279.15 69.9147 275.438 69.8685 271.8 74.7552Z" fill="#FFA8A7"/>
<path d="M284.633 70.1534C282.048 69.6802 276.242 68.9557 273.074 72.49C269.905 76.0243 269.159 79.7399 267.765 85.0865C266.371 90.4331 263.924 100.039 263.924 100.039C263.924 100.039 268.002 105.895 280.779 104.236L284.633 70.1534Z" fill="#37474F"/>
<path d="M316.714 255.248L307.731 255.257L305.152 235.757L316.485 235.312L316.714 255.248Z" fill="#FFA8A7"/>
<path d="M286.899 245.514C285.366 248.161 280.463 247.946 276.372 247.009L275.901 227.841L287.913 227.37L286.899 245.514Z" fill="#FFA8A7"/>
<path d="M316.103 132.064C316.428 140.356 315.332 189.407 315.332 189.407C315.627 191.786 318.091 195.937 318.606 204.525C319.354 216.978 316.81 243.618 316.81 243.618C316.81 243.618 311.667 246.306 306.125 244.248C306.125 244.248 300.479 205.723 298.439 193.447C296.659 182.734 294.374 154.007 294.374 154.007L289.943 190.83C289.943 190.83 291.183 196.653 290.948 204.052C290.766 209.774 287.505 237.578 287.505 237.578C287.505 237.578 282.03 239.629 276.013 237.855C276.013 237.855 273.335 194.706 273.029 189.474C272.68 183.509 272.919 130.865 272.919 130.865L316.103 132.064Z" fill="#7E57C2"/>
<path opacity="0.2" d="M294.374 154.007C294.374 154.007 286.529 151.784 281.182 147.008C281.182 147.008 283.687 151.285 290.785 155.079L290.378 187.217L294.374 154.007Z" fill="black"/>
<path d="M297.468 271.512C297.177 271.806 297.345 273.741 297.697 274.25C298.076 274.796 300.192 276.461 303.904 276.582C307.452 276.696 310.592 276.095 312.617 274.695C314.642 273.295 315.591 271.801 315.707 269.778C315.823 267.755 315.523 265.821 316.423 264.232C317.254 262.764 318.604 261.095 318.882 260.307C319.485 258.591 318.744 256.201 318.744 256.201L297.468 271.512Z" fill="#263238"/>
<path d="M306.46 253.539C306.466 254.323 306.356 255.042 306.14 255.798C305.689 257.381 304.967 258.883 304.147 260.316C303.725 261.054 303.277 261.781 302.754 262.455C301.734 263.771 300.446 264.868 299.361 266.134C298.276 267.4 297.371 268.919 297.347 270.562C297.305 273.343 300.353 274.167 302.688 274.489C305.18 274.833 307.818 274.597 310.207 273.816C312.866 272.946 314.724 270.788 315.065 268.088C315.163 267.312 315.085 266.527 315.146 265.748C315.284 263.971 316.136 262.32 317.113 260.808C317.68 259.932 318.3 259.074 318.665 258.101C319.322 256.356 318.666 254.446 318.136 252.753C317.678 251.292 317.166 249.637 316.651 249.797C316.651 250.571 316.682 250.642 316.153 251.183C315.484 251.867 315.492 252.856 314.78 253.465C315.089 252.552 315.096 252.169 315.218 251.472C315.255 251.263 315.183 250.846 315.032 250.693C314.828 250.488 314.491 250.369 314.161 250.271C313.055 249.945 311.914 249.733 310.762 249.637C309.71 249.549 308.503 249.468 307.474 249.742C307.157 249.826 306.853 249.991 306.666 250.252C306.469 250.528 306.44 250.767 306.408 251.212C306.375 251.657 306.455 252.801 306.46 253.539Z" fill="#455A64"/>
<path d="M303.797 260.913C304.8 260.099 307.114 259.997 308.385 260.083C309.977 260.191 311.282 260.696 312.032 261.205C312.365 261.43 312.815 261.371 313.088 261.079C313.417 260.729 313.364 260.174 312.964 259.903C312.169 259.365 310.74 258.62 308.856 258.561C305.733 258.464 304.84 259.034 304.84 259.034C304.84 259.034 303.455 260.005 303.797 260.913Z" fill="#F5F5F5"/>
<path d="M301.532 263.848C302.801 263.029 305.352 263.041 306.623 263.127C308.215 263.234 309.425 263.811 310.175 264.32C310.507 264.546 310.958 264.487 311.231 264.195C311.56 263.844 311.507 263.29 311.107 263.019C310.312 262.481 308.79 261.62 306.907 261.561C303.783 261.464 302.996 262.132 302.996 262.132C302.996 262.132 301.702 262.693 301.532 263.848Z" fill="#F5F5F5"/>
<path d="M309.98 255.532C307.819 255.394 306.915 255.67 306.076 256.014C305.54 256.343 305.212 257.224 305.574 257.43C306.252 257.018 307.494 256.809 309.026 256.818C310.055 256.823 311.364 257.188 312.431 257.611C312.702 257.719 313.024 257.872 313.306 258.014C313.687 258.206 314.154 258.041 314.319 257.655C314.458 257.328 314.33 256.95 314.014 256.776C313.244 256.35 311.726 255.643 309.98 255.532Z" fill="#F5F5F5"/>
<path d="M255.874 257.464C255.552 258.063 255.583 259.217 255.895 259.962C256.209 260.708 259.915 263.036 265.067 262.933C270.22 262.831 273.845 260.929 275.864 259.726C277.884 258.522 279.934 258.377 282.484 258.352C285.034 258.327 288.434 257.218 289.049 256.055C289.663 254.892 289.119 252.812 289.119 252.812L255.874 257.464Z" fill="#263238"/>
<path d="M277.362 242.419C277.23 242.384 277.096 242.349 276.96 242.316C276.739 242.261 276.508 242.205 276.284 242.247C276.03 242.295 275.815 242.463 275.63 242.645C275.049 243.219 274.679 243.967 274.22 244.643C273.06 246.348 270.731 247.695 268.2 248.904C266.48 249.727 264.802 250.348 263.033 251.045C261.228 251.756 258.859 252.13 257.433 252.996C255.352 254.259 254.93 257.66 257.163 259.116C259.088 260.373 264.24 261.881 269.781 260.592C272.798 259.89 276.255 256.865 280.179 256.745C282.673 256.669 287.407 256.193 289.097 254.382C289.728 253.573 289.064 250.882 288.525 248.561C287.936 246.027 288.204 242.233 287.074 242.277L287.004 243.544C286.899 243.924 286.005 244.294 285.73 244.585C285.393 244.941 285.056 245.296 284.719 245.651C284.278 246.116 283.822 246.593 283.238 246.855C282.231 247.305 281.065 247.037 279.998 246.761C279.949 246.748 280.537 244.813 280.596 244.625C280.644 244.472 280.697 244.309 280.655 244.153C280.613 243.997 280.482 243.88 280.354 243.78C279.426 243.062 278.45 242.708 277.362 242.419Z" fill="#455A64"/>
<path d="M270.586 247.662C270.586 247.662 270.988 246.726 272.48 246.521C273.621 246.364 275.579 247.292 276.772 248.374C277.261 248.817 277.157 249.609 276.565 249.9C276.213 250.073 275.795 250.004 275.512 249.732C274.731 248.985 272.966 247.611 270.586 247.662Z" fill="#F5F5F5"/>
<path d="M266.987 249.458C266.987 249.458 267.772 248.351 269.216 248.441C269.216 248.441 272.165 248.667 273.912 250.457C274.358 250.914 274.29 251.652 273.717 251.933C273.376 252.099 272.973 252.032 272.703 251.766C271.914 250.991 270.336 249.367 266.987 249.458Z" fill="#F5F5F5"/>
<path d="M263.033 251.044C263.033 251.044 263.896 250.049 265.34 250.139C265.34 250.139 268.087 250.373 269.834 252.163C270.28 252.621 270.212 253.358 269.639 253.639C269.298 253.806 268.894 253.738 268.624 253.472C267.835 252.698 266.381 250.953 263.033 251.044Z" fill="#F5F5F5"/>
<path d="M299.603 70.3087C302.91 70.6839 306.818 70.8883 309.973 71.3027C314.04 71.8361 317.213 76.0438 318.204 82.5496C319.295 89.7211 314.728 110.272 314.728 110.272L316.191 134.504C310.23 138.895 284.866 141.199 272.22 132.069C272.22 132.069 272.515 90.8236 273.504 84.4935C274.864 75.7841 276.987 70.371 286.813 69.7466L299.603 70.3087Z" fill="#455A64"/>
<path d="M322.19 122.811C321.119 124.603 320.042 126.392 318.936 128.163C318.527 128.819 318.115 129.473 317.686 130.116C317.533 130.346 317.099 130.809 316.88 130.96C316.35 131.328 315.244 131.096 314.602 131.117C311.44 131.221 308.281 131.451 305.138 131.806C304.616 131.865 304.026 131.969 303.745 132.411C303.423 132.916 303.704 133.628 304.191 133.978C304.677 134.328 305.299 134.41 305.894 134.481C306.805 134.59 307.715 134.7 308.626 134.808C309.01 134.854 309.417 134.91 309.717 135.154C310.709 135.961 308.815 136.928 308.245 137.32C307.106 138.104 305.888 138.794 304.613 139.331C298.925 141.73 298.23 143.467 299.277 145.438C300.189 147.153 304.123 153.391 314.116 148.021C318.14 145.858 324.27 139.025 327.058 135.722C331.082 130.955 337.876 120.311 337.876 120.311C341.739 115.004 342.241 112.827 342.326 110.617C342.411 108.406 330.42 91.4522 326.355 85.4994C322.291 79.5466 320.342 72.2953 309.973 71.3013C309.973 71.3013 306.03 83.8194 312.563 91.9184L327.662 112.978C327.662 112.98 323.662 120.351 322.19 122.811Z" fill="#FFA8A7"/>
<path d="M333.141 93.5942C331.206 90.7935 329.183 87.9109 327.227 85.0556C319.007 73.0534 319.694 70.8554 307.838 70.686C306.789 72.2995 306.163 79.2239 307.745 86.1833C309.075 92.0311 314.025 96.1513 314.025 96.1513L319.964 104.196C319.964 104.196 323.597 104.084 327.953 100.89C332.309 97.6962 333.141 93.5942 333.141 93.5942Z" fill="#37474F"/>
<path d="M307.417 38.7623C305.179 35.6326 301.923 36.1716 301.923 36.1716L301.311 51.2006L300.319 56.7523L300.494 62.9284C300.494 62.9284 302.168 62.8451 303.178 60.8886C304.097 59.1106 306.652 50.5111 306.652 50.5111L306.641 50.5223C308.989 43.4656 308.494 40.2687 307.417 38.7623Z" fill="#263238"/>
<path d="M300.605 51.2681C300.899 50.3266 301.188 49.796 302.055 48.872C302.917 47.9529 306.347 46.947 307.911 49.8604C309.504 52.8298 306.84 56.6168 304.811 57.7935C302.209 59.302 300.684 57.2468 300.684 57.2468L300.745 71.083C299.535 73.8662 294.067 76.3778 290.818 75.9649C288.225 75.6352 285.836 73.5946 288.152 70.6266L287.967 66.6842C287.967 66.6842 284.503 67.387 282.788 67.2085C279.934 66.911 278.041 64.7649 277.03 61.7416C275.406 56.8857 274.685 52.9355 275.375 43.1929C276.132 32.5144 288.473 31.7913 295.348 35.6574C302.224 39.5221 300.605 51.2681 300.605 51.2681Z" fill="#FFA8A7"/>
<path d="M271.444 32.1223C271.131 29.7913 271.938 27.2916 274.377 26.4663C276.217 25.8412 278.104 25.8776 279.798 27.3679C280.403 25.725 281.99 24.4888 283.731 24.3061C285.472 24.1234 287.282 25.0019 288.215 26.4831C288.952 25.4457 289.822 24.8206 291.029 24.5266C292.44 24.1836 294.186 24.5427 295.187 25.2812C296.187 26.0197 297.352 27.4141 297.057 29.1529C299.026 28.3654 301.076 29.0185 302.537 30.7601C303.412 31.8045 303.891 33.1562 303.931 34.5135C303.951 35.1743 303.909 35.9807 303.635 36.5946C303.35 37.2344 302.775 37.6523 302.611 38.374C302.457 39.0516 302.144 39.6788 302.237 40.3613C302.397 41.5387 302.657 42.7091 302.812 43.8914C302.961 45.0317 303.094 46.1846 303.1 47.3361C303.103 47.887 302.709 48.2769 302.25 48.6836C301.503 49.3465 301.335 49.6923 300.779 50.8193C300.531 51.3219 300.295 52.5658 299.808 52.9067C298.318 53.9476 298.152 50.5701 298.081 49.9233C298.009 49.2765 297.989 47.5839 298.113 45.437C297.634 45.4062 295.666 45.3747 294.143 43.6114C293.646 43.0353 293.259 42.1589 293.157 41.4169C293.092 40.9395 293.02 40.523 293.041 40.0442C292.072 41.6528 289.806 42.3115 288.199 42.1666C285.494 41.923 284.568 40.7687 284.131 39.9168C283.933 40.6721 283.605 41.6381 283.057 42.1988C282.366 42.9058 281.445 43.3335 280.634 43.61C279.126 44.1245 277.325 43.477 276.213 42.336C275.115 43.9124 272.33 43.2096 271.713 42.7658C270.298 41.7501 269.86 40.5447 269.706 38.8101C269.553 37.0755 270.25 35.112 272.166 34.4309C271.802 33.7365 271.554 32.9399 271.444 32.1223Z" fill="#263238"/>
<path d="M287.967 66.6843C287.967 66.6843 294.226 65.0967 296.379 63.8122C297.819 62.9526 298.97 61.5288 299.284 60.6377C299.284 60.6377 298.963 62.534 297.725 64.2896C296.211 66.4365 288.051 68.3664 288.051 68.3664L287.967 66.6843Z" fill="#F28F8F"/>
<path d="M288.315 50.8078C288.354 51.5862 288.992 52.1854 289.741 52.1455C290.49 52.1063 291.066 51.4441 291.027 50.6657C290.989 49.888 290.35 49.2888 289.601 49.328C288.853 49.3672 288.277 50.0301 288.315 50.8078Z" fill="#263238"/>
<path d="M286.221 60.9331C286.271 61.9348 287.092 62.7069 288.057 62.6558C289.022 62.6054 289.762 61.7521 289.713 60.7504C289.663 59.7487 288.841 58.9773 287.877 59.0277C286.913 59.0781 286.171 59.9314 286.221 60.9331Z" fill="#F28F8F"/>
<path d="M289.444 46.1466L292.327 47.5564C292.701 46.7297 292.359 45.7434 291.562 45.3542C290.766 44.9643 289.818 45.3192 289.444 46.1466Z" fill="#263238"/>
<path d="M276.898 47.3531L279.359 45.2552C278.8 44.5482 277.797 44.4453 277.117 45.0242C276.438 45.6038 276.339 46.6461 276.898 47.3531Z" fill="#263238"/>
<path d="M277.635 50.5348C277.672 51.2873 278.289 51.8669 279.014 51.8291C279.739 51.7913 280.295 51.1501 280.258 50.3976C280.221 49.6451 279.603 49.0655 278.879 49.1033C278.154 49.1404 277.597 49.7816 277.635 50.5348Z" fill="#263238"/>
<path d="M284.131 48.9766L284.089 57.2604L279.703 56.0039L284.131 48.9766Z" fill="#F28F8F"/>
<path d="M273.132 60.5634C273.211 60.5459 273.284 60.499 273.332 60.4262C273.431 60.2771 273.391 60.0748 273.242 59.9754L269.438 57.4407C269.288 57.3413 269.086 57.3819 268.987 57.531C268.888 57.6801 268.927 57.8824 269.076 57.9818L272.881 60.5165C272.958 60.5676 273.048 60.5823 273.132 60.5634Z" fill="#E0E0E0"/>
<path d="M272.724 62.2001C272.842 62.1735 272.941 62.0825 272.971 61.9558C273.011 61.7808 272.902 61.6065 272.727 61.5652L268.274 60.5327C268.101 60.4914 267.924 60.6006 267.884 60.7763C267.843 60.9513 267.952 61.1256 268.127 61.1662L272.581 62.1987C272.629 62.2106 272.678 62.2099 272.724 62.2001Z" fill="#E0E0E0"/>
<path d="M268.591 65.1622C268.605 65.1587 268.619 65.1552 268.633 65.1503L272.925 63.5795C273.094 63.5179 273.181 63.331 273.119 63.1623C273.057 62.9936 272.857 62.9096 272.702 62.9684L268.409 64.5385C268.241 64.6001 268.154 64.787 268.215 64.9557C268.273 65.1118 268.435 65.1972 268.591 65.1622Z" fill="#E0E0E0"/>
<path d="M232.286 98.7399C232.399 98.9667 232.595 99.1501 232.85 99.2418C233.376 99.4315 233.957 99.1585 234.147 98.6335L237.345 90.7585C237.534 90.2314 237.261 89.6518 236.734 89.4621C236.209 89.2724 235.627 89.5454 235.437 90.0704L232.24 97.9454C232.144 98.217 232.168 98.5012 232.286 98.7399Z" fill="#E0E0E0"/>
<path d="M227.032 98.7278C227.2 99.0666 227.551 99.2962 227.954 99.2906C228.514 99.2822 228.96 98.8224 228.952 98.2631L228.851 88.4393C228.845 87.8835 228.383 87.432 227.823 87.4411C227.264 87.4488 226.817 87.9094 226.825 88.4687L226.927 98.2925C226.929 98.4479 226.967 98.5969 227.032 98.7278Z" fill="#E0E0E0"/>
<path d="M218.117 93.2492C218.138 93.2898 218.161 93.3297 218.185 93.3661L223.007 100.368C223.32 100.834 223.95 100.956 224.414 100.644C224.879 100.33 224.984 99.6633 224.689 99.2377L219.866 92.2356C219.554 91.7701 218.924 91.6476 218.459 91.9598C218.034 92.2482 217.896 92.8026 218.117 93.2492Z" fill="#E0E0E0"/>
</svg>
