<svg width="1709" height="1438" viewBox="0 0 1709 1438" fill="none" xmlns="http://www.w3.org/2000/svg">
<path d="M1643.8 1206.6C1643.64 1206.6 1643.48 1206.62 1643.32 1206.62L1644.73 1182.19H1520.44L1526.43 1285.84C1527.55 1305.27 1543.64 1320.45 1563.1 1320.45H1602.08C1621.54 1320.45 1637.62 1305.27 1638.74 1285.84L1640.12 1261.92C1641.33 1262.04 1642.56 1262.11 1643.8 1262.11C1661.95 1262.11 1676.71 1249.66 1676.71 1234.35C1676.71 1219.05 1661.95 1206.6 1643.8 1206.6ZM1643.8 1250.61C1642.78 1250.61 1641.77 1250.53 1640.79 1250.43L1642.65 1218.14C1643.04 1218.13 1643.42 1218.1 1643.8 1218.1C1655.61 1218.1 1665.22 1225.39 1665.22 1234.35C1665.21 1243.32 1655.61 1250.61 1643.8 1250.61Z" fill="#EE6F57"/>
<path d="M1595.17 1172.79C1582.98 1171.21 1571.48 1164.14 1563.64 1154.06C1559.74 1149 1556.62 1143.17 1554.88 1136.83C1554.39 1135.27 1554.1 1133.66 1553.75 1132.06C1553.53 1130.45 1553.21 1128.84 1553.13 1127.21C1552.79 1123.96 1552.92 1120.69 1553.18 1117.46C1553.82 1110.99 1555.59 1104.65 1558.48 1098.82C1559.91 1095.9 1561.61 1093.11 1563.59 1090.52C1565.53 1087.93 1567.85 1085.47 1570.05 1083.47C1572.24 1081.43 1574.35 1079.67 1576.15 1077.9C1577.07 1077.04 1577.92 1076.17 1578.66 1075.28C1579.41 1074.38 1580.05 1073.49 1580.52 1072.65C1581.57 1070.89 1582.2 1068.72 1582.25 1066.67C1582.32 1064.61 1581.85 1062.74 1580.52 1061.19L1583.65 1056.63C1585.34 1057.47 1586.81 1058.83 1587.93 1060.4C1589.02 1061.99 1589.75 1063.76 1590.19 1065.56C1591.04 1069.17 1590.78 1072.84 1589.7 1076.36C1587.22 1083.42 1582.51 1088.03 1579 1092.16C1577.22 1094.24 1575.76 1096.07 1574.45 1098.19C1573.76 1099.19 1573.2 1100.3 1572.57 1101.35C1572.05 1102.46 1571.45 1103.53 1570.99 1104.68C1569 1109.17 1567.78 1114 1567.23 1118.88C1566.19 1128.7 1568.32 1138.51 1573.55 1147.14C1578.82 1155.72 1586.79 1162.91 1596.63 1167.46L1595.17 1172.79Z" fill="#E5ECFF"/>
<path d="M1598.89 1143.7C1603.9 1139.27 1607.94 1134.49 1611.02 1129.25C1614.12 1124.04 1616.24 1118.45 1617.21 1112.76C1618.17 1107.07 1618.02 1101.13 1616.94 1095.2C1615.83 1089.24 1613.74 1083.39 1610.69 1077.4L1614.72 1073.61C1621.18 1077.73 1626.05 1084.3 1628.89 1091.64C1631.76 1098.99 1632.59 1107.26 1631.12 1115.24C1629.66 1123.21 1625.96 1130.62 1620.76 1136.52C1615.54 1142.38 1608.78 1146.88 1601.37 1148.65L1598.89 1143.7Z" fill="#E5ECFF"/>
<path d="M617.764 1345.12C459.042 1314.39 346.935 1221.9 294.896 1078.65C212.118 850.766 300.813 514.84 538.108 441.035C632.085 411.806 747.492 464.148 844.038 463.436C979.643 462.435 1101.59 379.219 1236.3 389.828C1411.67 403.641 1539.87 565.209 1572.75 729.137C1584.04 785.405 1585.35 843.64 1576.31 900.278C1566.49 961.828 1546.5 1022.13 1516.14 1075.46C1489.99 1121.41 1429.52 1182.24 1378.08 1194.49C1378.08 1194.49 617.764 1345.12 617.764 1345.12Z" stroke="#FBC343" stroke-width="3.8197" stroke-miterlimit="10"/>
<path d="M1042.62 1319.68C1199.48 1280.95 1319.34 1163.97 1360.67 1030.13C1426.4 817.237 1311.96 517.701 1068.36 466.676C1018.88 456.311 966.729 458.934 916.529 464.735C834.526 474.21 750.406 486.124 667.767 483.486C587.399 480.92 509.463 457.296 428.469 459.12C160.782 465.148 0.467992 720.781 61.905 954.87C76.423 1010.19 101.055 1063.68 135.546 1110.13C165.264 1150.15 230.528 1201.38 283.046 1209.03C283.051 1209.03 1042.62 1319.68 1042.62 1319.68Z" stroke="#FBC343" stroke-width="3.75" stroke-miterlimit="10"/>
<mask id="mask0_7162_252" style="mask-type:luminance" maskUnits="userSpaceOnUse" x="132" y="355" width="1337" height="998">
<path d="M1436.28 1064.27C1394.21 1186.02 1343.96 1306.24 1169.18 1352.67L413.758 1344.64C243.533 1264.24 150.508 1105.49 135.033 934.219C129.908 877.619 133.258 819.619 145.133 762.669C148.233 747.669 151.933 732.744 156.233 717.944C195.258 583.394 277.858 456.544 400.733 384.994C479.683 339.019 580.883 354.194 664.733 377.794C740.333 399.069 814.183 428.869 892.233 437.844C954.408 444.969 1017.66 438.644 1080.03 441.094C1102.36 441.969 1124.53 443.969 1146.53 448.094C1240.76 465.794 1324.28 523.569 1381.61 600.819C1401.36 627.369 1417.98 656.219 1430.91 686.519C1481.38 805.044 1478.36 942.519 1436.28 1064.27Z" fill="white"/>
</mask>
<g mask="url(#mask0_7162_252)">
<path d="M1436.28 1064.27C1394.21 1186.02 1343.96 1306.24 1169.18 1352.67L413.758 1344.64C243.533 1264.24 150.508 1105.49 135.033 934.219C129.908 877.619 133.258 819.619 145.133 762.669C148.233 747.669 151.933 732.744 156.233 717.944C195.258 583.394 277.858 456.544 400.733 384.994C479.683 339.019 580.883 354.194 664.733 377.794C740.333 399.069 814.183 428.869 892.233 437.844C954.408 444.969 1017.66 438.644 1080.03 441.094C1102.36 441.969 1124.53 443.969 1146.53 448.094C1240.76 465.794 1324.28 523.569 1381.61 600.819C1401.36 627.369 1417.98 656.219 1430.91 686.519C1481.38 805.044 1478.36 942.519 1436.28 1064.27Z" fill="#FFEEC7"/>
<path d="M-0.721985 1248.63C-4.16398 1206.8 19.254 1161.7 60.394 1130.93C97.863 1102.9 144.094 1088.62 188.471 1077.36C435.049 1014.77 695.505 1022.24 947.378 1029.46C1172.47 1035.91 1405.24 1042.58 1628.07 999.424C1659.8 993.281 1693.14 985.808 1721.52 968.203C1752 949.292 1771.3 919.668 1771.88 890.891C1772.98 836.931 1714.52 799.951 1679.58 782.71C1546.89 717.231 1383.62 692.603 1165.78 705.178C1001.84 714.648 837.395 741.047 677.011 783.642C640.969 793.215 604.356 803.798 568.951 814.033C442.19 850.679 311.126 888.567 177.445 888.567C176.772 888.567 176.108 888.567 175.436 888.565C139.148 888.462 92.559 881.114 76.68 846.688C65.475 822.389 74.899 794.708 84.778 775.765C117.798 712.452 180.265 675.553 226.856 655.747C279.194 633.501 336.066 621.407 391.065 609.712C397.595 608.324 404.122 606.936 410.638 605.532C533.513 579.066 656.323 545.958 775.655 507.129C832.287 488.701 861.353 464.741 864.51 433.881C867.31 406.507 847.218 382.536 826.065 370.921C800.72 357.004 770.774 355.198 747.518 355.181C747.411 355.181 747.297 355.181 747.19 355.181C677.005 355.181 607.356 372.404 545.739 405C522.85 417.109 500.763 431.514 479.405 445.444C451.129 463.885 421.889 482.956 390.371 496.98C329.424 524.1 257.27 534.094 175.911 526.674C113.097 520.947 65.216 505.523 29.533 479.523C8.00502 463.837 -9.96598 443.6 -27.344 424.03C-48.463 400.248 -70.302 375.657 -98.362 359.683L-96.507 356.424C-67.908 372.704 -45.861 397.531 -24.541 421.541C-7.29498 440.962 10.54 461.044 31.742 476.492C66.862 502.082 114.131 517.274 176.251 522.939C256.953 530.297 328.487 520.411 388.847 493.555C420.092 479.652 449.203 460.666 477.356 442.304C498.786 428.327 520.944 413.875 543.986 401.685C606.137 368.807 676.4 351.431 747.19 351.431C747.302 351.431 747.409 351.431 747.521 351.431C771.225 351.449 801.78 353.307 827.87 367.635C850.109 379.844 871.215 405.181 868.241 434.262C864.916 466.757 835.011 491.76 776.815 510.696C657.362 549.564 534.427 582.705 411.427 609.199C404.908 610.603 398.379 611.991 391.846 613.38C337.02 625.038 280.329 637.093 228.324 659.199C182.297 678.763 120.61 715.17 88.104 777.499C78.613 795.697 69.519 822.201 80.086 845.116C95.136 877.75 140.251 884.716 175.446 884.816C176.108 884.818 176.783 884.818 177.444 884.818C310.603 884.818 441.393 847.008 567.91 810.433C603.335 800.191 639.967 789.603 676.05 780.02C836.676 737.359 1001.37 710.921 1165.56 701.436C1384.08 688.81 1547.94 713.57 1681.24 779.346C1716.98 796.983 1776.77 834.932 1775.63 890.97C1775.02 921.002 1755.04 951.817 1723.49 971.392C1694.58 989.331 1660.85 996.895 1628.79 1003.11C1405.55 1046.34 1172.57 1039.67 947.271 1033.2C695.657 1025.99 435.467 1018.53 189.394 1080.99C145.393 1092.16 99.583 1106.3 62.64 1133.93C22.525 1163.94 -0.320978 1207.77 3.01602 1248.32L-0.721985 1248.63Z" fill="white"/>
</g>
<path d="M1089.33 1250.09C1140.33 1263.17 1210.4 1274.89 1188.07 1318.5L1061.01 1318.37L1089.33 1250.09Z" fill="#E28B6D"/>
<path d="M561.777 1352.68H438.871C396.902 1352.68 362.879 1318.65 362.879 1276.68V1025.66C362.879 983.693 396.902 949.67 438.871 949.67H561.777C603.746 949.67 637.769 983.693 637.769 1025.66V1276.68C637.769 1318.65 603.746 1352.68 561.777 1352.68Z" fill="#102048"/>
<path opacity="0.8" d="M424.09 986.828C419.473 988.034 416.358 992.249 414.275 996.552C412.142 1000.93 410.823 1005.73 409.757 1010.54C407.668 1020.2 406.683 1030.12 406.138 1040.05C405.13 1059.92 405.54 1079.89 406.755 1099.79C407.888 1119.71 409.714 1139.59 412.119 1159.4C413.279 1169.32 414.616 1179.21 416.145 1189.07C417.61 1198.94 419.254 1208.79 421.262 1218.57L419.832 1218.89C417.441 1209.16 415.394 1199.35 413.559 1189.5C411.809 1179.64 410.251 1169.74 408.869 1159.82C406.188 1139.97 404.218 1120.01 403.045 1100C402.025 1079.99 401.522 1059.9 402.977 1039.84C403.744 1029.83 404.889 1019.8 407.289 1009.96C408.56 1005.07 410.081 1000.19 412.492 995.644C413.7 993.385 415.127 991.198 416.974 989.333C418.804 987.475 421.138 985.972 423.76 985.398L424.09 986.828Z" fill="white"/>
<path d="M471.112 1013.39C471.112 1013.39 478.89 1171.12 527.852 1344.63H661.638L471.112 1013.39Z" fill="#7E57C2"/>
<path d="M532.485 932.858C498.867 914.57 489.646 869.254 514.197 839.828C516.561 836.995 519.185 834.13 522.089 831.237C559.598 793.872 536.228 756.492 530.985 670.529C525.746 584.649 621.419 561.198 621.604 561.153C626.116 560.049 634.848 547.174 638.538 543.973C681.72 506.519 743.663 509.288 790.996 537.791C813.516 551.352 836.18 572.236 848.368 596.193C867.699 634.19 871.196 684.253 903.751 713.843C950.156 756.022 1001.63 791.83 999.556 859.863C998.817 884.028 992.769 909.565 978.041 928.935C965.205 945.817 945.653 957.142 928.007 968.064C899.325 985.814 869.043 1001.51 837.019 1012.05C806.014 1022.26 774.664 1031.44 743.227 1040.19C740.256 1041.01 737.283 1041.84 734.308 1042.65L532.485 932.858Z" fill="#6F3428"/>
<path d="M751.262 895.717C863.627 857.137 924.659 982.906 1008.58 1228.3L1089.33 1250.09L1079.94 1337.48L1050.48 1343.62L809.923 1344.63L751.262 895.717Z" fill="#7E57C2"/>
<path d="M1708.64 1315.67H0V1374.56H1708.64V1315.67Z" fill="#E5ECFF"/>
<path d="M592.964 877.434L844.248 940.325L949.823 1256.68L597.134 1267.42L573.803 1033.52L592.964 877.434Z" fill="#7E57C2"/>
<path opacity="0.3" d="M601.825 1013.39C663.563 1075.54 649.91 1166.62 702.652 1175.65C737.567 1181.64 836.796 1195.82 884.135 1215.54C893.708 1219.53 920.139 1239.19 916.044 1256.62C913.404 1267.86 878.184 1258.86 878.184 1258.86L614.504 1232.39L558.663 1103.2L601.825 1013.39Z" fill="#7E57C2"/>
<path d="M818.721 1241.21C820.516 1238.38 858.32 1230.89 862.596 1231.47C876.656 1233.39 884.335 1244.41 887.724 1252.83L831.784 1282.34L818.721 1241.21Z" fill="#102048"/>
<path d="M860.574 1013.11L867.065 1027.9C869.198 1032.84 871.195 1037.84 873.268 1042.81C877.252 1052.82 881.097 1062.88 884.704 1073.03C892.012 1093.3 898.481 1113.85 904.55 1134.52C910.512 1155.22 915.874 1176.09 920.613 1197.1C922.898 1207.63 925.109 1218.17 927.07 1228.76C928.995 1239.36 930.638 1250.01 932.038 1260.69L930.649 1260.89C928.89 1250.29 926.873 1239.74 924.608 1229.24C922.448 1218.72 920.039 1208.26 917.558 1197.81C912.582 1176.91 907.109 1156.13 901.132 1135.5C895.263 1114.84 888.735 1094.37 881.843 1074.03C878.44 1063.84 874.744 1053.76 871.007 1043.69C869.099 1038.67 867.264 1033.62 865.294 1028.62L859.287 1013.67L860.574 1013.11Z" fill="#102048"/>
<path d="M1061.43 1294.59C1061.43 1294.59 1050.86 1307.09 1017.48 1294.92C1001.76 1296.74 972.508 1295.34 916.883 1286.27C916.883 1286.27 937.083 1300.39 982.758 1302.82C982.758 1302.82 980.808 1316.27 956.733 1315.67C927.758 1314.94 924.408 1313.19 898.008 1314.29C892.608 1314.52 880.858 1314.27 868.133 1313.87C845.933 1313.14 820.708 1311.97 820.708 1311.97L798.708 1272.64L842.608 1251.62C856.083 1246.34 862.808 1244.52 869.358 1243.59C897.708 1239.57 915.608 1236.37 935.933 1239.87C958.509 1243.74 1027.48 1266.62 1061.43 1294.59Z" fill="#F9B384"/>
<path d="M869.358 1313.19L868.133 1313.87C845.933 1313.14 820.708 1311.97 820.708 1311.97L798.708 1272.64L842.608 1251.62C856.083 1246.34 862.808 1244.52 869.358 1243.59C853.222 1250.17 840.008 1267.42 869.358 1313.19Z" fill="#E28B6D"/>
<path d="M696.541 895.289C639.426 883.587 500.234 873.849 461.34 945.909C429.32 1005.23 509.582 1203.9 544.352 1273.77C558.663 1302.53 600.217 1316.76 616.374 1316.87L845.861 1315.55C830.423 1311.97 810.635 1229.13 862.597 1231.47L672.537 1204.99C665.132 1203.96 658.514 1199.82 654.392 1193.59C651.646 1189.43 648.451 1184.18 646.823 1178.21L592.878 980.611L696.541 895.289Z" fill="#7E57C2"/>
<path d="M1204.32 1316.87L980.418 1316.73V1295.61H1205.62L1204.32 1316.87Z" fill="white"/>
<path d="M1393.49 1316.87L1123.4 1316.79L1221.92 1028.71L1492.01 1028.8L1393.49 1316.87Z" fill="#102048"/>
<path d="M1329.46 1188.17C1321.18 1201.39 1305.71 1206.82 1293.91 1201.02C1293.21 1200.69 1292.53 1200.32 1291.86 1199.89C1279.83 1192.39 1277.21 1174.94 1285.96 1160.97C1294.71 1146.97 1311.53 1141.72 1323.56 1149.24C1327.18 1151.52 1329.93 1154.67 1331.81 1158.37C1336.11 1166.94 1335.56 1178.42 1329.46 1188.17Z" fill="white"/>
<path d="M1329.46 1188.17C1321.18 1201.39 1300.84 1211 1286.58 1195.28C1317.51 1198.09 1327.92 1177.83 1327.34 1152.22C1337.93 1163.92 1335.56 1178.42 1329.46 1188.17Z" fill="#7E57C2"/>
<path d="M936.053 1239.14C947.536 1240.84 958.645 1244.05 969.658 1247.46C980.667 1250.91 991.487 1254.95 1002.13 1259.41C1012.81 1263.78 1023.24 1268.8 1033.36 1274.37C1043.43 1280.03 1053.24 1286.33 1061.9 1294.03L1060.97 1295.17C1056.38 1291.76 1051.65 1288.56 1046.75 1285.63C1041.89 1282.64 1036.88 1279.88 1031.81 1277.26C1021.67 1271.98 1011.3 1267.13 1000.69 1262.84C990.216 1258.22 979.446 1254.3 968.658 1250.47C963.257 1248.56 957.816 1246.77 952.342 1245.1C946.881 1243.39 941.367 1241.83 935.804 1240.59L936.053 1239.14Z" fill="#6F3428"/>
<path d="M931.598 1292.45L943.68 1295.91C947.705 1296.98 951.754 1297.91 955.819 1298.74C959.884 1299.58 963.983 1300.22 968.096 1300.8C972.216 1301.34 976.352 1301.76 980.502 1302.17L981.88 1302.31L981.992 1303.5C982.144 1305.12 981.973 1306.5 981.541 1307.96C981.097 1309.38 980.287 1310.78 979.119 1311.77C977.946 1312.75 976.569 1313.38 975.189 1313.68C974.503 1313.85 973.809 1313.88 973.128 1313.97L971.102 1313.92V1312.46L972.915 1312.18C973.485 1312.01 974.082 1311.92 974.616 1311.7C975.71 1311.32 976.637 1310.69 977.344 1309.93C978.055 1309.17 978.532 1308.23 978.764 1307.19C978.995 1306.17 979.013 1304.94 978.846 1304.02L980.335 1305.35C971.853 1305.2 963.356 1304.19 955.057 1302.26C950.906 1301.31 946.823 1300.08 942.822 1298.66C938.804 1297.28 934.918 1295.59 931.09 1293.82L931.598 1292.45Z" fill="#6F3428"/>
<path d="M921.368 1263.34C931.081 1264.58 940.849 1265.54 950.618 1266.53C960.378 1267.61 970.163 1268.56 979.928 1270.1C989.648 1271.66 999.311 1273.42 1008.98 1275.17C1018.64 1276.94 1028.3 1278.72 1037.93 1280.66L1040.21 1281.13L1039.24 1283.24C1038.6 1284.62 1037.99 1286.71 1036.75 1288.43C1036.23 1289.37 1035.38 1290.06 1034.68 1290.85C1033.84 1291.46 1033.03 1292.15 1032.15 1292.64C1028.6 1294.71 1024.81 1295.41 1021.11 1296.14C1013.65 1297.35 1006.23 1297.3 998.857 1297.06C995.169 1296.92 991.486 1296.76 987.822 1296.43C984.151 1296.17 980.482 1295.9 976.836 1295.43C969.524 1294.67 962.254 1293.64 954.991 1292.58L955.174 1291.12C962.476 1291.72 969.752 1292.54 977.054 1292.97C980.701 1293.25 984.345 1293.48 987.992 1293.64C991.638 1293.87 995.281 1293.93 998.922 1293.97C1006.19 1294.01 1013.5 1293.88 1020.53 1292.71C1023.97 1292.02 1027.52 1291.27 1030.33 1289.56C1031.05 1289.16 1031.62 1288.63 1032.28 1288.18C1032.76 1287.58 1033.39 1287.11 1033.75 1286.42C1034.66 1285.14 1035.08 1283.64 1035.92 1281.68L1037.23 1284.26C1017.95 1280.63 998.689 1276.74 979.381 1273.39C969.782 1271.64 960.034 1270.47 950.305 1269.16C940.58 1267.81 930.827 1266.57 921.137 1264.79L921.368 1263.34Z" fill="#6F3428"/>
<path d="M0 1315.67H1708.64" stroke="#102048" stroke-width="5" stroke-miterlimit="10"/>
<path d="M668.439 970.156C676.735 975.805 685.978 979.924 695.635 982.197C705.286 984.424 715.345 985.015 725.071 983.327C734.798 981.783 744.182 978.029 752.073 972.132C760.031 966.319 766.343 958.359 770.787 949.38L772.133 949.96C771.093 952.295 770.021 954.632 768.92 956.964C767.668 959.207 766.194 961.336 764.819 963.533C763.296 965.619 761.482 967.488 759.816 969.481C758.024 971.353 755.979 972.976 754.059 974.737C745.875 981.203 735.929 985.333 725.674 986.993C715.401 988.572 704.819 988.021 694.853 985.266C684.883 982.558 675.481 977.825 667.557 971.328L668.439 970.156Z" fill="#102048"/>
<path d="M602.5 1013.2L615.033 1055.79L627.365 1098.43L639.567 1141.11L645.633 1162.46L648.666 1173.14C649.71 1176.7 650.563 1180.34 651.969 1183.44C654.72 1189.89 660.283 1194.67 666.574 1197.95C672.941 1201.21 680.003 1203.23 687.131 1204.8C694.298 1206.34 701.549 1207.39 708.906 1208.33L730.9 1211.31L774.871 1217.39L818.812 1223.72L818.629 1225.11L774.541 1219.88L730.483 1214.42L708.463 1211.62C701.142 1210.71 693.727 1209.68 686.416 1208.15C679.115 1206.57 671.8 1204.53 664.957 1201.08C658.217 1197.63 651.794 1192.25 648.728 1184.9C648.274 1184.03 647.959 1183.1 647.658 1182.18C647.353 1181.26 647.005 1180.31 646.783 1179.43L645.289 1174.09L642.302 1163.4L636.327 1142.02L624.448 1099.25L612.699 1056.44L601.15 1013.58L602.5 1013.2Z" fill="#102048"/>
<path d="M745.226 805.938L756.479 902.816C759.828 931.651 729.436 955.817 698.632 947.823C681.019 943.25 662.666 931.061 643.673 912.739C639.766 908.975 637.394 904.102 636.862 898.907L624.867 782.15L745.226 805.938Z" fill="#F9B384"/>
<path d="M746.757 819.116L752.884 871.866C727.992 875.769 692.902 861.776 657.297 814.521L746.757 819.116Z" fill="#3C1C16"/>
<path d="M808.151 736.194C806.715 753.76 803.939 772.116 799.009 788.604C790.681 816.317 776.154 838.669 751.265 842.81C677.986 854.991 624.881 782.143 624.881 782.143L616.361 683.017L660.587 606.507L759.617 603.635L807.912 660.76C807.912 660.76 811.406 696.395 808.151 736.194Z" fill="#F9B384"/>
<path d="M613.988 720.68C653.324 717.746 662.382 684.502 665.07 641.411C665.07 641.411 771.616 615.021 809.443 690.763L838.127 693.872L751.262 578.556L616.259 594.661L589.847 682.298L613.988 720.68Z" fill="#6F3428"/>
<path d="M634.798 707.763C630.167 702.661 623.258 700.067 616.418 700.896C590.287 704.06 585.747 738.665 591.722 753.389C600.665 775.428 624.875 782.138 624.875 782.138L645.677 760.136C647.342 737.225 644.738 718.713 634.798 707.763Z" fill="#F9B384"/>
<path opacity="0.15" d="M635.229 808.718C649.588 849.554 693.767 964.864 621.611 961.966C586.833 960.569 556.275 893.112 506.698 905.847C512.167 903.203 518.321 900.806 525.236 898.685L635.229 808.718Z" fill="#3C1C16"/>
<path d="M624.875 782.139C638.793 808.577 677.735 939.374 611.405 931.82C579.436 928.179 571.586 889.671 525.235 898.686L624.875 782.139Z" fill="#6F3428"/>
<path d="M627.153 731.726C627.253 728.658 626.287 725.84 624.769 723.461C623.219 721.101 621.068 719.145 618.628 718.058C616.197 716.956 613.553 716.751 611.057 717.651C608.532 718.547 606.28 720.533 604.07 722.834L602.462 721.878C603.724 718.731 605.894 715.603 609.346 713.812C610.211 713.382 611.084 712.938 612.066 712.796C613.025 712.565 613.994 712.366 614.983 712.442L616.46 712.49L617.888 712.793C618.863 712.952 619.75 713.318 620.618 713.73C624.083 715.36 626.807 718.181 628.364 721.519C629.961 724.824 630.281 728.798 628.985 732.12L627.153 731.726Z" fill="#3C1C16"/>
<path d="M767.353 716.956C767.589 723.693 771.514 729.022 776.12 728.861C780.726 728.7 784.268 723.108 784.032 716.371C783.796 709.634 779.871 704.304 775.265 704.465C770.659 704.626 767.117 710.219 767.353 716.956Z" fill="#3C1C16"/>
<path d="M694.7 719.501C694.936 726.238 698.861 731.568 703.467 731.407C708.073 731.246 711.615 725.654 711.379 718.917C711.143 712.18 707.218 706.85 702.612 707.011C698.006 707.172 694.464 712.764 694.7 719.501Z" fill="#3C1C16"/>
<path d="M766.432 785.541C763.263 789.535 759.435 793.273 754.456 795.741C749.44 798.16 743.29 798.473 738.01 796.913C732.678 795.392 728.132 792.504 724.063 789.297C719.941 786.115 716.426 782.348 713.23 778.369L714.743 776.806C718.891 779.673 722.782 782.741 726.905 785.32C730.98 787.926 735.175 790.329 739.543 791.591C743.906 792.889 748.326 792.82 752.612 791.364C756.874 789.778 760.886 786.951 764.912 783.984L766.432 785.541Z" fill="#3C1C16"/>
<path d="M791.95 696.147C788.703 693.904 785.684 691.78 782.606 690.411C779.512 689.088 776.549 688.394 773.485 688.746C770.428 689.034 767.282 690.115 764.036 691.529C760.772 692.95 757.575 694.859 753.903 696.484L752.903 695.434C754.899 691.909 757.522 688.763 760.864 686.252C764.187 683.765 768.307 681.838 772.922 681.488C777.536 681.043 782.298 682.705 785.692 685.389C789.158 688.046 791.6 691.486 793.09 695.25L791.95 696.147Z" fill="#3C1C16"/>
<path d="M719.159 698.697C715.666 696.214 712.223 694.313 708.662 693.182C705.096 692.096 701.503 691.671 697.887 692.088C694.28 692.483 690.672 693.506 687.055 694.995C683.432 696.495 679.878 698.438 675.924 700.325L674.923 699.275C677.178 695.442 680.295 692.129 684.065 689.518C687.832 686.918 692.391 685.171 697.198 684.738C701.992 684.267 707.015 685.325 711.124 687.74C715.259 690.098 718.546 693.669 720.299 697.8L719.159 698.697Z" fill="#3C1C16"/>
<path opacity="0.5" d="M648.796 766.096C649.311 780.802 661.651 792.306 676.357 791.791C691.063 791.276 702.567 778.936 702.052 764.23C701.537 749.524 689.197 738.02 674.491 738.535C659.785 739.05 648.281 751.39 648.796 766.096Z" fill="#FC8879"/>
<path opacity="0.5" d="M808.151 736.194C806.715 753.76 803.939 772.116 799.009 788.604C787.761 785.804 779.265 775.801 778.835 763.667C778.309 748.949 789.82 736.624 804.514 736.098C805.734 736.05 806.954 736.098 808.151 736.194Z" fill="#FC8879"/>
<path opacity="0.5" d="M737.282 711.691C737.401 710.433 739.139 710.275 739.51 711.483C745.468 730.917 764.819 745.126 761.724 750.83C759.544 754.847 751.357 759.395 745.618 762.202C742.588 763.684 738.958 761.891 738.319 758.564C735.548 744.136 735.709 728.261 737.282 711.691Z" fill="#FC8879"/>
<path d="M741.426 709.721C742.759 715.414 745.358 720.585 748.51 725.439C751.679 730.305 755.39 734.82 759.143 739.575C760.091 740.766 761.002 742.003 761.901 743.319C762.788 744.655 763.691 746.01 764.383 747.887C764.705 748.817 765.024 749.978 764.733 751.498C764.314 753.217 763.598 753.797 763.033 754.599C761.794 755.987 760.491 757.007 759.15 757.916C753.814 761.48 748.144 763.671 742.288 765.486L741.456 763.476C744.013 761.958 746.634 760.524 749.104 758.906C751.598 757.353 754.076 755.749 756.238 753.991C757.297 753.102 758.315 752.191 759.026 751.291C759.316 750.885 759.65 750.288 759.504 750.513C759.515 750.546 759.46 750.183 759.272 749.719C758.493 747.728 756.488 745.276 754.761 742.965C751.138 738.259 747.335 733.357 744.419 727.853C741.445 722.418 739.376 716.236 739.265 709.974L741.426 709.721Z" fill="#3C1C16"/>
<path d="M601.594 789.397C599.908 793.113 599.356 797.232 599.606 801.29C599.884 805.362 600.955 809.373 602.464 813.193C605.686 820.787 609.98 828.217 613.75 835.879C617.599 843.512 620.968 851.639 622.512 860.361C623.248 864.719 623.487 869.189 623.148 873.643C622.848 875.856 622.637 878.059 622.053 880.308C621.418 882.507 620.693 884.7 619.588 886.73C617.516 890.831 614.361 894.497 610.341 897.001C606.355 899.573 601.407 900.666 596.701 900.198C591.932 899.601 587.934 897.869 583.94 896.273C579.971 894.619 576.091 892.888 572.234 891.156C564.52 887.755 556.72 884.457 548.627 882.948C544.607 882.197 540.483 881.957 536.646 882.958C534.752 883.498 532.969 884.354 531.387 885.527C529.799 886.704 528.513 888.262 527.367 889.934L525.751 888.991C526.864 887.074 528.18 885.214 529.92 883.718C531.674 882.257 533.713 881.138 535.873 880.401C540.24 879.013 544.816 879.056 549.156 879.645C557.862 880.981 565.954 884.133 573.867 887.307L585.61 892.181C589.484 893.708 593.447 895.266 597.154 895.662C600.905 895.969 604.678 895.109 607.834 893.029C611.012 891.011 613.575 887.962 615.382 884.538C616.337 882.841 616.961 880.974 617.529 879.109C618.037 877.243 618.253 875.209 618.551 873.217C618.892 869.195 618.721 865.132 618.085 861.105C616.742 853.04 613.602 845.266 610.102 837.619C606.621 829.919 602.54 822.504 599.424 814.319C598.017 810.17 597.077 805.823 596.993 801.393C596.907 796.978 597.799 792.464 599.922 788.553L601.594 789.397Z" fill="#3C1C16"/>
<path d="M602.937 566.693C610.112 563.456 617.632 561.135 625.205 559.148C632.777 557.124 640.472 555.626 648.211 554.414C655.958 553.253 663.767 552.431 671.622 552.202C675.549 552.103 679.484 552.116 683.419 552.31C687.348 552.567 691.289 553.011 695.156 553.822L694.893 555.674C691.042 555.555 687.223 555.424 683.376 555.654C679.539 555.74 675.698 556.002 671.867 556.375C664.203 557.072 656.549 557.999 648.918 559.124C641.285 560.241 633.692 561.626 626.112 563.086C622.322 563.816 618.555 564.66 614.805 565.56C611.025 566.373 607.327 567.437 603.592 568.445L602.937 566.693Z" fill="#3C1C16"/>
<path d="M664.646 640.576C667.842 638.883 671.216 637.866 674.609 637.035C678.009 636.246 681.434 635.557 684.884 635.101C691.784 634.162 698.741 633.783 705.697 633.787C719.614 633.783 733.533 635.732 747.023 639.379C760.464 643.144 773.478 649.061 784.656 657.627C790.2 661.939 795.335 666.821 799.649 672.363C803.913 677.933 807.543 683.963 810.29 690.36L808.6 691.163C802.101 679.215 793.186 668.709 782.157 660.978C776.683 657.086 770.878 653.644 764.754 650.827C758.638 647.988 752.224 645.825 745.738 643.943C732.744 640.17 719.19 638.37 705.619 637.827C698.828 637.556 692.014 637.722 685.249 638.321C678.526 638.92 671.626 639.79 665.497 642.243L664.646 640.576Z" fill="#3C1C16"/>
<path d="M193.786 1013.63L219.49 1021.96C221.706 1022.68 223.234 1024.65 223.385 1026.97C223.537 1029.29 222.274 1031.44 220.169 1032.44L192.097 1045.75L192.145 1046.14L231.413 1053.96C232.883 1054.26 233.846 1055.69 233.552 1057.16C233.259 1058.64 231.825 1059.6 230.35 1059.3L191.081 1051.48C188.652 1050.99 186.884 1049.1 186.578 1046.63C186.273 1044.17 187.522 1041.9 189.763 1040.83L217.833 1027.52L217.808 1027.15L192.104 1018.81C190.673 1018.35 189.889 1016.82 190.353 1015.38C190.82 1013.95 192.355 1013.17 193.786 1013.63Z" fill="#3C1C16"/>
<path d="M127.416 978.222L150.243 985.621C152.211 986.259 153.568 988.005 153.702 990.069C153.837 992.131 152.715 994.039 150.846 994.928L125.915 1006.75L125.958 1007.09L160.832 1014.04C162.138 1014.3 162.992 1015.57 162.732 1016.88C162.472 1018.19 161.198 1019.04 159.888 1018.78L125.014 1011.83C122.856 1011.4 121.286 1009.72 121.015 1007.53C120.744 1005.34 121.853 1003.32 123.844 1002.38L148.773 990.558L148.751 990.223L125.924 982.824C124.653 982.412 123.957 981.049 124.369 979.778C124.782 978.506 126.146 977.811 127.416 978.222Z" fill="#3C1C16"/>
<path d="M265.194 1067.88L283.293 1073.75C284.853 1074.26 285.929 1075.64 286.036 1077.28C286.143 1078.91 285.254 1080.43 283.772 1081.13L264.005 1090.5L264.039 1090.77L291.689 1096.28C292.724 1096.49 293.402 1097.5 293.195 1098.54C292.989 1099.57 291.979 1100.25 290.94 1100.04L263.29 1094.53C261.579 1094.19 260.334 1092.86 260.119 1091.12C259.904 1089.39 260.784 1087.79 262.362 1087.04L282.128 1077.66L282.111 1077.4L264.012 1071.53C263.005 1071.21 262.452 1070.13 262.779 1069.12C263.105 1068.11 264.186 1067.56 265.194 1067.88Z" fill="#3C1C16"/>
<path d="M1396.54 925.88H1316.21C1303.07 925.88 1292.31 915.129 1292.31 901.989V829.658C1292.31 816.518 1303.07 805.767 1316.21 805.767H1396.54C1409.68 805.767 1420.43 816.518 1420.43 829.658V901.989C1420.43 915.128 1409.68 925.88 1396.54 925.88Z" fill="white" stroke="#7E57C2" stroke-width="3.75" stroke-miterlimit="10"/>
<path d="M1356.37 949.615L1333.09 925.88H1379.66L1356.37 949.615Z" fill="#7E57C2"/>
<path d="M1354.33 899.857C1353.09 899.857 1351.9 899.313 1351.09 898.358L1327.8 870.978C1326.28 869.188 1326.5 866.503 1328.28 864.982C1330.08 863.459 1332.76 863.681 1334.28 865.465L1353.59 888.165L1383.65 833.98C1384.8 831.924 1387.39 831.187 1389.44 832.322C1391.49 833.462 1392.24 836.052 1391.1 838.106L1358.05 897.664C1357.37 898.885 1356.14 899.695 1354.75 899.834C1354.61 899.849 1354.47 899.857 1354.33 899.857Z" fill="#7E57C2"/>
<path d="M168.222 1188.55C132.549 1197 92.983 1208.71 76.063 1244.68C60.08 1278.65 76.715 1311.64 108.825 1327.71C130.552 1338.58 213.348 1356.9 178.968 1397.08C156.753 1423.04 118.182 1415.01 92.816 1399.68C79.601 1391.69 67.558 1412.38 80.737 1420.34C109.581 1437.77 142.784 1444.16 174.157 1429.75C208.208 1414.12 221.608 1374.03 195.63 1344.7C182.309 1329.66 163.494 1322.59 145.001 1316.23C127.513 1310.21 104.612 1303.49 96.121 1285.05C88.13 1267.69 98.616 1247.86 111.929 1236.44C129.155 1221.66 153.115 1216.71 174.585 1211.63C189.564 1208.08 183.222 1185 168.222 1188.55Z" fill="#EE6F57"/>
<path d="M496.103 1232.32C536.657 1234.68 539.568 1181.86 539.568 1181.86C539.568 1181.86 511.825 1167.78 485.828 1185.25L496.103 1232.32Z" fill="#EE6F57"/>
<path d="M498.394 1216.32C514.545 1216.06 522.49 1195.76 522.49 1195.76C522.49 1195.76 510.585 1188.48 495.593 1195.93L498.394 1216.32Z" fill="#3C1C16"/>
<path d="M381.567 1183.43C353.447 1154.12 391.738 1117.62 391.738 1117.62C391.738 1117.62 420.456 1129.59 424.046 1160.7L381.567 1183.43Z" fill="#EE6F57"/>
<path d="M391.566 1171.17C381.753 1159.29 391.566 1140.95 391.566 1140.95C391.566 1140.95 404.22 1145.08 408.093 1160.58L391.566 1171.17Z" fill="#3C1C16"/>
<path d="M439.608 1313.12C438.233 1316.32 435.233 1318.49 431.783 1319.02C404.358 1323.24 397.658 1315.67 397.658 1315.67C397.658 1315.67 375.833 1327.82 324.533 1313.37C323.258 1315.74 320.683 1317.67 317.733 1318.62C309.883 1321.19 279.408 1318.54 259.558 1316.47C247.558 1315.19 212.408 1318.02 212.408 1318.02C180.383 1318.02 144.008 1309.47 129.933 1277.34C112.108 1236.69 130.858 1187.97 161.083 1158.87C193.333 1127.77 236.358 1124.97 275.483 1145.34C370.383 1194.79 377.558 1178.67 401.908 1158.17L418.333 1282.79C423.708 1284.67 428.433 1287.24 431.833 1290.82C434.158 1293.27 435.933 1295.54 437.233 1297.67C441.483 1304.52 441.083 1309.67 439.608 1313.12Z" fill="#EE6F57"/>
<path opacity="0.3" d="M374.309 1183.43C336.258 1205.79 335.008 1276.63 408.467 1283.54L416.884 1251.42L374.309 1183.43Z" fill="#3C1C16"/>
<path d="M506.083 1236.09C498.358 1263.24 485.608 1278.79 472.533 1287.44C460.358 1295.57 447.958 1297.69 439.008 1297.69C430.958 1297.69 422.958 1296.42 415.308 1293.99C386.208 1284.84 362.433 1259.34 362.433 1225.84C362.433 1183.54 393.158 1151.12 431.833 1151.12C476.108 1151.12 519.833 1187.67 506.083 1236.09Z" fill="#EE6F57"/>
<path opacity="0.3" d="M472.533 1287.44C460.358 1295.57 447.958 1297.69 439.008 1297.69C438.408 1297.69 437.833 1297.69 437.233 1297.67C435.933 1295.54 434.158 1293.27 431.833 1290.82C428.433 1287.24 423.708 1284.67 418.333 1282.79C430.208 1280.37 437.083 1283.54 437.083 1283.54C437.083 1283.54 458.958 1272.67 472.483 1287.39C472.508 1287.42 472.508 1287.42 472.533 1287.44Z" fill="#3C1C16"/>
<path d="M431.24 1299.55C427.39 1305.1 428.077 1312.81 433.439 1316.91C434.683 1317.86 436 1318.5 437.302 1318.5H475.443C477.267 1318.5 478.239 1316.55 478.732 1314.01C480.216 1306.38 477.014 1298.63 471.063 1293.63C458.759 1283.28 442.365 1283.53 431.24 1299.55Z" fill="#EE6F57"/>
<path d="M362.422 1279.06C370.149 1278.72 377.856 1279.03 385.553 1279.73C393.251 1280.41 400.908 1281.68 408.467 1283.54C412.244 1284.48 415.967 1285.69 419.606 1287.16C423.23 1288.66 426.826 1290.35 430.097 1292.65C433.35 1294.94 436.343 1297.83 438.355 1301.41C440.329 1305.01 440.989 1309.28 440.299 1313.19L438.904 1313.04C439.044 1309.33 438.211 1305.67 436.193 1302.68C434.264 1299.65 431.463 1297.2 428.347 1295.25C422.092 1291.33 414.885 1288.85 407.578 1286.99C400.279 1285 392.746 1283.82 385.208 1282.74C377.659 1281.72 370.037 1280.98 362.421 1280.46V1279.06H362.422Z" fill="#3C1C16"/>
<path d="M235.119 1203.76C242.749 1204.99 250.344 1207.67 256.698 1212.5C259.782 1214.97 262.624 1217.91 264.588 1221.42C266.601 1224.88 268.046 1228.67 268.841 1232.57C269.594 1236.48 269.886 1240.45 269.746 1244.39C269.559 1248.33 269.031 1252.23 268.283 1256.07C266.701 1263.73 264.25 1271.15 261.211 1278.31C259.707 1281.89 258.01 1285.39 256.157 1288.82L255.446 1290.11L255.073 1290.76L255.048 1290.8C255.215 1291.36 253.448 1286.07 254.218 1288.31L254.3 1288.35L254.465 1288.41L254.794 1288.55L257.437 1289.58C259.204 1290.26 260.994 1290.88 262.789 1291.48C269.984 1293.86 277.4 1295.54 284.896 1296.72C292.362 1297.78 300.199 1298.62 307.707 1300.51C311.473 1301.46 315.22 1302.59 318.799 1304.28C320.589 1305.11 322.332 1306.16 323.853 1307.59C324.575 1308.33 325.306 1309.21 325.579 1310.35C325.981 1311.47 325.624 1312.71 325.154 1313.69L323.918 1313.02C324.669 1311.52 323.978 1309.98 322.643 1308.85C321.322 1307.72 319.698 1306.8 317.971 1306.11C314.541 1304.66 310.847 1303.73 307.144 1302.96C299.694 1301.3 292.201 1300.71 284.452 1299.82C276.751 1298.84 269.15 1297.07 261.736 1294.73C259.887 1294.13 258.043 1293.51 256.221 1292.83L253.495 1291.79L253.155 1291.66L252.985 1291.59L252.9 1291.56C253.651 1293.8 251.823 1288.5 252.025 1289.03L252.046 1288.99L252.382 1288.39L253.053 1287.15C254.82 1283.82 256.421 1280.37 257.941 1276.91C260.962 1269.96 263.401 1262.75 264.984 1255.39C265.734 1251.7 266.267 1247.98 266.477 1244.25C266.609 1240.52 266.49 1236.8 265.864 1233.15C264.576 1225.88 260.949 1219.06 255.17 1214.39C249.459 1209.63 242.246 1206.8 234.849 1205.13L235.119 1203.76Z" fill="#3C1C16"/>
<path d="M452.318 1214.04C454.99 1218.96 458.61 1223.36 463.443 1224.87C465.838 1225.63 468.442 1225.82 471.133 1225.52C472.473 1225.4 473.818 1225.03 475.203 1224.83C476.55 1224.43 477.911 1224.03 479.343 1223.72L480.031 1225.11C478.781 1225.94 477.461 1226.68 476.125 1227.43C474.69 1227.95 473.281 1228.62 471.746 1228.95C468.703 1229.72 465.335 1229.69 462.164 1228.72C458.984 1227.72 456.224 1225.6 454.345 1223.03C452.456 1220.45 451.219 1217.56 450.817 1214.45L452.318 1214.04Z" fill="#3C1C16"/>
<path d="M408.805 1195.25C411.088 1200.36 414.356 1205.03 419.057 1206.91C421.386 1207.85 423.967 1208.25 426.673 1208.16C428.019 1208.14 429.388 1207.87 430.785 1207.78C432.159 1207.49 433.547 1207.2 434.999 1207L435.576 1208.44C434.265 1209.17 432.892 1209.81 431.502 1210.44C430.031 1210.85 428.574 1211.41 427.018 1211.62C423.924 1212.16 420.568 1211.87 417.483 1210.65C414.39 1209.41 411.802 1207.08 410.129 1204.37C408.446 1201.65 407.437 1198.67 407.277 1195.54L408.805 1195.25Z" fill="#3C1C16"/>
<path d="M1332.8 610.525H1375.04L1341.31 392.123H1299.06L1332.8 610.525Z" fill="#8CBFBE"/>
<path d="M1375.08 610.525H1417.33L1383.59 392.123H1341.34L1375.08 610.525Z" fill="#C6EAE9"/>
<path d="M1589.12 510.196H1433.21V610.492H1589.12V510.196Z" fill="#8CBFBE"/>
<path d="M1544.13 542.781H1478.2V560.344H1544.13V542.781Z" fill="white"/>
<path d="M1299.06 326.114H1225.7V610.491H1299.06V326.114Z" fill="#C6EAE9"/>
<path d="M1625.26 610.491H1186.19V642.071H1625.26V610.491Z" fill="#8CBFBE"/>
<path d="M959.724 299.411C1014.84 244.291 1014.84 154.924 959.724 99.8038C904.604 44.6837 815.237 44.6838 760.117 99.8038C704.996 154.924 704.996 244.291 760.116 299.411C815.237 354.531 904.604 354.531 959.724 299.411Z" fill="white" stroke="#7E57C2" stroke-width="5" stroke-miterlimit="10"/>
<path d="M915.751 228.91L855.433 200.233L921.332 142.188L924.637 145.941L864.427 198.973L917.899 224.393L915.751 228.91Z" fill="#102048"/>
<path d="M411.36 462.057H191.476C174.431 462.057 160.614 448.239 160.614 431.195V307.573C160.614 290.528 174.431 276.711 191.476 276.711H411.36C428.405 276.711 442.222 290.529 442.222 307.573V431.195C442.222 448.24 428.405 462.057 411.36 462.057Z" fill="#C6EAE9"/>
<path d="M406.592 323.229H196.244V340.747H406.592V323.229Z" fill="#8CBFBE"/>
<path opacity="0.8" d="M406.592 360.625H196.244V378.144H406.592V360.625Z" fill="white"/>
<path opacity="0.8" d="M406.592 398.02H196.244V415.539H406.592V398.02Z" fill="white"/>
<path d="M231.787 649.618L191.807 618.35H271.767L231.787 649.618Z" fill="#FBC343"/>
<path d="M282.548 618.376H62.664C45.619 618.376 31.802 604.558 31.802 587.514V463.892C31.802 446.847 45.619 433.03 62.664 433.03H282.548C299.593 433.03 313.41 446.848 313.41 463.892V587.514C313.41 604.558 299.592 618.376 282.548 618.376Z" fill="#FBC343"/>
<g opacity="0.8">
<path d="M118.631 538.798H91.37V572.493H118.631V538.798Z" fill="white"/>
<path d="M162.404 501.287H135.142V572.493H162.404V501.287Z" fill="white"/>
<path d="M208.123 517.457H180.861V572.493H208.123V517.457Z" fill="white"/>
<path d="M253.842 478.913H226.58V572.493H253.842V478.913Z" fill="white"/>
</g>
</svg>
