<svg width="82" height="100" viewBox="0 0 82 100" fill="none" xmlns="http://www.w3.org/2000/svg">
<g clip-path="url(#clip0_6848_6332)">
<path d="M8.25681 82.1906L8.25434 83.0661L0 71.8057L0.00246988 70.9302L8.25681 82.1906Z" fill="#898883"/>
<path d="M28.3777 87.473L28.3752 88.3485L8.25433 83.0659L8.2568 82.1904L28.3777 87.473Z" fill="#BAB9B1"/>
<path d="M52.4788 56.6885L8.22345 82.1437L8.25679 82.1903L28.3777 87.4729L28.4419 87.5526L72.7268 61.8043L52.4788 56.6885Z" fill="#E8E8E8"/>
<path d="M82 73.6194L72.8207 61.8292L72.7268 61.8047L28.4419 87.553L37.7978 99.1249L82 73.6194Z" fill="#F4F4F4"/>
<path d="M52.459 56.6838L44.2046 45.4233L0.00244141 70.9301L8.22344 82.1439L52.4787 56.6887L52.459 56.6838Z" fill="#CECECE"/>
<path d="M82 73.6191L81.9975 74.4947L37.7953 100L37.7978 99.1247L82 73.6191Z" fill="#C6C5C1"/>
<path d="M37.7978 99.1248L37.7953 100L28.3752 88.3487L28.3777 87.4731L37.7978 99.1248Z" fill="#919087"/>
<path d="M46.9104 40.1464C46.9969 40.1231 47.0809 40.0961 47.1636 40.0679C47.2179 40.0508 47.2723 40.0336 47.3254 40.0152C47.4168 39.9821 47.5044 39.9441 47.5934 39.9061C47.6366 39.8877 47.681 39.8705 47.723 39.8509C47.8527 39.7908 47.9787 39.7258 48.1021 39.6547L52.7455 36.9754C52.622 37.0465 52.4961 37.1115 52.3664 37.1716C52.3232 37.1912 52.2787 37.2084 52.2355 37.2267C52.1478 37.2648 52.0589 37.3028 51.9687 37.3359C51.9156 37.3555 51.8613 37.3714 51.807 37.3886C51.723 37.4156 51.639 37.4438 51.5538 37.4671C51.4958 37.483 51.4352 37.4965 51.376 37.51C51.292 37.5296 51.208 37.548 51.1216 37.564C51.0561 37.5762 50.9894 37.586 50.9228 37.5971C50.8487 37.6081 50.7746 37.6179 50.7005 37.6265C50.6301 37.6339 50.5597 37.64 50.4893 37.6449C50.414 37.6498 50.3374 37.6547 50.2596 37.6572C50.188 37.6596 50.1151 37.6608 50.0422 37.6608C49.9644 37.6608 49.8854 37.6596 49.8064 37.6572C49.7323 37.6547 49.6569 37.6498 49.5828 37.6449C49.5026 37.6388 49.4223 37.6326 49.3408 37.624C49.2581 37.6155 49.1753 37.6057 49.0926 37.5946C49.0321 37.586 48.9715 37.5774 48.911 37.5676C48.8184 37.5529 48.7258 37.5345 48.6319 37.5161C48.5727 37.5039 48.5134 37.4928 48.4541 37.4794C48.3528 37.4573 48.2503 37.4303 48.1478 37.4033C48.0947 37.3898 48.0429 37.3776 47.9898 37.3629C47.8515 37.3236 47.7107 37.2807 47.5699 37.2341C47.5526 37.228 47.5353 37.2231 47.5168 37.2169C47.3587 37.163 47.1982 37.1041 47.0364 37.0404C46.987 37.0207 46.9364 36.9987 46.887 36.9778C46.7746 36.9312 46.6622 36.8846 46.5486 36.8331C46.4868 36.8049 46.4239 36.7755 46.3621 36.7461C46.2596 36.697 46.1559 36.648 46.0521 36.5952C45.9855 36.5621 45.9188 36.5266 45.8521 36.491C45.7138 36.4187 45.5755 36.3451 45.4359 36.2642L40.7925 38.9435C40.8778 38.9925 40.9642 39.0403 41.0494 39.0869C41.1025 39.1164 41.1556 39.1421 41.2087 39.1703C41.2754 39.2059 41.3421 39.2402 41.4088 39.2745C41.5125 39.3273 41.6162 39.3763 41.7187 39.4254C41.7805 39.4548 41.8435 39.4855 41.9052 39.5124C42.0188 39.5639 42.1312 39.6105 42.2436 39.6571C42.293 39.678 42.3436 39.7 42.3943 39.7197C42.5536 39.7822 42.7116 39.8411 42.8697 39.895C42.8709 39.895 42.8734 39.895 42.8746 39.8962C42.8932 39.9024 42.9105 39.9073 42.9277 39.9134C43.0685 39.96 43.2081 40.0029 43.3464 40.0422C43.3995 40.0569 43.4514 40.0691 43.5045 40.0826C43.607 40.1096 43.7095 40.1354 43.8107 40.1587C43.87 40.1721 43.9293 40.1832 43.9886 40.1954C44.0824 40.2138 44.175 40.2322 44.2677 40.2469C44.3282 40.2568 44.3887 40.2653 44.4492 40.2739C44.4937 40.2801 44.5381 40.2886 44.5813 40.2935C44.6209 40.2984 44.6579 40.2997 44.6974 40.3034C44.7789 40.3119 44.8592 40.3193 44.9395 40.3242C45.0148 40.3291 45.0889 40.334 45.163 40.3365C45.242 40.3389 45.3211 40.3401 45.3989 40.3401C45.4717 40.3401 45.5446 40.3401 45.6162 40.3365C45.6928 40.334 45.7693 40.3291 45.8459 40.3242C45.9175 40.3193 45.9879 40.3132 46.0571 40.3058C46.1324 40.2972 46.2065 40.2874 46.2794 40.2764C46.3189 40.2702 46.3596 40.2678 46.3992 40.2604C46.4263 40.2555 46.451 40.2482 46.4782 40.2433C46.5634 40.2273 46.6486 40.2089 46.7326 40.1893C46.7919 40.1758 46.8524 40.1623 46.9104 40.1464Z" fill="#A492FF"/>
<path d="M39.5811 38.166C39.6465 38.2126 39.712 38.2592 39.7774 38.3046C39.8886 38.3806 40.0022 38.4542 40.1146 38.5277C40.1701 38.5633 40.2245 38.6013 40.2813 38.6369C40.4505 38.7435 40.6197 38.8453 40.7913 38.9434L45.4347 36.2641C45.2643 36.166 45.0939 36.063 44.9247 35.9576C44.8691 35.922 44.8135 35.8852 44.758 35.8484C44.6456 35.7761 44.5332 35.7025 44.4208 35.6265C44.3554 35.5811 44.2899 35.5333 44.2245 35.4867C44.1244 35.4156 44.0244 35.3444 43.9244 35.2709C43.8552 35.2194 43.7861 35.1666 43.7181 35.1139C43.6243 35.0428 43.5317 34.9704 43.439 34.8969C43.3588 34.8331 43.2797 34.7669 43.2007 34.7019C43.1155 34.6308 43.0303 34.5609 42.9451 34.4885C42.8673 34.4211 42.7895 34.3524 42.7117 34.2838C42.6277 34.2102 42.5449 34.1354 42.4622 34.0594C42.3844 33.9882 42.3091 33.9159 42.2325 33.8435C42.151 33.7663 42.0695 33.689 41.9892 33.6093C41.9139 33.5345 41.8386 33.4597 41.7645 33.3837C41.6842 33.3028 41.6052 33.2219 41.5261 33.1397C41.452 33.0624 41.3792 32.984 41.3063 32.9055C41.2285 32.8221 41.1507 32.7375 41.0741 32.6517C41.0025 32.5719 40.9309 32.491 40.8592 32.4089C40.7839 32.3218 40.7073 32.2347 40.6333 32.1465C40.5629 32.0631 40.4937 31.9797 40.4245 31.8963C40.3505 31.8068 40.2776 31.7173 40.206 31.6265C40.138 31.5407 40.0701 31.4549 40.0034 31.369C39.9318 31.2771 39.8614 31.1839 39.791 31.0907C39.7256 31.0036 39.6601 30.9153 39.5947 30.827C39.5255 30.7326 39.4576 30.6382 39.3897 30.5425C39.3254 30.453 39.2625 30.3623 39.2007 30.2715C39.134 30.1747 39.0686 30.0778 39.0031 29.9809C38.9414 29.889 38.8809 29.797 38.8204 29.7038C38.7561 29.6057 38.6932 29.5064 38.6302 29.4071C38.5709 29.3139 38.5129 29.2194 38.4548 29.125C38.3931 29.0245 38.3338 28.9239 38.2733 28.8234C38.2165 28.7277 38.1609 28.6321 38.1053 28.5364C38.0473 28.4347 37.9892 28.3317 37.9324 28.2299C37.8781 28.133 37.825 28.0361 37.7731 27.938C37.7176 27.835 37.6632 27.7308 37.6089 27.6266C37.5583 27.5285 37.5076 27.4304 37.4582 27.3323C37.4051 27.2268 37.3545 27.1214 37.3026 27.0159C37.2545 26.9166 37.2075 26.8185 37.1606 26.7192C37.1149 26.6211 37.0705 26.5242 37.026 26.4261C36.9704 26.3023 36.9148 26.1784 36.8617 26.0546C36.8198 25.9589 36.7802 25.862 36.7395 25.7664C36.6876 25.6425 36.637 25.5175 36.5876 25.3936C36.5493 25.2967 36.511 25.1999 36.4752 25.103C36.427 24.9779 36.3814 24.8516 36.3357 24.7253C36.3011 24.6297 36.2665 24.5328 36.2332 24.4372C36.1887 24.3096 36.1467 24.1809 36.106 24.0534C36.0739 23.9553 36.0417 23.8572 36.0109 23.7578C35.9849 23.6744 35.9615 23.5923 35.9368 23.5089C35.901 23.3887 35.8664 23.2686 35.8343 23.1484C35.8108 23.0626 35.7886 22.9767 35.7664 22.8921C35.7355 22.7744 35.7058 22.6555 35.6774 22.5377C35.6564 22.4519 35.6367 22.3661 35.6169 22.2802C35.5898 22.1613 35.5651 22.0423 35.5404 21.9246C35.5231 21.8412 35.5058 21.7566 35.4897 21.6732C35.465 21.5457 35.4428 21.4194 35.4218 21.2919C35.4095 21.2208 35.3971 21.1496 35.386 21.0785C35.3625 20.9252 35.3415 20.7732 35.3218 20.6199C35.3156 20.5745 35.3082 20.5304 35.3033 20.485C35.2798 20.2888 35.26 20.0926 35.244 19.8977C35.2403 19.8474 35.2378 19.7971 35.2341 19.7468C35.2242 19.6071 35.2143 19.4673 35.2082 19.3275C35.1983 19.0994 35.1921 18.8713 35.1921 18.6469C35.1921 18.4679 35.1983 18.2925 35.2057 18.1196C35.2082 18.073 35.2106 18.0277 35.2131 17.9811C35.2217 17.8339 35.2316 17.688 35.244 17.5445C35.2464 17.5188 35.2477 17.493 35.2502 17.4673C35.2662 17.3054 35.286 17.1485 35.3082 16.9927C35.3168 16.9363 35.3255 16.8812 35.3341 16.8247C35.3514 16.7156 35.3699 16.6077 35.3897 16.5023C35.4008 16.4434 35.4132 16.3858 35.4243 16.3281C35.4465 16.2251 35.47 16.1233 35.4947 16.0228C35.5083 15.9701 35.5206 15.9161 35.5342 15.8646C35.5651 15.7493 35.5984 15.6378 35.633 15.5262C35.6429 15.4931 35.6527 15.4587 35.6639 15.4256C35.7108 15.2834 35.7602 15.1448 35.812 15.0099C35.8256 14.9756 35.8404 14.9437 35.854 14.9094C35.8948 14.8088 35.9368 14.7107 35.9812 14.6139C36.0022 14.5685 36.0245 14.5243 36.0455 14.4802C36.0862 14.398 36.127 14.3159 36.1702 14.2362C36.1936 14.192 36.2183 14.1467 36.243 14.1038C36.2887 14.024 36.3344 13.948 36.3826 13.872C36.4073 13.834 36.4308 13.7947 36.4555 13.758C36.5172 13.6635 36.5827 13.5728 36.6481 13.4845C36.6592 13.4686 36.6703 13.4526 36.6827 13.4367C36.7617 13.3337 36.8432 13.2344 36.9272 13.1387C36.9519 13.1105 36.9778 13.0848 37.0025 13.0578C37.0643 12.9916 37.126 12.9253 37.1902 12.8628C37.2223 12.8309 37.2557 12.8003 37.289 12.7696C37.3495 12.7132 37.4101 12.6593 37.4718 12.6065C37.5064 12.5771 37.5422 12.5477 37.5768 12.5195C37.6435 12.4667 37.7114 12.4152 37.7805 12.3662C37.8126 12.3429 37.8435 12.3196 37.8756 12.2975C37.9769 12.2276 38.0806 12.1614 38.1868 12.1001L33.5435 14.7794C33.4373 14.8407 33.3335 14.9069 33.2323 14.9768C33.2002 14.9989 33.168 15.0234 33.1372 15.0455C33.068 15.0945 33.0001 15.146 32.9334 15.1988C32.8976 15.227 32.863 15.2564 32.8284 15.2858C32.7667 15.3386 32.7049 15.3925 32.6457 15.4489C32.6123 15.4796 32.579 15.5102 32.5469 15.5421C32.4826 15.6047 32.4209 15.6696 32.3604 15.7359C32.3357 15.7628 32.3098 15.7898 32.2838 15.818C32.1998 15.9137 32.1171 16.013 32.0393 16.116C32.027 16.1319 32.0158 16.1491 32.0047 16.165C31.938 16.2533 31.8738 16.3441 31.8121 16.4385C31.7874 16.4753 31.7639 16.5145 31.7392 16.5525C31.6911 16.6286 31.6441 16.7058 31.5997 16.7843C31.575 16.8284 31.5503 16.8726 31.5256 16.9167C31.4823 16.9964 31.4416 17.0774 31.4008 17.1595C31.3786 17.2037 31.3576 17.249 31.3366 17.2944C31.2922 17.39 31.2502 17.4881 31.2094 17.5887C31.1958 17.623 31.181 17.6561 31.1674 17.6905C31.1143 17.8253 31.0649 17.9639 31.0192 18.1049C31.0081 18.138 30.9995 18.1724 30.9884 18.2055C30.9538 18.3158 30.9205 18.4287 30.8896 18.5427C30.876 18.5954 30.8624 18.6481 30.8501 18.7021C30.8254 18.8027 30.8019 18.9032 30.7797 19.0062C30.7673 19.0638 30.7562 19.1215 30.7439 19.1803C30.7241 19.2858 30.7056 19.3937 30.6883 19.5028C30.6796 19.5592 30.6698 19.6144 30.6623 19.6708C30.6586 19.6941 30.6549 19.7162 30.6512 19.7395C30.6327 19.8719 30.6179 20.008 30.6043 20.1454C30.6018 20.1711 30.6006 20.1969 30.5981 20.2226C30.5845 20.3661 30.5747 20.5108 30.5673 20.6592C30.5648 20.7058 30.5623 20.7511 30.5598 20.7977C30.5524 20.9706 30.5475 21.146 30.5463 21.325C30.5463 21.5506 30.5524 21.7775 30.5623 22.0056C30.5623 22.0239 30.5623 22.0411 30.5636 22.0595C30.5697 22.1809 30.5796 22.3023 30.5883 22.4237C30.592 22.474 30.5944 22.5242 30.5981 22.5745C30.6142 22.7695 30.6339 22.9657 30.6586 23.1619C30.6636 23.206 30.671 23.2514 30.6772 23.2968C30.6969 23.4488 30.7179 23.6021 30.7414 23.7554C30.7525 23.8265 30.7661 23.8976 30.7772 23.9687C30.792 24.0595 30.8068 24.1515 30.8241 24.2422C30.8303 24.2778 30.8389 24.3145 30.8464 24.3501C30.8624 24.4335 30.8797 24.5169 30.897 24.6015C30.9217 24.7204 30.9464 24.8394 30.9736 24.9583C30.9933 25.0429 31.0131 25.1288 31.0341 25.2146C31.0625 25.3335 31.0921 25.4513 31.123 25.5702C31.1452 25.656 31.1674 25.7406 31.1909 25.8265C31.2242 25.9466 31.2588 26.0668 31.2934 26.187C31.3181 26.2704 31.3416 26.3525 31.3675 26.4359C31.3774 26.4678 31.386 26.4997 31.3959 26.5316C31.4169 26.5978 31.4404 26.664 31.4614 26.7302C31.5033 26.859 31.5453 26.9865 31.5886 27.114C31.6219 27.2109 31.6565 27.3065 31.6911 27.4022C31.7367 27.5285 31.7824 27.6536 31.8306 27.7799C31.8676 27.8767 31.9047 27.9736 31.943 28.0705C31.9924 28.1955 32.043 28.3194 32.0949 28.4432C32.1344 28.5401 32.1752 28.6358 32.2171 28.7326C32.2702 28.8565 32.3258 28.9803 32.3814 29.103C32.4073 29.1618 32.432 29.2207 32.4592 29.2783C32.4777 29.3175 32.4975 29.358 32.516 29.3972C32.5617 29.4966 32.6098 29.5947 32.6568 29.6928C32.7086 29.7994 32.7605 29.9049 32.8124 30.0104C32.8618 30.1085 32.9124 30.2053 32.963 30.3034C33.0174 30.4077 33.0717 30.5119 33.1273 30.6161C33.1792 30.713 33.2323 30.8099 33.2854 30.9055C33.3422 31.0085 33.4002 31.1115 33.4595 31.2133C33.5138 31.3089 33.5706 31.4046 33.6262 31.499C33.6867 31.6008 33.7472 31.7013 33.8077 31.8019C33.8658 31.8963 33.9238 31.9895 33.9819 32.0827C34.0449 32.182 34.1078 32.2813 34.172 32.3794C34.2326 32.4726 34.2931 32.5646 34.3548 32.6566C34.4203 32.7547 34.4857 32.8515 34.5524 32.9484C34.6154 33.0391 34.6771 33.1287 34.7414 33.2182C34.8093 33.3138 34.8784 33.4095 34.9476 33.5039C35.0118 33.5922 35.0773 33.6805 35.1427 33.7675C35.2131 33.8607 35.2847 33.9539 35.3551 34.0459C35.4218 34.1317 35.4897 34.2175 35.5576 34.3034C35.6305 34.3941 35.7034 34.4849 35.7775 34.5744C35.8466 34.6578 35.9158 34.7411 35.9862 34.8245C36.0615 34.9128 36.1368 34.9999 36.2122 35.0869C36.2826 35.1679 36.3542 35.2488 36.4258 35.3285C36.5024 35.4143 36.5802 35.499 36.6592 35.5823C36.7321 35.6608 36.8049 35.7393 36.879 35.8165C36.9581 35.8987 37.0371 35.9796 37.1174 36.0606C37.1927 36.1366 37.2668 36.2114 37.3434 36.2862C37.4236 36.3659 37.5051 36.4431 37.5867 36.5204C37.6632 36.5927 37.7398 36.6651 37.8164 36.7362C37.8991 36.8122 37.9831 36.887 38.0658 36.9606C38.1436 37.0293 38.2214 37.0979 38.2992 37.1654C38.3832 37.2377 38.4696 37.3089 38.5549 37.3788C38.6339 37.4437 38.7129 37.51 38.7932 37.5737C38.8191 37.5946 38.8438 37.6166 38.8698 37.6363C38.9364 37.689 39.0044 37.738 39.0711 37.7895C39.1402 37.8423 39.2081 37.895 39.2773 37.9465C39.3773 38.0201 39.4774 38.0912 39.5774 38.1623L39.5811 38.166Z" fill="#A492FF"/>
<path d="M56.2281 47.7062L40.6691 65.6458C43.7428 63.8727 46.4967 61.6005 48.816 58.9261L60.8702 45.0269L56.2268 47.7062H56.2281Z" fill="#A492FF"/>
<path d="M28.2184 3.57671C28.2653 3.55464 28.3123 3.53502 28.3592 3.51417C28.4321 3.48229 28.5037 3.44918 28.5778 3.41975C28.6284 3.39891 28.679 3.37929 28.7297 3.35844C28.8013 3.33024 28.8729 3.30203 28.9458 3.27628C28.9989 3.25666 29.052 3.23827 29.1039 3.21988C29.1767 3.19535 29.2483 3.17083 29.3212 3.14753C29.3755 3.13036 29.4299 3.1132 29.4842 3.09726C29.5583 3.07518 29.6324 3.05434 29.7077 3.03349C29.7621 3.01878 29.8164 3.00406 29.8708 2.99057C29.9486 2.97095 30.0264 2.95256 30.1042 2.93539C30.1573 2.92313 30.2104 2.91087 30.2647 2.89983C30.3474 2.88267 30.4327 2.86672 30.5166 2.85201C30.5673 2.84343 30.6167 2.83239 30.6673 2.82503C30.7377 2.81277 30.8081 2.80419 30.8785 2.79315C30.9377 2.78457 30.997 2.77476 31.0575 2.7674C31.1292 2.75882 31.202 2.75146 31.2749 2.74288C31.3342 2.73674 31.3947 2.72939 31.4552 2.72326C31.5293 2.71712 31.6034 2.71222 31.6787 2.70732C31.7392 2.70364 31.7985 2.69751 31.859 2.69505C31.9356 2.69137 32.0134 2.68892 32.0899 2.68647C32.1492 2.68402 32.2085 2.68156 32.2678 2.68034C32.3493 2.67911 32.4308 2.68034 32.5123 2.68034C32.5691 2.68034 32.6259 2.68034 32.6827 2.68034C32.7716 2.68156 32.8605 2.68647 32.9495 2.69015C33.0001 2.6926 33.052 2.6926 33.1026 2.69628C33.2199 2.70241 33.3372 2.71099 33.4558 2.7208C33.4805 2.72326 33.5039 2.72326 33.5274 2.72571C33.6707 2.73797 33.8139 2.75269 33.9596 2.77108C33.9633 2.77108 33.967 2.77108 33.9708 2.77231C34.1992 2.79928 34.4289 2.83484 34.6611 2.87531C34.6932 2.88144 34.7253 2.88634 34.7586 2.89125C34.9822 2.93171 35.2082 2.97831 35.4354 3.02981C35.4774 3.03962 35.5206 3.04943 35.5626 3.05924C35.7898 3.1132 36.0183 3.17206 36.2492 3.23705C36.2863 3.24808 36.3246 3.25912 36.3616 3.27015C36.6024 3.34005 36.8445 3.41485 37.089 3.49823C37.0976 3.50068 37.1063 3.50436 37.1149 3.50804C37.3557 3.5902 37.5978 3.67971 37.8423 3.77413C37.8756 3.78762 37.909 3.79988 37.9423 3.81215C38.1807 3.90656 38.4215 4.00712 38.6635 4.11257C38.7092 4.13219 38.7537 4.15181 38.7994 4.17266C39.0402 4.28056 39.2822 4.39338 39.5255 4.51232C39.565 4.53194 39.6058 4.55279 39.6465 4.57241C39.8997 4.69871 40.1553 4.82991 40.411 4.9697C40.569 5.05554 40.7271 5.14383 40.8864 5.23579L45.5298 2.55649C45.373 2.46697 45.2174 2.37991 45.0617 2.29408C45.0593 2.29285 45.0568 2.29162 45.0543 2.2904C44.7975 2.15061 44.5431 2.0194 44.2887 1.8931C44.2492 1.87348 44.2084 1.85264 44.1689 1.83302C43.9256 1.71285 43.6836 1.60003 43.4427 1.49212C43.397 1.47128 43.3526 1.45166 43.3069 1.43204C43.0648 1.32658 42.824 1.22481 42.5857 1.13161C42.5524 1.11813 42.519 1.10586 42.4857 1.0936C42.2411 0.999182 41.9991 0.909667 41.7583 0.82751C41.7521 0.825058 41.7447 0.822605 41.7385 0.820153C41.7361 0.820153 41.7348 0.820153 41.7323 0.8177C41.4878 0.734317 41.2458 0.660743 41.005 0.589622C40.9679 0.578586 40.9296 0.56755 40.8926 0.556514C40.6617 0.491524 40.4332 0.432665 40.206 0.378711C40.164 0.368901 40.1208 0.359091 40.0788 0.349282C39.8515 0.29778 39.6255 0.251184 39.402 0.210718C39.3699 0.204587 39.3366 0.199682 39.3045 0.194777C39.0723 0.154312 38.8414 0.119977 38.6141 0.091774C38.6117 0.091774 38.6092 0.091774 38.6067 0.091774H38.6042C38.4598 0.0746069 38.3153 0.0598921 38.172 0.0464037C38.1473 0.0439512 38.1239 0.042725 38.1004 0.0414987C37.9818 0.0316889 37.8633 0.0231053 37.7472 0.0169742C37.6953 0.0145218 37.6447 0.0132955 37.5941 0.0108431C37.5052 0.0071644 37.415 0.00348572 37.3273 0.00103327C37.2705 0.00103327 37.2137 0.00103327 37.1569 0.00103327C37.0754 0.00103327 36.9939 -0.000192956 36.9124 0.00103327C36.8531 0.00103327 36.7938 0.00471195 36.7345 0.0071644C36.658 0.00961686 36.5802 0.0120693 36.5036 0.015748C36.4431 0.0194267 36.3838 0.0243316 36.3233 0.0280103C36.2492 0.0329152 36.1739 0.0378201 36.0998 0.0439512C36.0393 0.0488561 35.98 0.0562135 35.9195 0.0635708C35.8466 0.0709282 35.7738 0.0782855 35.7021 0.0880954C35.6416 0.0954527 35.5824 0.105263 35.5231 0.113846C35.4527 0.123656 35.3823 0.133466 35.3119 0.145728C35.302 0.146954 35.2909 0.14818 35.281 0.150633C35.2415 0.15799 35.202 0.166574 35.1612 0.173931C35.0773 0.189872 34.9933 0.204587 34.9093 0.221754C34.855 0.23279 34.8019 0.245052 34.7488 0.257315C34.671 0.274482 34.5932 0.292875 34.5154 0.312495C34.461 0.325983 34.4067 0.340698 34.3524 0.355413C34.277 0.376259 34.2029 0.397104 34.1288 0.419177C34.0745 0.435117 34.0202 0.452285 33.9658 0.469452C33.893 0.49275 33.8201 0.517275 33.7485 0.541799C33.6954 0.560193 33.6423 0.578586 33.5904 0.598206C33.5175 0.625183 33.4459 0.65216 33.3743 0.680363C33.3236 0.699982 33.273 0.719602 33.2224 0.740448C33.1483 0.771104 33.0754 0.802985 33.0038 0.836094C32.9569 0.856939 32.9099 0.876559 32.8642 0.898631C32.784 0.935418 32.7062 0.974657 32.6271 1.01512C32.5889 1.03352 32.5506 1.05191 32.5135 1.07153C32.3974 1.13161 32.2838 1.19415 32.1714 1.25914L27.5281 3.93845C27.6405 3.87346 27.7553 3.81092 27.8702 3.75083C27.9084 3.73121 27.9467 3.71282 27.985 3.69443C28.0628 3.65519 28.1418 3.61595 28.2209 3.57916L28.2184 3.57671Z" fill="#A492FF"/>
<path d="M40.8864 5.23599C30.5141 -0.709984 22.0807 4.06371 22.0462 15.898C22.0338 20.3836 23.4836 25.2259 25.2903 29.9702L40.6678 65.6448L56.2268 47.7051C58.2509 44.6481 59.5896 41.9578 59.6031 37.4281C59.6365 25.5938 51.2562 11.1807 40.8852 5.23476L40.8864 5.23599ZM40.7901 38.9437C35.1143 35.6906 30.5277 27.8022 30.5463 21.3253C30.5648 14.8508 35.181 12.2377 40.8568 15.4909C46.5338 18.7453 51.1191 26.6336 51.1006 33.1081C51.0821 39.585 46.4671 42.1981 40.7901 38.9437Z" fill="#7B61FF"/>
<path d="M61.5371 43.9881C61.5741 43.9281 61.6112 43.868 61.647 43.8079C61.7199 43.6877 61.7927 43.5676 61.8631 43.4474C61.8952 43.3934 61.9273 43.3395 61.9582 43.2855C62.0582 43.1138 62.1558 42.9422 62.2496 42.7693C62.2521 42.7644 62.2546 42.7595 62.2571 42.7558C62.3484 42.589 62.4361 42.421 62.5213 42.253C62.5485 42.1991 62.5757 42.1439 62.6028 42.0899C62.6633 41.9685 62.7226 41.8459 62.7794 41.7221C62.8078 41.6608 62.8362 41.5982 62.8646 41.5369C62.9215 41.4118 62.9758 41.2868 63.0289 41.1605C63.0524 41.1053 63.0771 41.0489 63.0993 40.9937C63.1734 40.8122 63.245 40.6295 63.3117 40.4443C63.3142 40.4358 63.3166 40.4284 63.3203 40.4198C63.3846 40.2432 63.4451 40.063 63.5031 39.8815C63.5216 39.8214 63.5402 39.7601 63.5587 39.7C63.5994 39.5664 63.639 39.4303 63.676 39.2929C63.6945 39.2243 63.713 39.1556 63.7303 39.0857C63.7662 38.9447 63.8007 38.8024 63.8328 38.6577C63.8464 38.5952 63.8612 38.5339 63.8748 38.4714C63.9193 38.2653 63.96 38.0557 63.9959 37.8423C63.9983 37.8288 63.9996 37.8141 64.002 37.8006C64.0304 37.6289 64.0576 37.4548 64.0811 37.277C64.0848 37.2476 64.0872 37.2157 64.0922 37.1863C64.1008 37.1139 64.1095 37.0403 64.1169 36.968C64.1354 36.811 64.1515 36.6529 64.1663 36.4922C64.1737 36.4101 64.1799 36.3267 64.186 36.2433C64.1984 36.0778 64.2083 35.9098 64.2169 35.7381C64.2206 35.6621 64.2256 35.586 64.228 35.5088C64.2379 35.2611 64.2441 35.0085 64.2441 34.7498C64.2441 34.5437 64.2416 34.3377 64.2379 34.1305C64.2367 34.0643 64.2342 33.9969 64.2317 33.9294C64.228 33.7872 64.2231 33.6449 64.2157 33.5027C64.2144 33.4708 64.2144 33.4389 64.212 33.4058C64.2107 33.3764 64.207 33.347 64.2058 33.3175C64.191 33.0294 64.1724 32.7387 64.1477 32.4481C64.1453 32.4162 64.1416 32.3831 64.1391 32.3513C64.1144 32.0631 64.0848 31.7737 64.0502 31.4843C64.0465 31.4573 64.044 31.4304 64.0415 31.4034C64.0057 31.1079 63.965 30.8123 63.9205 30.5156C63.9131 30.4629 63.9045 30.4101 63.8971 30.3574C63.8526 30.068 63.8032 29.7774 63.7489 29.4868C63.7452 29.4647 63.7415 29.4414 63.7377 29.4193C63.7328 29.3899 63.7254 29.3605 63.7192 29.3311C63.6612 29.0245 63.5994 28.7179 63.5328 28.4114C63.5253 28.3758 63.5167 28.3415 63.5093 28.3059C63.4389 27.9896 63.366 27.672 63.2858 27.3556C63.2833 27.3458 63.2808 27.336 63.2784 27.3262C63.1981 27.0074 63.1129 26.6885 63.024 26.3697C63.0116 26.3268 63.0005 26.2839 62.9881 26.241C62.9017 25.9356 62.8103 25.6303 62.7152 25.325C62.7066 25.2968 62.6992 25.2673 62.6893 25.2391C62.6831 25.2183 62.6745 25.1974 62.6683 25.1754C62.5485 24.7965 62.4238 24.4188 62.2916 24.0411C62.2793 24.0043 62.2669 23.9675 62.2534 23.9308C62.115 23.5371 61.9705 23.1447 61.8186 22.7524C61.8112 22.734 61.8051 22.7156 61.7977 22.6972C61.6396 22.2888 61.4741 21.8817 61.3024 21.4759C61.2963 21.4611 61.2889 21.4452 61.2827 21.4305C61.116 21.0381 60.9431 20.6481 60.764 20.2594C60.7578 20.2459 60.7529 20.2325 60.7467 20.219C60.7356 20.1944 60.7233 20.1699 60.7121 20.1454C60.5565 19.8106 60.3972 19.4771 60.233 19.1448C60.2157 19.1092 60.1984 19.0749 60.1811 19.0406C60.0144 18.7046 59.844 18.371 59.6674 18.0387C59.6513 18.0093 59.6353 17.9787 59.6192 17.9492C59.4402 17.6132 59.2574 17.2785 59.0709 16.9474C59.0573 16.9229 59.0425 16.8971 59.0277 16.8726C58.8375 16.5366 58.6424 16.2019 58.4436 15.8708C58.4324 15.8524 58.4213 15.834 58.4102 15.8156C58.2065 15.4784 57.999 15.1436 57.7866 14.8113C57.7804 14.8003 57.773 14.7905 57.7656 14.7794C57.5482 14.441 57.3272 14.1038 57.1012 13.7715C57.0999 13.769 57.0987 13.7678 57.0975 13.7653C56.8715 13.4318 56.6405 13.1019 56.4047 12.7745C56.3997 12.7672 56.3948 12.7598 56.3899 12.7525C56.1589 12.4312 55.923 12.1148 55.6847 11.8009C55.6736 11.7874 55.6637 11.7727 55.6526 11.758C55.418 11.4514 55.1796 11.1486 54.9376 10.8481C54.9215 10.8285 54.9067 10.8089 54.8906 10.7893C54.6523 10.495 54.4115 10.2056 54.167 9.92112C54.1472 9.89782 54.1262 9.8733 54.1065 9.85C53.8644 9.56919 53.6199 9.29329 53.3729 9.02107C53.3482 8.99409 53.3247 8.96711 53.3 8.94014C53.0555 8.67159 52.8073 8.40795 52.5566 8.14922C52.5282 8.11979 52.501 8.09036 52.4726 8.06216C52.2232 7.80588 51.9712 7.5545 51.7181 7.3068C51.6872 7.27737 51.6576 7.24672 51.6267 7.21729C51.3735 6.97327 51.1179 6.73416 50.861 6.49872C50.8277 6.46806 50.7943 6.43741 50.761 6.40675C50.5041 6.175 50.246 5.94814 49.9855 5.7262C49.9496 5.69554 49.9138 5.66489 49.878 5.63423C49.6174 5.41474 49.3556 5.20015 49.0914 4.99046C49.0704 4.97329 49.0494 4.95613 49.0284 4.93896C49.0111 4.92547 48.9926 4.91198 48.9753 4.89849C48.7283 4.70475 48.4801 4.51469 48.2294 4.33075C48.1874 4.3001 48.1454 4.26944 48.1046 4.23878C47.8527 4.05485 47.5996 3.8746 47.3439 3.70047C47.3056 3.67472 47.2674 3.64897 47.2303 3.62322C46.9685 3.44664 46.7055 3.27374 46.4412 3.10698C46.4152 3.09104 46.3893 3.0751 46.3634 3.05915C46.0855 2.88503 45.8052 2.71704 45.5236 2.55518L40.8802 5.23448C41.1618 5.39634 41.4409 5.56434 41.72 5.73846C41.7459 5.7544 41.7719 5.77034 41.7978 5.78628C42.0621 5.95305 42.3251 6.12472 42.5869 6.30252C42.6252 6.32827 42.6635 6.35403 42.7005 6.37978C42.9549 6.5539 43.2081 6.73293 43.46 6.91686C43.502 6.94752 43.544 6.97817 43.586 7.00883C43.8355 7.19276 44.0837 7.38283 44.3307 7.57657C44.3702 7.60723 44.4085 7.63789 44.4468 7.66854C44.711 7.87823 44.9728 8.09159 45.2322 8.31108C45.268 8.34174 45.3038 8.37239 45.3396 8.40305C45.6002 8.625 45.8595 8.85185 46.1152 9.08361C46.1485 9.11426 46.1818 9.14492 46.2152 9.17557C46.4721 9.40978 46.7277 9.65012 46.9809 9.89414C47.0117 9.92357 47.0426 9.95423 47.0735 9.98366C47.3279 10.2314 47.5798 10.4827 47.828 10.739C47.8564 10.7684 47.8836 10.7979 47.912 10.8261C48.1627 11.086 48.4109 11.3497 48.6554 11.617C48.6801 11.644 48.7036 11.6709 48.7283 11.6979C48.9753 11.9701 49.2198 12.246 49.4618 12.5269C49.4828 12.5514 49.5026 12.5759 49.5236 12.5992C49.7681 12.8849 50.0089 13.1743 50.2473 13.4674C50.2633 13.487 50.2781 13.5066 50.2942 13.5262C50.5362 13.8254 50.7746 14.1283 51.0092 14.4361C51.0203 14.4508 51.0302 14.4643 51.0413 14.479C51.2797 14.7929 51.5155 15.1093 51.7465 15.4306C51.7514 15.4379 51.7564 15.4453 51.7613 15.4526C51.9959 15.7788 52.2269 16.1099 52.4541 16.4434C52.4553 16.4459 52.4566 16.4471 52.4578 16.4495C52.6838 16.7819 52.9036 17.1178 53.121 17.4563C53.1284 17.4673 53.1358 17.4784 53.142 17.4894C53.3544 17.8205 53.5618 18.1565 53.7644 18.4937C53.7755 18.5121 53.7866 18.5305 53.7977 18.5476C53.9965 18.8799 54.1917 19.2135 54.3831 19.5507C54.3967 19.5752 54.4115 19.5997 54.4251 19.6242C54.6128 19.9553 54.7943 20.2901 54.9734 20.6261C54.9894 20.6567 55.0055 20.6874 55.0228 20.7168C55.1981 21.0479 55.3686 21.3827 55.5353 21.7174C55.5526 21.753 55.5699 21.7873 55.5871 21.8216C55.7514 22.154 55.9107 22.4875 56.0663 22.8235C56.0836 22.8603 56.1009 22.8983 56.1182 22.9351C56.2972 23.3238 56.4701 23.7149 56.6368 24.1073C56.643 24.122 56.6504 24.138 56.6566 24.1527C56.8283 24.5586 56.9937 24.9669 57.1518 25.3753C57.1592 25.3924 57.1654 25.4108 57.1716 25.428C57.3235 25.8204 57.468 26.214 57.6063 26.6088C57.6186 26.6456 57.631 26.6812 57.6446 26.718C57.7767 27.0956 57.9014 27.4746 58.0212 27.8535C58.0373 27.9025 58.0521 27.9516 58.0669 28.0006C58.162 28.3059 58.2534 28.6113 58.3398 28.9166C58.3522 28.9595 58.3633 29.0024 58.3756 29.0453C58.4646 29.3642 58.551 29.683 58.63 30.0018C58.6325 30.0116 58.635 30.0214 58.6374 30.0312C58.7165 30.3488 58.7906 30.6652 58.861 30.9816C58.8684 31.0171 58.877 31.0515 58.8844 31.087C58.9511 31.3936 59.0129 31.7014 59.0709 32.0067C59.0808 32.0594 59.0907 32.1109 59.1005 32.1636C59.1537 32.4543 59.203 32.7449 59.2487 33.0343C59.2574 33.087 59.2648 33.1397 59.2722 33.1924C59.3167 33.4892 59.3574 33.7859 59.3932 34.0802C59.3969 34.1072 59.3994 34.1342 59.4019 34.1612C59.4365 34.4518 59.4649 34.7399 59.4908 35.0281C59.4933 35.06 59.497 35.0931 59.4994 35.125C59.5241 35.4156 59.5427 35.705 59.5575 35.9944C59.5612 36.0557 59.5637 36.1182 59.5674 36.1795C59.5735 36.3218 59.5785 36.464 59.5822 36.6063C59.5846 36.6737 59.5871 36.7399 59.5883 36.8074C59.5933 37.0146 59.5958 37.2206 59.5945 37.4266C59.5945 37.6866 59.5871 37.9379 59.5785 38.1856C59.576 38.2641 59.5711 38.3389 59.5674 38.4162C59.5587 38.5866 59.5488 38.7546 59.5365 38.9202C59.5303 39.0035 59.5229 39.0869 59.5155 39.1691C59.5007 39.3297 59.4846 39.4879 59.4661 39.6449C59.4574 39.7172 59.45 39.7908 59.4402 39.8631C59.413 40.0716 59.3834 40.2764 59.35 40.4775C59.3475 40.4909 59.3463 40.5057 59.3438 40.5191C59.3068 40.7337 59.266 40.9422 59.2228 41.1482C59.2092 41.2107 59.1944 41.2721 59.1808 41.3346C59.1487 41.4781 59.1141 41.6215 59.0783 41.7625C59.0598 41.8324 59.0425 41.9011 59.024 41.9698C58.9869 42.1071 58.9474 42.2432 58.9067 42.3769C58.8881 42.437 58.8708 42.4983 58.8511 42.5584C58.793 42.7398 58.7325 42.9201 58.6683 43.0967C58.6659 43.1053 58.6634 43.1126 58.6597 43.1212C58.5918 43.3064 58.5201 43.4891 58.4473 43.6706C58.4238 43.727 58.4003 43.7821 58.3769 43.8385C58.3238 43.9648 58.2694 44.0911 58.2126 44.215C58.1842 44.2763 58.1558 44.3388 58.1274 44.4002C58.0694 44.524 58.0113 44.6454 57.9508 44.768C57.9237 44.822 57.8977 44.8772 57.8693 44.9311C57.7841 45.0991 57.6964 45.2671 57.605 45.4339C57.6026 45.4388 57.6001 45.4437 57.5976 45.4474C57.5038 45.6203 57.4062 45.7919 57.3062 45.9636C57.2753 46.0175 57.2432 46.0715 57.2111 46.1255C57.1407 46.2456 57.0691 46.3658 56.995 46.486C56.9579 46.5461 56.9221 46.6061 56.8838 46.6662C56.8085 46.7876 56.7332 46.9078 56.6554 47.0304C56.622 47.0831 56.5887 47.1346 56.5553 47.1874C56.4454 47.359 56.3331 47.5307 56.2182 47.7048L60.8616 45.0255C60.9764 44.8514 61.0888 44.6797 61.1987 44.5081C61.2321 44.4553 61.2654 44.4026 61.2987 44.3511C61.3765 44.2297 61.4519 44.1083 61.5272 43.9881H61.5371Z" fill="#A492FF"/>
</g>
<defs>
<clipPath id="clip0_6848_6332">
<rect width="82" height="100" fill="white"/>
</clipPath>
</defs>
</svg>
