<svg width="24" height="24" viewBox="0 0 24 24" fill="none" xmlns="http://www.w3.org/2000/svg">
<path d="M4.75001 9C4.75001 9.41421 5.08579 9.75 5.50001 9.75C5.91422 9.75 6.25001 9.41421 6.25001 9H4.75001ZM13.75 9C13.75 9.41421 14.0858 9.75 14.5 9.75C14.9142 9.75 15.25 9.41421 15.25 9H13.75ZM2 9V8.25H1.25V9H2ZM2 22H1.25V22.75H2V22ZM18 9H18.75V8.25H18V9ZM6.25001 9V6.5H4.75001V9H6.25001ZM13.75 6.5V9H15.25V6.5H13.75ZM10 2.75C12.0711 2.75 13.75 4.42893 13.75 6.5H15.25C15.25 3.6005 12.8995 1.25 10 1.25V2.75ZM6.25001 6.5C6.25001 4.42893 7.92894 2.75 10 2.75V1.25C7.10051 1.25 4.75001 3.6005 4.75001 6.5H6.25001ZM1.25 9V22H2.75V9H1.25ZM2 22.75H8V21.25H2V22.75ZM18 8.25H2V9.75H18V8.25ZM17.25 9V11H18.75V9H17.25Z" fill="#E0E0E0"/>
<path d="M19.6137 13.4993L20.144 12.969C19.8511 12.6761 19.3762 12.6761 19.0833 12.969L19.6137 13.4993ZM14.3152 20.8178C13.7284 21.3941 12.7713 21.3941 12.1844 20.8178L11.1335 21.8881C12.3039 23.0373 14.1958 23.0373 15.3662 21.8881L14.3152 20.8178ZM12.1844 20.8178C11.6052 20.2491 11.6052 19.3327 12.1844 18.764L11.1335 17.6937C9.9555 18.8504 9.9555 20.7315 11.1335 21.8881L12.1844 20.8178ZM12.1844 18.764C12.7713 18.1878 13.7284 18.1878 14.3152 18.764L15.3662 17.6937C14.1958 16.5445 12.3039 16.5445 11.1335 17.6937L12.1844 18.764ZM14.3152 18.764C14.8945 19.3327 14.8945 20.2491 14.3152 20.8178L15.3662 21.8881C16.5441 20.7315 16.5441 18.8504 15.3662 17.6937L14.3152 18.764ZM15.3661 18.764L17.7528 16.4207L16.702 15.3504L14.3152 17.6937L15.3661 18.764ZM16.7019 16.4207L18.2928 17.9828L19.3437 16.9125L17.7529 15.3504L16.7019 16.4207ZM17.7577 16.4159L20.144 14.0296L19.0833 12.969L16.6971 15.3552L17.7577 16.4159ZM19.0833 14.0296L21.4697 16.4159L22.5303 15.3552L20.144 12.969L19.0833 14.0296Z" fill="#E0E0E0"/>
</svg>
