<svg width="56" height="56" viewBox="0 0 56 56" fill="none" xmlns="http://www.w3.org/2000/svg">
<path d="M7 16.3333V11.6667C7 10.429 7.49167 9.242 8.36683 8.36683C9.242 7.49167 10.429 7 11.6667 7H16.3333M39.6667 7H44.3333C45.571 7 46.758 7.49167 47.6332 8.36683C48.5083 9.242 49 10.429 49 11.6667V16.3333M49 39.6667V44.3333C49 45.571 48.5083 46.758 47.6332 47.6332C46.758 48.5083 45.571 49 44.3333 49H39.6667M16.3333 49H11.6667C10.429 49 9.242 48.5083 8.36683 47.6332C7.49167 46.758 7 45.571 7 44.3333V39.6667" stroke="black" stroke-width="2" stroke-linecap="round" stroke-linejoin="round"/>
<path d="M20.8 23.6C20.8 23.9713 20.6525 24.3274 20.3899 24.5899C20.1274 24.8525 19.7713 25 19.4 25C19.0287 25 18.6726 24.8525 18.4101 24.5899C18.1475 24.3274 18 23.9713 18 23.6C18 21.0009 19.0325 18.5082 20.8704 16.6703C22.7082 14.8325 25.2009 13.8 27.8 13.8C30.3991 13.8 32.8918 14.8325 34.7296 16.6703C36.5675 18.5082 37.6 21.0009 37.6 23.6V26.4C37.6 26.7713 37.4525 27.1274 37.1899 27.3899C36.9274 27.6525 36.5713 27.8 36.2 27.8C35.8287 27.8 35.4726 27.6525 35.21 27.3899C34.9475 27.1274 34.8 26.7713 34.8 26.4V23.6C34.8 21.7435 34.0625 19.963 32.7497 18.6502C31.437 17.3375 29.6565 16.6 27.8 16.6C25.9435 16.6 24.163 17.3375 22.8503 18.6502C21.5375 19.963 20.8 21.7435 20.8 23.6ZM25 27.8C25 28.1713 24.8525 28.5274 24.5899 28.7899C24.3274 29.0525 23.9713 29.2 23.6 29.2C23.2287 29.2 22.8726 29.0525 22.6101 28.7899C22.3475 28.5274 22.2 28.1713 22.2 27.8V23.6C22.2 22.1148 22.79 20.6904 23.8402 19.6402C24.8904 18.59 26.3148 18 27.8 18C29.2852 18 30.7096 18.59 31.7598 19.6402C32.81 20.6904 33.4 22.1148 33.4 23.6C33.4 23.9713 33.2525 24.3274 32.9899 24.5899C32.7274 24.8525 32.3713 25 32 25C31.6287 25 31.2726 24.8525 31.01 24.5899C30.7475 24.3274 30.6 23.9713 30.6 23.6C30.6 22.8574 30.305 22.1452 29.7799 21.6201C29.2548 21.095 28.5426 20.8 27.8 20.8C27.0574 20.8 26.3452 21.095 25.8201 21.6201C25.295 22.1452 25 22.8574 25 23.6V27.8ZM22.2 32C22.2 31.6287 22.3475 31.2726 22.6101 31.01C22.8726 30.7475 23.2287 30.6 23.6 30.6C23.9713 30.6 24.3274 30.7475 24.5899 31.01C24.8525 31.2726 25 31.6287 25 32C25 32.7426 25.295 33.4548 25.8201 33.9799C26.3452 34.505 27.0574 34.8 27.8 34.8C28.5426 34.8 29.2548 34.505 29.7799 33.9799C30.305 33.4548 30.6 32.7426 30.6 32V27.8C30.6 27.4287 30.7475 27.0726 31.01 26.81C31.2726 26.5475 31.6287 26.4 32 26.4C32.3713 26.4 32.7274 26.5475 32.9899 26.81C33.2525 27.0726 33.4 27.4287 33.4 27.8V32C33.4 33.4852 32.81 34.9096 31.7598 35.9598C30.7096 37.01 29.2852 37.6 27.8 37.6C26.3148 37.6 24.8904 37.01 23.8402 35.9598C22.79 34.9096 22.2 33.4852 22.2 32ZM26.4 25C26.4 24.6287 26.5475 24.2726 26.8101 24.01C27.0726 23.7475 27.4287 23.6 27.8 23.6C28.1713 23.6 28.5274 23.7475 28.7899 24.01C29.0525 24.2726 29.2 24.6287 29.2 25V30.6C29.2 30.9713 29.0525 31.3274 28.7899 31.5899C28.5274 31.8525 28.1713 32 27.8 32C27.4287 32 27.0726 31.8525 26.8101 31.5899C26.5475 31.3274 26.4 30.9713 26.4 30.6V25ZM18 29.2C18 28.8287 18.1475 28.4726 18.4101 28.21C18.6726 27.9475 19.0287 27.8 19.4 27.8C19.7713 27.8 20.1274 27.9475 20.3899 28.21C20.6525 28.4726 20.8 28.8287 20.8 29.2V32C20.8 33.8565 21.5375 35.637 22.8503 36.9497C24.163 38.2625 25.9435 39 27.8 39C29.6565 39 31.437 38.2625 32.7497 36.9497C34.0625 35.637 34.8 33.8565 34.8 32C34.8 31.6287 34.9475 31.2726 35.21 31.01C35.4726 30.7475 35.8287 30.6 36.2 30.6C36.5713 30.6 36.9274 30.7475 37.1899 31.01C37.4525 31.2726 37.6 31.6287 37.6 32C37.6 34.5991 36.5675 37.0918 34.7296 38.9296C32.8918 40.7675 30.3991 41.8 27.8 41.8C25.2009 41.8 22.7082 40.7675 20.8704 38.9296C19.0325 37.0918 18 34.5991 18 32V29.2Z" fill="#34A853"/>
</svg>
