<svg width="24" height="24" viewBox="0 0 24 24" fill="none" xmlns="http://www.w3.org/2000/svg">
<path d="M7.99999 22V22.75H8.31065L8.53032 22.5303L7.99999 22ZM22 8L22.5303 8.53033C22.8232 8.23744 22.8232 7.76256 22.5303 7.46967L22 8ZM2.00092 16L1.47057 15.4697L1.25092 15.6894V16H2.00092ZM16 2L16.5303 1.46967C16.3897 1.32901 16.1989 1.25 16 1.25C15.8011 1.25 15.6103 1.32903 15.4696 1.46969L16 2ZM2.00092 22H1.25092V22.75H2.00092V22ZM8.53032 22.5303L22.5303 8.53033L21.4697 7.46967L7.46966 21.4697L8.53032 22.5303ZM2.53126 16.5303L16.5303 2.53031L15.4696 1.46969L1.47057 15.4697L2.53126 16.5303ZM15.4697 2.53033L21.4697 8.53033L22.5303 7.46967L16.5303 1.46967L15.4697 2.53033ZM7.99999 21.25H2.00092V22.75H7.99999V21.25ZM2.75092 22V16H1.25092V22H2.75092Z" fill="#E0E0E0"/>
<path d="M12.0009 6L18.0009 12" stroke="#E0E0E0" stroke-width="1.5" stroke-linejoin="round"/>
<path d="M13 22L22 22" stroke="#E0E0E0" stroke-width="1.5" stroke-linejoin="round"/>
</svg>
