<svg width="18" height="18" viewBox="0 0 18 18" fill="none" xmlns="http://www.w3.org/2000/svg">
<path d="M4.50811 9.89998C4.27105 9.89891 4.03612 9.94469 3.81679 10.0347C3.59747 10.1246 3.39809 10.2571 3.23008 10.4243C3.06208 10.5916 2.92876 10.7904 2.8378 11.0093C2.74684 11.2282 2.70001 11.4629 2.70001 11.7C2.70001 13.2219 3.44971 14.3694 4.62151 15.1173C5.77531 15.8526 7.33051 16.2 9.00001 16.2C10.6695 16.2 12.2247 15.8526 13.3785 15.1173C14.5503 14.3703 15.3 13.221 15.3 11.7C15.3 11.2226 15.1104 10.7648 14.7728 10.4272C14.4352 10.0896 13.9774 9.89998 13.5 9.89998H4.50811Z" fill="url(#paint0_linear_6848_7667)"/>
<path d="M4.50811 9.89998C4.27105 9.89891 4.03612 9.94469 3.81679 10.0347C3.59747 10.1246 3.39809 10.2571 3.23008 10.4243C3.06208 10.5916 2.92876 10.7904 2.8378 11.0093C2.74684 11.2282 2.70001 11.4629 2.70001 11.7C2.70001 13.2219 3.44971 14.3694 4.62151 15.1173C5.77531 15.8526 7.33051 16.2 9.00001 16.2C10.6695 16.2 12.2247 15.8526 13.3785 15.1173C14.5503 14.3703 15.3 13.221 15.3 11.7C15.3 11.2226 15.1104 10.7648 14.7728 10.4272C14.4352 10.0896 13.9774 9.89998 13.5 9.89998H4.50811Z" fill="url(#paint1_linear_6848_7667)"/>
<path d="M9.00002 1.79999C8.04525 1.79999 7.12957 2.17927 6.45444 2.8544C5.77931 3.52953 5.40002 4.44521 5.40002 5.39999C5.40002 6.35477 5.77931 7.27044 6.45444 7.94557C7.12957 8.6207 8.04525 8.99999 9.00002 8.99999C9.9548 8.99999 10.8705 8.6207 11.5456 7.94557C12.2207 7.27044 12.6 6.35477 12.6 5.39999C12.6 4.44521 12.2207 3.52953 11.5456 2.8544C10.8705 2.17927 9.9548 1.79999 9.00002 1.79999Z" fill="url(#paint2_linear_6848_7667)"/>
<defs>
<linearGradient id="paint0_linear_6848_7667" x1="5.69611" y1="10.7379" x2="7.73191" y2="17.2377" gradientUnits="userSpaceOnUse">
<stop offset="0.125" stop-color="#9C6CFE"/>
<stop offset="1" stop-color="#7A41DC"/>
</linearGradient>
<linearGradient id="paint1_linear_6848_7667" x1="9.00001" y1="9.15028" x2="11.8503" y2="19.8" gradientUnits="userSpaceOnUse">
<stop stop-color="#885EDB" stop-opacity="0"/>
<stop offset="1" stop-color="#E362F8"/>
</linearGradient>
<linearGradient id="paint2_linear_6848_7667" x1="7.11182" y1="2.75669" x2="10.7811" y2="8.61659" gradientUnits="userSpaceOnUse">
<stop offset="0.125" stop-color="#9C6CFE"/>
<stop offset="1" stop-color="#7A41DC"/>
</linearGradient>
</defs>
</svg>
