<svg width="30" height="30" viewBox="0 0 30 30" fill="none" xmlns="http://www.w3.org/2000/svg">
<path d="M8.75 11.25C8.75 11.5815 8.6183 11.8995 8.38388 12.1339C8.14946 12.3683 7.83152 12.5 7.5 12.5C7.16848 12.5 6.85054 12.3683 6.61612 12.1339C6.3817 11.8995 6.25 11.5815 6.25 11.25C6.25 8.92936 7.17187 6.70376 8.81282 5.06282C10.4538 3.42187 12.6794 2.5 15 2.5C17.3206 2.5 19.5462 3.42187 21.1872 5.06282C22.8281 6.70376 23.75 8.92936 23.75 11.25V13.75C23.75 14.0815 23.6183 14.3995 23.3839 14.6339C23.1495 14.8683 22.8315 15 22.5 15C22.1685 15 21.8505 14.8683 21.6161 14.6339C21.3817 14.3995 21.25 14.0815 21.25 13.75V11.25C21.25 9.5924 20.5915 8.00269 19.4194 6.83058C18.2473 5.65848 16.6576 5 15 5C13.3424 5 11.7527 5.65848 10.5806 6.83058C9.40848 8.00269 8.75 9.5924 8.75 11.25ZM12.5 15C12.5 15.3315 12.3683 15.6495 12.1339 15.8839C11.8995 16.1183 11.5815 16.25 11.25 16.25C10.9185 16.25 10.6005 16.1183 10.3661 15.8839C10.1317 15.6495 10 15.3315 10 15V11.25C10 9.92392 10.5268 8.65215 11.4645 7.71447C12.4021 6.77678 13.6739 6.25 15 6.25C16.3261 6.25 17.5979 6.77678 18.5355 7.71447C19.4732 8.65215 20 9.92392 20 11.25C20 11.5815 19.8683 11.8995 19.6339 12.1339C19.3995 12.3683 19.0815 12.5 18.75 12.5C18.4185 12.5 18.1005 12.3683 17.8661 12.1339C17.6317 11.8995 17.5 11.5815 17.5 11.25C17.5 10.587 17.2366 9.95107 16.7678 9.48223C16.2989 9.01339 15.663 8.75 15 8.75C14.337 8.75 13.7011 9.01339 13.2322 9.48223C12.7634 9.95107 12.5 10.587 12.5 11.25V15ZM10 18.75C10 18.4185 10.1317 18.1005 10.3661 17.8661C10.6005 17.6317 10.9185 17.5 11.25 17.5C11.5815 17.5 11.8995 17.6317 12.1339 17.8661C12.3683 18.1005 12.5 18.4185 12.5 18.75C12.5 19.413 12.7634 20.0489 13.2322 20.5178C13.7011 20.9866 14.337 21.25 15 21.25C15.663 21.25 16.2989 20.9866 16.7678 20.5178C17.2366 20.0489 17.5 19.413 17.5 18.75V15C17.5 14.6685 17.6317 14.3505 17.8661 14.1161C18.1005 13.8817 18.4185 13.75 18.75 13.75C19.0815 13.75 19.3995 13.8817 19.6339 14.1161C19.8683 14.3505 20 14.6685 20 15V18.75C20 20.0761 19.4732 21.3479 18.5355 22.2855C17.5979 23.2232 16.3261 23.75 15 23.75C13.6739 23.75 12.4021 23.2232 11.4645 22.2855C10.5268 21.3479 10 20.0761 10 18.75ZM13.75 12.5C13.75 12.1685 13.8817 11.8505 14.1161 11.6161C14.3505 11.3817 14.6685 11.25 15 11.25C15.3315 11.25 15.6495 11.3817 15.8839 11.6161C16.1183 11.8505 16.25 12.1685 16.25 12.5V17.5C16.25 17.8315 16.1183 18.1495 15.8839 18.3839C15.6495 18.6183 15.3315 18.75 15 18.75C14.6685 18.75 14.3505 18.6183 14.1161 18.3839C13.8817 18.1495 13.75 17.8315 13.75 17.5V12.5ZM6.25 16.25C6.25 15.9185 6.3817 15.6005 6.61612 15.3661C6.85054 15.1317 7.16848 15 7.5 15C7.83152 15 8.14946 15.1317 8.38388 15.3661C8.6183 15.6005 8.75 15.9185 8.75 16.25V18.75C8.75 20.4076 9.40848 21.9973 10.5806 23.1694C11.7527 24.3415 13.3424 25 15 25C16.6576 25 18.2473 24.3415 19.4194 23.1694C20.5915 21.9973 21.25 20.4076 21.25 18.75C21.25 18.4185 21.3817 18.1005 21.6161 17.8661C21.8505 17.6317 22.1685 17.5 22.5 17.5C22.8315 17.5 23.1495 17.6317 23.3839 17.8661C23.6183 18.1005 23.75 18.4185 23.75 18.75C23.75 21.0706 22.8281 23.2962 21.1872 24.9372C19.5462 26.5781 17.3206 27.5 15 27.5C12.6794 27.5 10.4538 26.5781 8.81282 24.9372C7.17187 23.2962 6.25 21.0706 6.25 18.75V16.25Z" fill="url(#paint0_linear_6848_7960)"/>
<defs>
<linearGradient id="paint0_linear_6848_7960" x1="15" y1="2.5" x2="15" y2="27.5" gradientUnits="userSpaceOnUse">
<stop stop-color="#5315B2"/>
<stop offset="0.734" stop-color="#C564FD"/>
</linearGradient>
</defs>
</svg>
