<svg width="35" height="26" viewBox="0 0 35 26" fill="none" xmlns="http://www.w3.org/2000/svg">
<g clip-path="url(#clip0_6846_1858)">
<path d="M7.95629 25.872V12.5474L3.76321 8.76686L0.00317383 6.66895V23.5206C0.00317383 24.8217 1.0728 25.872 2.38916 25.872H7.95629Z" fill="#4285F4"/>
<path d="M27.0437 25.8719H32.6108C33.9312 25.8719 34.9968 24.8176 34.9968 23.5204V6.66895L30.738 9.07186L27.0437 12.5472V25.8719Z" fill="#34A853"/>
<path d="M7.9563 12.5472L7.38574 7.34088L7.9563 2.35791L17.5 9.41213L27.0437 2.35791L27.6819 7.07186L27.0437 12.5472L17.5 19.6014L7.9563 12.5472Z" fill="#EA4335"/>
<path d="M27.0437 2.35801V12.5473L34.9968 6.66889V3.53367C34.9968 0.625845 31.6287 -1.03182 29.2707 0.712062L27.0437 2.35801Z" fill="#FBBC04"/>
<path d="M0.00317383 6.66895L3.66096 9.37268L7.95629 12.5474V2.35807L5.72928 0.712124C3.36721 -1.0319 0.00317383 0.625906 0.00317383 3.5336V6.66895Z" fill="#C5221F"/>
</g>
<defs>
<clipPath id="clip0_6846_1858">
<rect width="35" height="26" fill="white"/>
</clipPath>
</defs>
</svg>
