<svg width="18" height="18" viewBox="0 0 18 18" fill="none" xmlns="http://www.w3.org/2000/svg">
<path fill-rule="evenodd" clip-rule="evenodd" d="M9 14.25C9.68944 14.25 10.3721 14.1142 11.0091 13.8504C11.646 13.5865 12.2248 13.1998 12.7123 12.7123C13.1998 12.2248 13.5865 11.646 13.8504 11.0091C14.1142 10.3721 14.25 9.68944 14.25 9C14.25 8.31056 14.1142 7.62787 13.8504 6.99091C13.5865 6.35395 13.1998 5.7752 12.7123 5.28769C12.2248 4.80018 11.646 4.41347 11.0091 4.14963C10.3721 3.8858 9.68944 3.75 9 3.75C7.60761 3.75 6.27226 4.30312 5.28769 5.28769C4.30312 6.27226 3.75 7.60761 3.75 9C3.75 10.3924 4.30312 11.7277 5.28769 12.7123C6.27226 13.6969 7.60761 14.25 9 14.25ZM7.56525 5.535C8.02015 5.34674 8.50768 5.2499 9 5.25C9.09946 5.25 9.19484 5.21049 9.26517 5.14016C9.33549 5.06984 9.375 4.97446 9.375 4.875C9.375 4.77554 9.33549 4.68016 9.26517 4.60984C9.19484 4.53951 9.09946 4.5 9 4.5C7.80653 4.5 6.66193 4.97411 5.81802 5.81802C4.97411 6.66193 4.5 7.80653 4.5 9C4.5 9.09946 4.53951 9.19484 4.60984 9.26517C4.68016 9.33549 4.77554 9.375 4.875 9.375C4.97446 9.375 5.06984 9.33549 5.14016 9.26517C5.21049 9.19484 5.25 9.09946 5.25 9C5.24994 8.25821 5.46987 7.53306 5.88199 6.91628C6.29411 6.29951 6.8799 5.81881 7.56525 5.535Z" fill="#E0E0E0"/>
<path d="M15.375 15.375L12.75 12.75" stroke="#E0E0E0" stroke-linecap="round"/>
<path d="M8.25 14.625C11.7708 14.625 14.625 11.7708 14.625 8.25C14.625 4.72918 11.7708 1.875 8.25 1.875C4.72918 1.875 1.875 4.72918 1.875 8.25C1.875 11.7708 4.72918 14.625 8.25 14.625Z" stroke="#E0E0E0"/>
</svg>
