<svg width="30" height="30" viewBox="0 0 30 30" fill="none" xmlns="http://www.w3.org/2000/svg">
<path d="M15 18.75C17.0711 18.75 18.75 17.0711 18.75 15C18.75 12.9289 17.0711 11.25 15 11.25C12.9289 11.25 11.25 12.9289 11.25 15C11.25 17.0711 12.9289 18.75 15 18.75Z" stroke="url(#paint0_linear_6848_6644)" stroke-width="1.5"/>
<path d="M4.5762 13.3C5.16745 13.67 5.54745 14.3025 5.54745 15C5.54745 15.6975 5.16745 16.33 4.5762 16.7C4.17495 16.9537 3.91495 17.155 3.7312 17.395C3.53132 17.6555 3.38472 17.9529 3.29979 18.2701C3.21485 18.5873 3.19325 18.9182 3.2362 19.2438C3.3012 19.7363 3.59245 20.2413 4.1737 21.25C4.75745 22.2587 5.0487 22.7625 5.44245 23.0662C5.703 23.2661 6.00037 23.4127 6.31758 23.4977C6.6348 23.5826 6.96564 23.6042 7.2912 23.5613C7.5912 23.5213 7.89495 23.3988 8.31495 23.1763C8.61564 23.0121 8.95305 22.9269 9.29562 22.9287C9.63819 22.9304 9.97471 23.019 10.2737 23.1862C10.8775 23.5362 11.2362 24.18 11.2612 24.8775C11.2787 25.3525 11.3237 25.6775 11.44 25.9562C11.5656 26.2598 11.7498 26.5356 11.9821 26.7678C12.2144 27.0001 12.4902 27.1844 12.7937 27.31C13.2525 27.5 13.835 27.5 15 27.5C16.165 27.5 16.7475 27.5 17.2062 27.31C17.5097 27.1844 17.7855 27.0001 18.0178 26.7678C18.2501 26.5356 18.4343 26.2598 18.56 25.9562C18.675 25.6775 18.7212 25.3525 18.7387 24.8775C18.7637 24.18 19.1225 23.535 19.7262 23.1862C20.0252 23.019 20.3617 22.9304 20.7043 22.9287C21.0469 22.9269 21.3843 23.0121 21.685 23.1763C22.105 23.3988 22.41 23.5213 22.71 23.5613C23.3671 23.6477 24.0316 23.4696 24.5575 23.0662C24.9512 22.7637 25.2425 22.2587 25.825 21.25C26.085 20.8 26.2862 20.4513 26.4362 20.1588M25.4237 16.7013C25.1313 16.5231 24.8888 16.2737 24.719 15.9764C24.5491 15.6791 24.4574 15.3436 24.4525 15.0013C24.4525 14.3025 24.8325 13.67 25.4237 13.2987C25.825 13.0462 26.0837 12.845 26.2687 12.605C26.4686 12.3445 26.6152 12.0471 26.7001 11.7299C26.7851 11.4127 26.8067 11.0818 26.7637 10.7562C26.6987 10.2637 26.4075 9.75875 25.8262 8.75C25.2425 7.74125 24.9512 7.2375 24.5575 6.93375C24.2969 6.73386 23.9995 6.58727 23.6823 6.50233C23.3651 6.4174 23.0343 6.39579 22.7087 6.43875C22.4087 6.47875 22.105 6.60125 21.6837 6.82375C21.3832 6.98768 21.046 7.07274 20.7037 7.07099C20.3613 7.06925 20.025 6.98074 19.7262 6.81375C19.432 6.63836 19.1871 6.39122 19.0144 6.09544C18.8417 5.79966 18.7468 5.46491 18.7387 5.1225C18.7212 4.6475 18.6762 4.3225 18.56 4.04375C18.4343 3.74023 18.2501 3.46444 18.0178 3.23215C17.7855 2.99987 17.5097 2.81564 17.2062 2.69C16.7475 2.5 16.165 2.5 15 2.5C13.835 2.5 13.2525 2.5 12.7937 2.69C12.4902 2.81564 12.2144 2.99987 11.9821 3.23215C11.7498 3.46444 11.5656 3.74023 11.44 4.04375C11.325 4.3225 11.2787 4.6475 11.2612 5.1225C11.2531 5.46491 11.1582 5.79966 10.9855 6.09544C10.8128 6.39122 10.5679 6.63836 10.2737 6.81375C9.97471 6.98096 9.63819 7.06959 9.29562 7.07134C8.95305 7.07309 8.61564 6.9879 8.31495 6.82375C7.89495 6.60125 7.58995 6.47875 7.28995 6.43875C6.63285 6.35234 5.96833 6.53038 5.44245 6.93375C5.04995 7.2375 4.75745 7.74125 4.17495 8.75C3.91495 9.2 3.7137 9.54875 3.5637 9.84125" stroke="url(#paint1_linear_6848_6644)" stroke-width="1.5" stroke-linecap="round"/>
<defs>
<linearGradient id="paint0_linear_6848_6644" x1="15" y1="11.25" x2="15" y2="18.75" gradientUnits="userSpaceOnUse">
<stop offset="0.19" stop-color="#C564FD"/>
<stop offset="1" stop-color="#5315B2"/>
</linearGradient>
<linearGradient id="paint1_linear_6848_6644" x1="15" y1="2.5" x2="15" y2="27.5" gradientUnits="userSpaceOnUse">
<stop offset="0.19" stop-color="#C564FD"/>
<stop offset="1" stop-color="#5315B2"/>
</linearGradient>
</defs>
</svg>
