<svg width="18" height="18" viewBox="0 0 18 18" fill="none" xmlns="http://www.w3.org/2000/svg">
<path d="M10.5 14.25C10.5 13.4216 9.82843 12.75 9 12.75C8.17157 12.75 7.5 13.4216 7.5 14.25C7.5 15.0784 8.17157 15.75 9 15.75C9.82843 15.75 10.5 15.0784 10.5 14.25Z" stroke="#E0E0E0" stroke-width="1.5"/>
<path opacity="0.5" d="M10.5 9C10.5 8.17157 9.82843 7.5 9 7.5C8.17157 7.5 7.5 8.17157 7.5 9C7.5 9.82843 8.17157 10.5 9 10.5C9.82843 10.5 10.5 9.82843 10.5 9Z" stroke="#E0E0E0" stroke-width="1.5"/>
<path d="M10.5 3.75C10.5 2.92157 9.82843 2.25 9 2.25C8.17157 2.25 7.5 2.92157 7.5 3.75C7.5 4.57843 8.17157 5.25 9 5.25C9.82843 5.25 10.5 4.57843 10.5 3.75Z" stroke="#E0E0E0" stroke-width="1.5"/>
</svg>
