<svg width="24" height="24" viewBox="0 0 24 24" fill="none" xmlns="http://www.w3.org/2000/svg">
<path opacity="0.2" d="M15.75 13.5C15.75 14.2417 15.5301 14.9667 15.118 15.5834C14.706 16.2001 14.1203 16.6807 13.4351 16.9645C12.7498 17.2484 11.9958 17.3226 11.2684 17.1779C10.541 17.0333 9.8728 16.6761 9.34835 16.1517C8.8239 15.6272 8.46675 14.959 8.32206 14.2316C8.17736 13.5042 8.25162 12.7502 8.53545 12.0649C8.81928 11.3797 9.29993 10.794 9.91661 10.382C10.5333 9.96993 11.2583 9.75 12 9.75C12.9946 9.75 13.9484 10.1451 14.6517 10.8483C15.3549 11.5516 15.75 12.5054 15.75 13.5ZM6 5.25C5.40666 5.25 4.82664 5.42595 4.33329 5.75559C3.83994 6.08524 3.45543 6.55377 3.22836 7.10195C3.0013 7.65013 2.94189 8.25333 3.05765 8.83527C3.1734 9.41721 3.45912 9.95176 3.87868 10.3713C4.29824 10.7909 4.83279 11.0766 5.41473 11.1924C5.99667 11.3081 6.59987 11.2487 7.14805 11.0216C7.69623 10.7946 8.16477 10.4101 8.49441 9.91671C8.82405 9.42336 9 8.84334 9 8.25C9 7.45435 8.68393 6.69129 8.12132 6.12868C7.55871 5.56607 6.79565 5.25 6 5.25ZM18 5.25C17.4067 5.25 16.8266 5.42595 16.3333 5.75559C15.8399 6.08524 15.4554 6.55377 15.2284 7.10195C15.0013 7.65013 14.9419 8.25333 15.0576 8.83527C15.1734 9.41721 15.4591 9.95176 15.8787 10.3713C16.2982 10.7909 16.8328 11.0766 17.4147 11.1924C17.9967 11.3081 18.5999 11.2487 19.1481 11.0216C19.6962 10.7946 20.1648 10.4101 20.4944 9.91671C20.8241 9.42336 21 8.84334 21 8.25C21 7.45435 20.6839 6.69129 20.1213 6.12868C19.5587 5.56607 18.7957 5.25 18 5.25Z" fill="#E0E0E0"/>
<path d="M22.95 14.1002C22.8712 14.1593 22.7815 14.2023 22.6861 14.2267C22.5907 14.2511 22.4914 14.2566 22.3939 14.2426C22.2964 14.2287 22.2026 14.1957 22.1179 14.1455C22.0331 14.0953 21.9591 14.029 21.9 13.9502C21.4479 13.3425 20.8595 12.8495 20.1821 12.5108C19.5048 12.1721 18.7573 11.9972 18 12.0002C17.8011 12.0002 17.6103 11.9211 17.4696 11.7805C17.329 11.6398 17.25 11.4491 17.25 11.2502C17.25 11.0513 17.329 10.8605 17.4696 10.7198C17.6103 10.5792 17.8011 10.5002 18 10.5002C18.4208 10.5001 18.8332 10.3821 19.1903 10.1594C19.5473 9.93677 19.8348 9.61844 20.0201 9.24058C20.2053 8.86273 20.2809 8.4405 20.2382 8.02185C20.1955 7.6032 20.0362 7.20493 19.7785 6.87225C19.5208 6.53958 19.1749 6.28584 18.7803 6.13987C18.3856 5.9939 17.9579 5.96154 17.5457 6.04646C17.1335 6.13139 16.7535 6.3302 16.4486 6.62031C16.1438 6.91043 15.9264 7.28021 15.8212 7.68767C15.7966 7.78308 15.7534 7.87271 15.6942 7.95144C15.6349 8.03017 15.5607 8.09645 15.4758 8.14651C15.391 8.19656 15.2971 8.22941 15.1995 8.24318C15.1019 8.25694 15.0026 8.25135 14.9072 8.22673C14.8118 8.20211 14.7221 8.15893 14.6434 8.09967C14.5647 8.04041 14.4984 7.96622 14.4483 7.88134C14.3983 7.79646 14.3654 7.70256 14.3517 7.60498C14.3379 7.50741 14.3435 7.40808 14.3681 7.31267C14.5141 6.74765 14.79 6.22451 15.1738 5.78487C15.5576 5.34523 16.0386 5.00124 16.5788 4.78025C17.1189 4.55926 17.7031 4.46738 18.285 4.51191C18.8669 4.55645 19.4304 4.73618 19.9305 5.0368C20.4307 5.33742 20.8539 5.75063 21.1663 6.24356C21.4787 6.73648 21.6717 7.29552 21.73 7.87618C21.7884 8.45684 21.7104 9.0431 21.5022 9.58831C21.2941 10.1335 20.9616 10.6226 20.5312 11.0167C21.551 11.4583 22.4376 12.159 23.1028 13.0492C23.1619 13.1282 23.2048 13.2181 23.2291 13.3137C23.2534 13.4093 23.2586 13.5088 23.2444 13.6064C23.2302 13.704 23.1969 13.7979 23.1464 13.8826C23.0959 13.9673 23.0291 14.0413 22.95 14.1002ZM17.8987 19.8752C17.9511 19.9605 17.9858 20.0555 18.0009 20.1546C18.0159 20.2536 18.011 20.3546 17.9864 20.4517C17.9617 20.5488 17.9179 20.6399 17.8575 20.7198C17.7971 20.7997 17.7212 20.8666 17.6345 20.9167C17.5478 20.9668 17.4519 20.999 17.3525 21.0115C17.2532 21.0239 17.1523 21.0163 17.0559 20.9891C16.9595 20.962 16.8695 20.9158 16.7913 20.8532C16.713 20.7907 16.6481 20.7132 16.6003 20.6252C16.1278 19.8254 15.4549 19.1626 14.6481 18.7022C13.8413 18.2417 12.9284 17.9996 11.9995 17.9996C11.0706 17.9996 10.1577 18.2417 9.35088 18.7022C8.54408 19.1626 7.87124 19.8254 7.39873 20.6252C7.35184 20.7148 7.28731 20.794 7.20901 20.8581C7.13072 20.9221 7.04027 20.9696 6.94313 20.9978C6.84598 21.026 6.74414 21.0342 6.64373 21.022C6.54331 21.0099 6.4464 20.9775 6.35883 20.9268C6.27126 20.8762 6.19483 20.8084 6.13414 20.7275C6.07345 20.6466 6.02976 20.5542 6.0057 20.456C5.98163 20.3577 5.97769 20.2556 5.99411 20.1558C6.01052 20.056 6.04696 19.9605 6.10123 19.8752C6.82835 18.6258 7.93703 17.6427 9.26435 17.0702C8.51747 16.4983 7.96856 15.7068 7.69479 14.8069C7.42101 13.9069 7.43613 12.9438 7.73802 12.053C8.03991 11.1621 8.61339 10.3882 9.37785 9.84005C10.1423 9.29194 11.0593 8.99716 12 8.99716C12.9406 8.99716 13.8576 9.29194 14.6221 9.84005C15.3866 10.3882 15.96 11.1621 16.2619 12.053C16.5638 12.9438 16.5789 13.9069 16.3052 14.8069C16.0314 15.7068 15.4825 16.4983 14.7356 17.0702C16.0629 17.6427 17.1716 18.6258 17.8987 19.8752ZM12 16.5002C12.5933 16.5002 13.1733 16.3242 13.6667 15.9946C14.16 15.6649 14.5446 15.1964 14.7716 14.6482C14.9987 14.1 15.0581 13.4968 14.9423 12.9149C14.8266 12.333 14.5409 11.7984 14.1213 11.3788C13.7017 10.9593 13.1672 10.6736 12.5852 10.5578C12.0033 10.4421 11.4001 10.5015 10.8519 10.7285C10.3037 10.9556 9.83521 11.3401 9.50557 11.8335C9.17592 12.3268 8.99998 12.9068 8.99998 13.5002C8.99998 14.2958 9.31605 15.0589 9.87866 15.6215C10.4413 16.1841 11.2043 16.5002 12 16.5002ZM6.74998 11.2502C6.74998 11.0513 6.67096 10.8605 6.53031 10.7198C6.38965 10.5792 6.19889 10.5002 5.99998 10.5002C5.57916 10.5001 5.16679 10.3821 4.8097 10.1594C4.45261 9.93677 4.16512 9.61844 3.97988 9.24058C3.79464 8.86273 3.71909 8.4405 3.76179 8.02185C3.80449 7.6032 3.96374 7.20493 4.22145 6.87225C4.47916 6.53958 4.82501 6.28584 5.21969 6.13987C5.61438 5.9939 6.0421 5.96154 6.45426 6.04646C6.86642 6.13139 7.2465 6.3302 7.55133 6.62031C7.85616 6.91043 8.07352 7.28021 8.17873 7.68767C8.22845 7.88036 8.35269 8.04541 8.52411 8.14651C8.69553 8.2476 8.90009 8.27646 9.09279 8.22673C9.28548 8.177 9.45053 8.05276 9.55163 7.88134C9.65272 7.70992 9.68158 7.50536 9.63185 7.31267C9.48583 6.74765 9.20995 6.22451 8.82617 5.78487C8.44239 5.34523 7.9613 5.00124 7.42118 4.78025C6.88106 4.55926 6.29682 4.46738 5.71494 4.51191C5.13306 4.55645 4.5696 4.73618 4.06941 5.0368C3.56921 5.33742 3.14608 5.75063 2.83368 6.24356C2.52129 6.73648 2.32824 7.29552 2.26992 7.87618C2.21159 8.45684 2.28959 9.0431 2.4977 9.58831C2.70582 10.1335 3.03831 10.6226 3.46873 11.0167C2.44993 11.4587 1.5644 12.1594 0.899976 13.0492C0.84082 13.128 0.797762 13.2177 0.773262 13.3131C0.748761 13.4086 0.743297 13.5079 0.757183 13.6054C0.771068 13.703 0.80403 13.7968 0.854187 13.8816C0.904344 13.9664 0.970714 14.0405 1.04951 14.0997C1.1283 14.1589 1.21797 14.2019 1.31341 14.2264C1.40884 14.2509 1.50817 14.2564 1.60571 14.2425C1.70326 14.2286 1.79711 14.1956 1.88192 14.1455C1.96672 14.0953 2.04082 14.029 2.09998 13.9502C2.55203 13.3425 3.14043 12.8495 3.81781 12.5108C4.4952 12.1721 5.24264 11.9972 5.99998 12.0002C6.19889 12.0002 6.38965 11.9211 6.53031 11.7805C6.67096 11.6398 6.74998 11.4491 6.74998 11.2502Z" fill="#E0E0E0"/>
</svg>
