<svg width="30" height="30" viewBox="0 0 30 30" fill="none" xmlns="http://www.w3.org/2000/svg">
<path opacity="0.2" d="M19.6875 16.875C19.6875 17.8021 19.4126 18.7084 18.8975 19.4792C18.3824 20.2501 17.6503 20.8509 16.7938 21.2057C15.9373 21.5605 14.9948 21.6533 14.0855 21.4724C13.1762 21.2916 12.341 20.8451 11.6854 20.1896C11.0298 19.534 10.5834 18.6988 10.4025 17.7895C10.2217 16.8802 10.3145 15.9377 10.6693 15.0812C11.0241 14.2246 11.6249 13.4926 12.3957 12.9775C13.1666 12.4624 14.0729 12.1875 15 12.1875C16.2432 12.1875 17.4355 12.6814 18.3145 13.5604C19.1936 14.4395 19.6875 15.6318 19.6875 16.875ZM7.49997 6.5625C6.75829 6.5625 6.03327 6.78243 5.41658 7.19449C4.7999 7.60654 4.31925 8.19221 4.03542 8.87744C3.75159 9.56266 3.67733 10.3167 3.82203 11.0441C3.96672 11.7715 4.32387 12.4397 4.84832 12.9642C5.37277 13.4886 6.04095 13.8458 6.76838 13.9904C7.49581 14.1351 8.24981 14.0609 8.93503 13.777C9.62026 13.4932 10.2059 13.0126 10.618 12.3959C11.03 11.7792 11.25 11.0542 11.25 10.3125C11.25 9.31794 10.8549 8.36411 10.1516 7.66085C9.44836 6.95759 8.49453 6.5625 7.49997 6.5625ZM22.5 6.5625C21.7583 6.5625 21.0333 6.78243 20.4166 7.19449C19.7999 7.60654 19.3193 8.19221 19.0354 8.87744C18.7516 9.56266 18.6773 10.3167 18.822 11.0441C18.9667 11.7715 19.3239 12.4397 19.8483 12.9642C20.3728 13.4886 21.041 13.8458 21.7684 13.9904C22.4958 14.1351 23.2498 14.0609 23.935 13.777C24.6203 13.4932 25.2059 13.0126 25.618 12.3959C26.03 11.7792 26.25 11.0542 26.25 10.3125C26.25 9.31794 25.8549 8.36411 25.1516 7.66085C24.4484 6.95759 23.4945 6.5625 22.5 6.5625Z" fill="url(#paint0_linear_6848_3876)"/>
<path d="M28.6875 17.625C28.589 17.6988 28.4769 17.7526 28.3577 17.7831C28.2384 17.8137 28.1143 17.8205 27.9924 17.803C27.8705 17.7856 27.7533 17.7444 27.6473 17.6817C27.5414 17.6189 27.4489 17.536 27.375 17.4375C26.8099 16.6779 26.0744 16.0617 25.2277 15.6383C24.381 15.2149 23.4467 14.9963 22.5 15C22.2513 15 22.0129 14.9012 21.8371 14.7254C21.6613 14.5496 21.5625 14.3111 21.5625 14.0625C21.5625 13.8138 21.6613 13.5754 21.8371 13.3996C22.0129 13.2237 22.2513 13.125 22.5 13.125C23.026 13.1249 23.5415 12.9774 23.9878 12.699C24.4342 12.4207 24.7936 12.0228 25.0251 11.5505C25.2567 11.0782 25.3511 10.5504 25.2977 10.0271C25.2443 9.50376 25.0453 9.00591 24.7231 8.59007C24.401 8.17423 23.9687 7.85706 23.4753 7.67459C22.982 7.49213 22.4473 7.45168 21.9321 7.55784C21.4169 7.664 20.9418 7.91251 20.5608 8.27515C20.1798 8.63779 19.9081 9.10002 19.7765 9.60934C19.7458 9.72861 19.6918 9.84064 19.6177 9.93905C19.5436 10.0375 19.4509 10.1203 19.3448 10.1829C19.2387 10.2455 19.1213 10.2865 18.9994 10.3037C18.8774 10.3209 18.7532 10.3139 18.634 10.2832C18.5147 10.2524 18.4027 10.1984 18.3043 10.1243C18.2058 10.0503 18.123 9.95753 18.0604 9.85143C17.9979 9.74534 17.9568 9.62795 17.9396 9.50598C17.9224 9.38402 17.9294 9.25986 17.9601 9.14059C18.1427 8.43432 18.4875 7.78039 18.9672 7.23085C19.447 6.6813 20.0483 6.2513 20.7235 5.97506C21.3986 5.69883 22.1289 5.58398 22.8563 5.63965C23.5836 5.69532 24.288 5.91999 24.9132 6.29576C25.5384 6.67153 26.0674 7.18805 26.4579 7.80421C26.8483 8.42036 27.0897 9.11915 27.1626 9.84498C27.2355 10.5708 27.138 11.3036 26.8778 11.9851C26.6177 12.6667 26.2021 13.278 25.664 13.7707C26.9388 14.3226 28.047 15.1985 28.8785 16.3113C28.9524 16.41 29.006 16.5224 29.0364 16.6419C29.0668 16.7614 29.0733 16.8857 29.0555 17.0078C29.0378 17.1298 28.9962 17.2471 28.933 17.353C28.8698 17.4589 28.7864 17.5513 28.6875 17.625ZM22.3734 24.8437C22.4389 24.9504 22.4823 25.0692 22.5011 25.193C22.5199 25.3167 22.5137 25.443 22.483 25.5644C22.4522 25.6857 22.3974 25.7997 22.3219 25.8995C22.2463 25.9993 22.1516 26.083 22.0432 26.1456C21.9348 26.2083 21.8149 26.2485 21.6907 26.2641C21.5665 26.2796 21.4404 26.2701 21.3199 26.2362C21.1994 26.2022 21.0869 26.1444 20.9891 26.0663C20.8913 25.9882 20.8101 25.8912 20.7504 25.7812C20.1597 24.7815 19.3187 23.953 18.3102 23.3775C17.3017 22.8019 16.1606 22.4992 14.9994 22.4992C13.8382 22.4992 12.6971 22.8019 11.6886 23.3775C10.6801 23.953 9.83907 24.7815 9.24842 25.7812C9.18981 25.8933 9.10915 25.9923 9.01128 26.0723C8.91341 26.1524 8.80036 26.2118 8.67893 26.247C8.55749 26.2823 8.43019 26.2926 8.30467 26.2773C8.17916 26.2621 8.05802 26.2216 7.94855 26.1583C7.83909 26.095 7.74355 26.0103 7.66769 25.9091C7.59183 25.808 7.53722 25.6925 7.50714 25.5697C7.47706 25.4469 7.47213 25.3193 7.49265 25.1945C7.51317 25.0697 7.55872 24.9504 7.62655 24.8437C8.53545 23.282 9.92131 22.0531 11.5805 21.3375C10.6469 20.6227 9.96072 19.6333 9.6185 18.5084C9.27628 17.3834 9.29518 16.1796 9.67254 15.0659C10.0499 13.9523 10.7668 12.985 11.7223 12.2998C12.6779 11.6147 13.8242 11.2462 15 11.2462C16.1758 11.2462 17.3221 11.6147 18.2776 12.2998C19.2332 12.985 19.9501 13.9523 20.3274 15.0659C20.7048 16.1796 20.7237 17.3834 20.3815 18.5084C20.0392 19.6333 19.3531 20.6227 18.4195 21.3375C20.0787 22.0531 21.4645 23.282 22.3734 24.8437ZM15 20.625C15.7417 20.625 16.4667 20.405 17.0834 19.993C17.7001 19.5809 18.1807 18.9953 18.4645 18.31C18.7484 17.6248 18.8226 16.8708 18.6779 16.1434C18.5332 15.4159 18.1761 14.7478 17.6516 14.2233C17.1272 13.6989 16.459 13.3417 15.7316 13.197C15.0041 13.0523 14.2501 13.1266 13.5649 13.4104C12.8797 13.6942 12.294 14.1749 11.882 14.7916C11.4699 15.4083 11.25 16.1333 11.25 16.875C11.25 17.8695 11.6451 18.8234 12.3483 19.5266C13.0516 20.2299 14.0054 20.625 15 20.625ZM8.43749 14.0625C8.43749 13.8138 8.33871 13.5754 8.1629 13.3996C7.98708 13.2237 7.74863 13.125 7.49999 13.125C6.97396 13.1249 6.4585 12.9774 6.01214 12.699C5.56578 12.4207 5.20641 12.0228 4.97487 11.5505C4.74332 11.0782 4.64887 10.5504 4.70225 10.0271C4.75563 9.50376 4.95469 9.00591 5.27683 8.59007C5.59897 8.17423 6.03127 7.85706 6.52463 7.67459C7.01799 7.49213 7.55264 7.45168 8.06784 7.55784C8.58303 7.664 9.05814 7.91251 9.43917 8.27515C9.82021 8.63779 10.0919 9.10002 10.2234 9.60934C10.2856 9.85021 10.4409 10.0565 10.6552 10.1829C10.8694 10.3093 11.1251 10.3453 11.366 10.2832C11.6069 10.221 11.8132 10.0657 11.9396 9.85143C12.0659 9.63716 12.102 9.38146 12.0398 9.14059C11.8573 8.43432 11.5125 7.78039 11.0327 7.23085C10.553 6.6813 9.95164 6.2513 9.27649 5.97506C8.60134 5.69883 7.87104 5.58398 7.14369 5.63965C6.41634 5.69532 5.71202 5.91999 5.08677 6.29576C4.46153 6.67153 3.93262 7.18805 3.54212 7.80421C3.15162 8.42036 2.91032 9.11915 2.83741 9.84498C2.7645 10.5708 2.862 11.3036 3.12215 11.9851C3.38229 12.6667 3.79791 13.278 4.33592 13.7707C3.06243 14.3231 1.95551 15.199 1.12499 16.3113C1.05104 16.4098 0.997218 16.5219 0.966592 16.6412C0.935966 16.7605 0.929137 16.8846 0.946494 17.0065C0.96385 17.1285 1.00505 17.2458 1.06775 17.3518C1.13045 17.4578 1.21341 17.5504 1.3119 17.6244C1.41039 17.6983 1.52248 17.7521 1.64177 17.7828C1.76107 17.8134 1.88522 17.8202 2.00715 17.8029C2.12909 17.7855 2.2464 17.7443 2.35241 17.6816C2.45842 17.6189 2.55104 17.536 2.62499 17.4375C3.19005 16.6779 3.92555 16.0617 4.77228 15.6383C5.61901 15.2149 6.55332 14.9963 7.49999 15C7.74863 15 7.98708 14.9012 8.1629 14.7254C8.33871 14.5496 8.43749 14.3111 8.43749 14.0625Z" fill="url(#paint1_linear_6848_3876)"/>
<defs>
<linearGradient id="paint0_linear_6848_3876" x1="15" y1="6.5625" x2="15" y2="21.5625" gradientUnits="userSpaceOnUse">
<stop stop-color="#C564FD"/>
<stop offset="1" stop-color="#5315B2"/>
</linearGradient>
<linearGradient id="paint1_linear_6848_3876" x1="15.0012" y1="5.62598" x2="15.0012" y2="26.2842" gradientUnits="userSpaceOnUse">
<stop stop-color="#C564FD"/>
<stop offset="1" stop-color="#5315B2"/>
</linearGradient>
</defs>
</svg>
