<svg width="30" height="30" viewBox="0 0 30 30" fill="none" xmlns="http://www.w3.org/2000/svg">
<g clip-path="url(#clip0_6846_1878)">
<path d="M0.643866 14.8204C0.643163 17.341 1.30674 19.8021 2.56853 21.9714L0.523193 29.3833L8.16563 27.3944C10.2794 28.5365 12.6478 29.135 15.0545 29.1351H15.0608C23.0059 29.1351 29.4733 22.7185 29.4767 14.8316C29.4783 11.0099 27.9801 7.41618 25.258 4.71246C22.5364 2.00897 18.9168 0.519322 15.0602 0.517578C7.11426 0.517578 0.647263 6.93386 0.643983 14.8204" fill="url(#paint0_linear_6846_1878)"/>
<path d="M0.129143 14.8158C0.128323 17.4271 0.815687 19.9763 2.12247 22.2233L0.00378418 29.9008L7.92025 27.8407C10.1015 29.021 12.5574 29.6434 15.0563 29.6443H15.0628C23.2929 29.6443 29.9927 22.9969 29.9962 14.8277C29.9976 10.8686 28.4455 7.1457 25.6262 4.34512C22.8065 1.54488 19.0575 0.00162791 15.0628 0C6.83127 0 0.132423 6.64651 0.129143 14.8158ZM4.84369 21.8363L4.5481 21.3706C3.30552 19.4097 2.64967 17.1436 2.65061 14.8167C2.65319 8.02663 8.221 2.50233 15.0675 2.50233C18.383 2.50372 21.499 3.78651 23.8426 6.11395C26.1861 8.44163 27.4756 11.5358 27.4748 14.8267C27.4718 21.6169 21.9038 27.1419 15.0628 27.1419H15.0579C12.8303 27.1407 10.6457 26.547 8.74047 25.425L8.28707 25.1581L3.58928 26.3806L4.84369 21.8363Z" fill="url(#paint1_linear_6846_1878)"/>
<path d="M11.3304 8.62165C11.0509 8.00502 10.7567 7.99257 10.4908 7.98176C10.2732 7.97246 10.0243 7.97316 9.77571 7.97316C9.52687 7.97316 9.12256 8.06606 8.78081 8.43641C8.43871 8.80711 7.47473 9.70292 7.47473 11.5249C7.47473 13.3469 8.81185 15.1078 8.99825 15.3551C9.18488 15.602 11.5796 19.4606 15.3722 20.945C18.5242 22.1786 19.1657 21.9333 19.8498 21.8714C20.534 21.8098 22.0575 20.9758 22.3683 20.1111C22.6793 19.2464 22.6793 18.5052 22.5861 18.3504C22.4928 18.1961 22.244 18.1034 21.8708 17.9183C21.4977 17.7332 19.6631 16.8371 19.3211 16.7135C18.979 16.59 18.7303 16.5284 18.4815 16.8992C18.2326 17.2694 17.5181 18.1034 17.3003 18.3504C17.0827 18.5979 16.8649 18.6287 16.4919 18.4435C16.1185 18.2577 14.9168 17.8671 13.4911 16.6056C12.3819 15.624 11.633 14.4118 11.4153 14.0409C11.1977 13.6707 11.392 13.47 11.5791 13.2855C11.7468 13.1196 11.9524 12.853 12.1391 12.6369C12.3252 12.4206 12.3873 12.2663 12.5117 12.0193C12.6362 11.7721 12.5739 11.5558 12.4808 11.3706C12.3873 11.1854 11.6622 9.35385 11.3304 8.62165Z" fill="white"/>
</g>
<defs>
<linearGradient id="paint0_linear_6846_1878" x1="1448.2" y1="2887.09" x2="1448.2" y2="0.517578" gradientUnits="userSpaceOnUse">
<stop stop-color="#1FAF38"/>
<stop offset="1" stop-color="#60D669"/>
</linearGradient>
<linearGradient id="paint1_linear_6846_1878" x1="1499.62" y1="2990.08" x2="1499.62" y2="0" gradientUnits="userSpaceOnUse">
<stop stop-color="#F9F9F9"/>
<stop offset="1" stop-color="white"/>
</linearGradient>
<clipPath id="clip0_6846_1878">
<rect width="30" height="30" fill="white"/>
</clipPath>
</defs>
</svg>
